<svg width="101" height="22" viewBox="0 0 101 22" fill="none" xmlns="http://www.w3.org/2000/svg">
<path d="M11 13.0625C12.1391 13.0625 13.0625 12.1391 13.0625 11C13.0625 9.86091 12.1391 8.9375 11 8.9375C9.86091 8.9375 8.9375 9.86091 8.9375 11C8.9375 12.1391 9.86091 13.0625 11 13.0625Z" stroke="black" stroke-width="1.375" stroke-linecap="round" stroke-linejoin="round"/>
<path d="M8.25 6.875C9.38909 6.875 10.3125 5.95159 10.3125 4.8125C10.3125 3.67341 9.38909 2.75 8.25 2.75C7.11091 2.75 6.1875 3.67341 6.1875 4.8125C6.1875 5.95159 7.11091 6.875 8.25 6.875Z" stroke="black" stroke-width="1.375" stroke-linecap="round" stroke-linejoin="round"/>
<path d="M17.1875 11C18.3266 11 19.25 10.0766 19.25 8.9375C19.25 7.79841 18.3266 6.875 17.1875 6.875C16.0484 6.875 15.125 7.79841 15.125 8.9375C15.125 10.0766 16.0484 11 17.1875 11Z" stroke="black" stroke-width="1.375" stroke-linecap="round" stroke-linejoin="round"/>
<path d="M17.1875 17.875C18.3266 17.875 19.25 16.9516 19.25 15.8125C19.25 14.6734 18.3266 13.75 17.1875 13.75C16.0484 13.75 15.125 14.6734 15.125 15.8125C15.125 16.9516 16.0484 17.875 17.1875 17.875Z" stroke="black" stroke-width="1.375" stroke-linecap="round" stroke-linejoin="round"/>
<path d="M4.8125 18.5625C5.95159 18.5625 6.875 17.6391 6.875 16.5C6.875 15.3609 5.95159 14.4375 4.8125 14.4375C3.67341 14.4375 2.75 15.3609 2.75 16.5C2.75 17.6391 3.67341 18.5625 4.8125 18.5625Z" stroke="black" stroke-width="1.375" stroke-linecap="round" stroke-linejoin="round"/>
<path d="M10.1621 9.11542L9.08789 6.69714" stroke="black" stroke-width="1.375" stroke-linecap="round" stroke-linejoin="round"/>
<path d="M15.2307 9.58972L12.9568 10.3477" stroke="black" stroke-width="1.375" stroke-linecap="round" stroke-linejoin="round"/>
<path d="M15.5599 14.5467L12.6277 12.2659" stroke="black" stroke-width="1.375" stroke-linecap="round" stroke-linejoin="round"/>
<path d="M9.45831 12.3699L6.35425 15.1302" stroke="black" stroke-width="1.375" stroke-linecap="round" stroke-linejoin="round"/>
<path d="M36.234 11.4091C36.234 12.4962 36.0351 13.4309 35.6374 14.2131C35.2397 14.992 34.6945 15.5919 34.0018 16.0128C33.3124 16.4304 32.5285 16.6392 31.6502 16.6392C30.7686 16.6392 29.9814 16.4304 29.2887 16.0128C28.5993 15.5919 28.0557 14.9903 27.658 14.2081C27.2603 13.4259 27.0614 12.4929 27.0614 11.4091C27.0614 10.322 27.2603 9.38897 27.658 8.61008C28.0557 7.82789 28.5993 7.22798 29.2887 6.81037C29.9814 6.38944 30.7686 6.17898 31.6502 6.17898C32.5285 6.17898 33.3124 6.38944 34.0018 6.81037C34.6945 7.22798 35.2397 7.82789 35.6374 8.61008C36.0351 9.38897 36.234 10.322 36.234 11.4091ZM34.7127 11.4091C34.7127 10.5805 34.5785 9.88281 34.31 9.31605C34.0449 8.74598 33.6803 8.3151 33.2163 8.02344C32.7556 7.72846 32.2335 7.58097 31.6502 7.58097C31.0636 7.58097 30.5399 7.72846 30.0792 8.02344C29.6185 8.3151 29.2539 8.74598 28.9854 9.31605C28.7203 9.88281 28.5877 10.5805 28.5877 11.4091C28.5877 12.2377 28.7203 12.937 28.9854 13.5071C29.2539 14.0739 29.6185 14.5047 30.0792 14.7997C30.5399 15.0914 31.0636 15.2372 31.6502 15.2372C32.2335 15.2372 32.7556 15.0914 33.2163 14.7997C33.6803 14.5047 34.0449 14.0739 34.31 13.5071C34.5785 12.937 34.7127 12.2377 34.7127 11.4091ZM37.89 19.3636V8.86364H39.3417V10.1016H39.466C39.5522 9.94247 39.6765 9.75852 39.8389 9.54972C40.0013 9.34091 40.2266 9.15862 40.515 9.00284C40.8033 8.84375 41.1845 8.7642 41.6585 8.7642C42.2749 8.7642 42.8251 8.91998 43.309 9.23153C43.7929 9.54309 44.1724 9.99219 44.4475 10.5788C44.7259 11.1655 44.8651 11.8714 44.8651 12.6967C44.8651 13.522 44.7276 14.2296 44.4525 14.8196C44.1774 15.4062 43.7996 15.8587 43.319 16.1768C42.8384 16.4917 42.2899 16.6491 41.6734 16.6491C41.2094 16.6491 40.8299 16.5713 40.5349 16.4155C40.2432 16.2597 40.0145 16.0774 39.8488 15.8686C39.6831 15.6598 39.5555 15.4742 39.466 15.3118H39.3765V19.3636H37.89ZM39.3467 12.6818C39.3467 13.2187 39.4246 13.6894 39.5803 14.0938C39.7361 14.4981 39.9615 14.8146 40.2565 15.0433C40.5515 15.2687 40.9127 15.3814 41.3403 15.3814C41.7844 15.3814 42.1556 15.2637 42.4539 15.0284C42.7522 14.7898 42.9776 14.4666 43.1301 14.0589C43.2858 13.6513 43.3637 13.1922 43.3637 12.6818C43.3637 12.178 43.2875 11.7256 43.135 11.3246C42.9859 10.9235 42.7605 10.607 42.4589 10.375C42.1606 10.143 41.7877 10.027 41.3403 10.027C40.9094 10.027 40.5448 10.138 40.2465 10.3601C39.9515 10.5821 39.7278 10.892 39.5754 11.2898C39.4229 11.6875 39.3467 12.1515 39.3467 12.6818ZM49.9552 8.86364V10.0568H45.7841V8.86364H49.9552ZM46.9027 7.03409H48.3892V14.2578C48.3892 14.5462 48.4323 14.7633 48.5185 14.9091C48.6046 15.0516 48.7157 15.1494 48.8516 15.2024C48.9908 15.2521 49.1416 15.277 49.304 15.277C49.4233 15.277 49.5277 15.2687 49.6172 15.2521C49.7067 15.2356 49.7763 15.2223 49.826 15.2124L50.0945 16.4403C50.0083 16.4735 49.8856 16.5066 49.7266 16.5398C49.5675 16.5762 49.3686 16.5961 49.13 16.5994C48.7389 16.6061 48.3743 16.5365 48.0362 16.3906C47.6981 16.2448 47.4247 16.0194 47.2159 15.7145C47.0071 15.4096 46.9027 15.0268 46.9027 14.5661V7.03409ZM51.4596 16.5V8.86364H52.9461V16.5H51.4596ZM52.2103 7.68537C51.9518 7.68537 51.7297 7.59919 51.5441 7.42685C51.3618 7.25118 51.2707 7.04238 51.2707 6.80043C51.2707 6.55516 51.3618 6.34635 51.5441 6.17401C51.7297 5.99834 51.9518 5.91051 52.2103 5.91051C52.4688 5.91051 52.6892 5.99834 52.8715 6.17401C53.0571 6.34635 53.1499 6.55516 53.1499 6.80043C53.1499 7.04238 53.0571 7.25118 52.8715 7.42685C52.6892 7.59919 52.4688 7.68537 52.2103 7.68537ZM54.8059 16.5V8.86364H56.2328V10.1065H56.3272C56.4863 9.68561 56.7465 9.35748 57.1078 9.12216C57.469 8.88352 57.9016 8.7642 58.4054 8.7642C58.9158 8.7642 59.3433 8.88352 59.688 9.12216C60.036 9.3608 60.2929 9.68892 60.4586 10.1065H60.5382C60.7205 9.69886 61.0105 9.37405 61.4082 9.1321C61.8059 8.88684 62.2799 8.7642 62.8301 8.7642C63.5228 8.7642 64.0879 8.9813 64.5254 9.41548C64.9662 9.84967 65.1866 10.5043 65.1866 11.3793V16.5H63.7001V11.5185C63.7001 11.0014 63.5592 10.6269 63.2775 10.3949C62.9958 10.1629 62.6594 10.0469 62.2683 10.0469C61.7844 10.0469 61.4082 10.196 61.1397 10.4943C60.8713 10.7893 60.737 11.1688 60.737 11.6328V16.5H59.2555V11.424C59.2555 11.0097 59.1262 10.6766 58.8677 10.4247C58.6092 10.1728 58.2728 10.0469 57.8585 10.0469C57.5768 10.0469 57.3166 10.1214 57.0779 10.2706C56.8426 10.4164 56.652 10.6203 56.5062 10.8821C56.3637 11.1439 56.2924 11.4472 56.2924 11.7919V16.5H54.8059ZM71.8763 13.3331V8.86364H73.3678V16.5H71.9062V15.1776H71.8266C71.651 15.5852 71.3692 15.925 70.9814 16.1967C70.597 16.4652 70.118 16.5994 69.5447 16.5994C69.0541 16.5994 68.6199 16.4917 68.2421 16.2763C67.8676 16.0575 67.5726 15.7344 67.3572 15.3068C67.145 14.8793 67.039 14.3506 67.039 13.7209V8.86364H68.5255V13.5419C68.5255 14.0623 68.6697 14.4766 68.958 14.7848C69.2464 15.093 69.6209 15.2472 70.0816 15.2472C70.36 15.2472 70.6368 15.1776 70.9118 15.0384C71.1903 14.8991 71.4206 14.6887 71.6029 14.407C71.7885 14.1252 71.8797 13.7673 71.8763 13.3331ZM80.9475 10.728L79.6002 10.9666C79.5438 10.7943 79.4543 10.6302 79.3317 10.4744C79.2124 10.3187 79.05 10.1911 78.8445 10.0916C78.639 9.99219 78.3821 9.94247 78.0739 9.94247C77.6529 9.94247 77.3016 10.0369 77.0199 10.2259C76.7382 10.4115 76.5973 10.6518 76.5973 10.9467C76.5973 11.2019 76.6918 11.4074 76.8807 11.5632C77.0696 11.719 77.3745 11.8466 77.7955 11.946L79.0085 12.2244C79.7112 12.3868 80.2349 12.6371 80.5796 12.9751C80.9243 13.3132 81.0966 13.7524 81.0966 14.2926C81.0966 14.75 80.964 15.1577 80.6989 15.5156C80.437 15.8703 80.0708 16.1487 79.6002 16.3509C79.1328 16.553 78.5909 16.6541 77.9744 16.6541C77.1193 16.6541 76.4216 16.4718 75.8814 16.1072C75.3412 15.7393 75.0097 15.2173 74.8871 14.5412L76.3239 14.3224C76.4134 14.697 76.5973 14.9804 76.8757 15.1726C77.1541 15.3615 77.5171 15.456 77.9645 15.456C78.4517 15.456 78.8412 15.3549 79.1328 15.1527C79.4245 14.9472 79.5703 14.697 79.5703 14.402C79.5703 14.1634 79.4808 13.9628 79.3019 13.8004C79.1262 13.638 78.8561 13.5154 78.4915 13.4325L77.1989 13.1491C76.4863 12.9867 75.9593 12.7282 75.6179 12.3736C75.2798 12.0189 75.1108 11.5698 75.1108 11.0263C75.1108 10.5755 75.2368 10.1811 75.4886 9.84304C75.7405 9.50497 76.0886 9.24148 76.5327 9.05256C76.9768 8.86032 77.4856 8.7642 78.059 8.7642C78.8842 8.7642 79.5339 8.94318 80.0078 9.30114C80.4818 9.65578 80.795 10.1314 80.9475 10.728ZM82.7103 16.5V6.31818H84.2466V11.1804H84.3708L88.6414 6.31818H90.5754L86.4689 10.902L90.5903 16.5H88.7409L85.4497 11.951L84.2466 13.3331V16.5H82.7103ZM98.252 9.5348C98.1559 9.23319 98.0266 8.96307 97.8642 8.72443C97.7051 8.48248 97.5145 8.27699 97.2925 8.10795C97.0704 7.93561 96.8168 7.80469 96.5318 7.7152C96.2501 7.62571 95.9402 7.58097 95.6021 7.58097C95.0287 7.58097 94.5117 7.72846 94.051 8.02344C93.5903 8.31842 93.2257 8.75095 92.9572 9.32102C92.6921 9.88778 92.5595 10.5821 92.5595 11.4041C92.5595 12.2294 92.6937 12.9271 92.9622 13.4972C93.2307 14.0672 93.5986 14.4998 94.0659 14.7947C94.5332 15.0897 95.0652 15.2372 95.6618 15.2372C96.2153 15.2372 96.6975 15.1245 97.1085 14.8991C97.5228 14.6738 97.8426 14.3556 98.068 13.9446C98.2967 13.5303 98.4111 13.0431 98.4111 12.483L98.8088 12.5575H95.8954V11.2898H99.8976V12.4482C99.8976 13.3033 99.7153 14.0457 99.3507 14.6754C98.9894 15.3018 98.4889 15.7857 97.8493 16.1271C97.2129 16.4685 96.4837 16.6392 95.6618 16.6392C94.7404 16.6392 93.9317 16.4271 93.2356 16.0028C92.5429 15.5786 92.0027 14.977 91.6149 14.1982C91.2271 13.416 91.0332 12.4879 91.0332 11.4141C91.0332 10.602 91.1459 9.87287 91.3713 9.22656C91.5967 8.58026 91.9132 8.03172 92.3209 7.58097C92.7318 7.12689 93.2141 6.78054 93.7676 6.5419C94.3244 6.29995 94.9326 6.17898 95.5922 6.17898C96.1424 6.17898 96.6544 6.26018 97.1284 6.42258C97.6057 6.58499 98.0299 6.81534 98.4011 7.11364C98.7756 7.41193 99.0855 7.76657 99.3308 8.17756C99.5761 8.58523 99.7418 9.03764 99.828 9.5348H98.252Z" fill="black"/>
</svg>
