<svg width="768" height="175" viewBox="0 0 768 175" fill="none" xmlns="http://www.w3.org/2000/svg">
<path d="M225.203 45.6003C235.329 45.5625 245.672 45.3684 255.798 45.7832C266.197 46.0597 275.66 49.6332 282.804 57.2983C294.373 69.7113 294.275 102.224 281.251 113.507C269.883 123.868 257.863 124.159 243.234 124.23L225.21 124.294L225.203 45.6003ZM242.806 109.829C251.325 109.955 261.302 110.505 268.018 104.039L268.086 103.974C273.374 97.7031 274.135 88.4832 273.503 80.6307C271.863 60.2939 259.037 59.7052 242.823 59.9979L242.806 109.829Z" fill="#1F1D1E"/>
<path d="M207.234 45.5495C207.294 45.5758 207.75 46.0577 207.75 46.079C207.977 63.0735 207.866 110.46 207.889 124.313C202.159 124.183 196.176 124.272 190.426 124.278C190.558 113.06 190.457 101.659 190.46 90.4267C180.988 90.0471 169.54 90.3514 159.994 90.3922L159.989 124.335C155.78 124.25 151.439 124.283 147.219 124.265L142.457 124.336C142.289 99.0205 141.907 70.6929 142.549 45.5405L159.973 45.5919C159.935 55.5433 159.955 65.4947 160.034 75.4457C170.166 75.5577 180.3 75.5637 190.431 75.4637L190.511 45.5596L207.234 45.5495Z" fill="#1F1D1E"/>
<path d="M328.563 44.0065C342.295 42.6424 355.079 48.5992 362.556 60.1747C359.145 63.0912 353.902 66.7696 350.245 69.444C349.137 67.9361 348.055 66.5275 346.75 65.1803C342.694 60.9654 337.119 58.5498 331.269 58.4738C326.669 58.4127 320.053 60.1263 320.035 65.7451C320.088 72.6102 328.023 74.6011 333.196 76.166C346.312 80.1333 364.859 83.8904 364.357 101.233C364.169 107.737 363.052 112.264 358.285 117.029C350.719 124.591 341.345 125.485 331.176 125.505C317.099 125.424 305.561 118.416 299.002 105.958C303.73 102.904 307.541 100.953 312.416 98.3397C314.418 101.016 316.009 102.852 318.18 105.363C323.64 111.679 339.072 114.351 345.166 107.648C346.495 106.198 347.174 104.269 347.045 102.306C346.557 93.6874 328.858 91.3434 322.263 88.8218C316.214 86.5094 311.826 85.4627 307.261 80.372C300.147 72.4382 301.781 59.5245 308.454 51.8905C313.337 46.3054 321.377 44.4352 328.563 44.0065Z" fill="#1F1D1E"/>
<path d="M378.871 45.5796L396.53 45.5586L396.519 124.312C390.623 124.233 384.73 124.243 378.834 124.343L378.871 45.5796Z" fill="#1F1D1E"/>
<path d="M71.4629 98.2918C77.3096 98.0962 103.947 97.9141 107.966 98.9356L107.565 98.9277L107.261 99.2488C102.972 99.685 97.6167 99.5962 93.1651 99.6813C89.0189 103.454 83.3914 107.934 78.8911 111.226C75.0175 111.31 72.8397 111.448 69.0609 110.782L69.2296 110.475C72.614 109.877 75.2795 109.956 78.7052 109.875C80.6521 107.704 89.9444 101.24 90.5416 99.6262C89.9321 99.2567 73.309 99.6138 71.0093 99.6678C60.384 108.089 48.0079 116.944 36.9544 125.127C35.8278 125.12 32.4386 124.917 31.8446 125.575C33.2242 126.31 33.9326 127.922 35.0211 129.014C35.6837 129.679 36.3728 130.04 37.3218 129.783C40.5047 128.919 50.5107 119.2 54.7348 117.202C59.2989 115.044 86.2099 116.092 92.9998 116.112L93.0609 110.102C95.031 108.794 101.948 103.411 103.776 103.881L103.544 104.572C102.183 105.997 96.6668 109.692 94.8316 110.501L94.8511 111.41C95.0277 120.83 89.3338 117.654 81.1533 117.682C77.4746 117.736 71.6289 116.79 69.2397 118.146C68.2595 119.578 68.4829 120.158 68.2954 122.004C71.3515 121.911 89.4669 121.565 90.6551 122.673C89.5711 123.678 71.5146 123.225 68.6883 123.215C68.5803 124.879 68.3948 126.3 68.1706 127.941C73.4611 128.17 78.7318 127.969 84.206 128.259C81.9074 130.722 77.8884 133.803 75.1847 136.005L63.5668 136.064C60.6131 138.083 57.5529 140.117 54.7172 142.287C56.2259 143.074 57.6218 144.075 59.0267 145.037C61.9726 142.724 66.0198 140.11 69.5763 138.969C68.2119 141.052 61.5325 145.051 59.1553 146.585C55.2731 144.386 46.6427 139.429 43.4877 136.844C37.2033 131.695 56.8107 121.678 59.956 118.39L59.902 117.906L59.9987 118.039C55.7877 116.745 53.1279 120.192 49.9691 122.499L36.2549 132.408C35.1107 131.155 29.5581 125.582 29.2617 124.763L29.6149 124.178C31.2754 123.517 34.1276 123.742 36.0011 123.769C40.0294 121.426 43.7145 117.652 47.3901 115.46C55.0107 110.915 63.7419 101.836 71.4629 98.2918ZM75.1697 134.218C76.6387 132.91 77.9937 131.824 79.5339 130.61L79.4534 129.984L80.1659 129.209L79.8631 128.808C78.2194 128.376 69.2138 128.344 68.1508 129.01C69.5557 129.342 76.6151 129.408 78.5927 129.484C75.0793 129.519 71.5667 129.597 68.0552 129.72L67.2729 129.545C66.7818 127.706 66.9816 120.07 67 117.572C61.1708 117.695 61.3073 119.677 56.7961 122.841C56.7964 125.014 57.0446 132.612 56.5333 133.988L55.9916 134.373C54.6212 132.655 55.6674 127.217 54.8682 124.201L54.4091 124.152C52.8572 126.313 46.6997 129.462 44.0424 132.512L44.1212 135.325C56.1982 145.44 53.4652 138.531 64.9447 134.396C66.3871 133.876 73.1688 134.174 75.1697 134.218ZM73.5657 135.094C70.8342 134.829 67.0911 134.648 64.378 135.085C67.027 135.316 70.9295 135.499 73.5657 135.094Z" fill="#1F1D1E" fill-opacity="0.894118"/>
<path d="M68.0547 129.721C71.5662 129.597 75.0788 129.519 78.5922 129.484C76.6146 129.408 69.5552 129.342 68.1503 129.01C69.2133 128.345 78.2189 128.376 79.8626 128.808L80.1654 129.21L79.4529 129.985C76.1861 129.988 71.158 130.136 68.0547 129.721Z" fill="#1F1D1E" fill-opacity="0.627451"/>
<path d="M64.3779 135.085C67.091 134.648 70.8342 134.829 73.5657 135.094C70.9294 135.499 67.0269 135.317 64.3779 135.085Z" fill="#1F1D1E" fill-opacity="0.513725"/>
<path d="M614.066 46.2563C620.269 45.8583 627.534 46.2518 631.053 52.1411C635.454 59.5049 633.569 69.2933 626.33 74.0119C621.165 76.2502 614.53 76.5639 609.031 75.63C609.046 66.1167 609.208 56.0424 608.919 46.5789L614.066 46.2563ZM613.023 72.6284C617.21 72.6674 621.967 73.0826 625.255 70.1185C631.443 63.6933 630.004 50.9918 619.954 49.4891C617.578 49.1338 615.475 49.3137 613.098 49.5749C612.963 57.2584 612.937 64.9438 613.023 72.6284Z" fill="#1F1D1E"/>
<path d="M40.1809 84.8545C55.4209 84.5356 71.2429 84.9298 86.5256 84.7833C91.2074 84.7387 109.62 84.4606 113.204 85.4297L112.935 85.746C110.012 86.3755 106.677 86.2646 103.664 86.2695C101.289 88.015 98.7349 90.2251 96.445 92.1288C83.9133 92.502 69.6169 92.1588 56.9397 92.2157C51.9262 94.8018 39.6786 103.597 34.2095 107.033C32.2284 107.051 19.103 106.763 18.1774 107.056L18.1569 107.868C19.045 109.092 19.3115 110.064 19.8076 111.493C23.4986 113.049 24.1337 113.22 25.3095 117.087C26.7267 118.401 33.7365 117.84 35.9838 117.787C43.0998 113.244 49.7769 108.058 56.7812 103.362C59.9085 101.266 59.3537 99.0257 60.0003 95.3421L60.4265 95.6348C60.9149 97.4653 60.7552 99.8805 60.7234 101.814C54.8354 107.246 43.7554 113.749 37.0198 119.153C32.5321 119.223 27.8425 119.133 23.3387 119.109C23.4056 117.958 23.4656 116.808 23.5189 115.656C20.5973 112.884 16.9198 110.835 15.7956 106.363L16.1175 105.844L17.5236 105.702C23.0649 105.701 28.606 105.642 34.1459 105.523C37.4714 102.66 51.5499 94.7913 52.671 92.7017L52.331 92.2337C50.9943 91.9009 42.1316 92.1992 39.8998 92.1475C38.243 93.0918 26.8704 100.629 25.1694 101.952C23.3269 101.968 11.3843 102.138 10.5074 101.401C15.2832 99.7565 19.1035 101.454 24.5049 100.08C28.8746 98.9684 36.8531 91.7507 38.7168 91.1492C40.6712 90.5189 54.3203 90.7558 57.1144 90.7569L95.728 90.7723C97.4646 89.5184 99.2324 87.7774 100.926 86.8042L100.725 86.3931C96.026 85.758 41.5611 85.8423 38.7029 86.6798C34.3859 87.9445 30.8764 92.4612 26.9171 94.6365C23.0366 96.7683 12.0445 96.3074 7.72544 95.0513L7.63281 94.7519C8.43404 95.2462 8.05788 94.6481 8.37103 94.5837C13.1793 93.594 19.7396 95.1686 24.3197 93.9556C29.8534 92.4904 34.0671 85.9828 40.1809 84.8545Z" fill="#1F1D1E" fill-opacity="0.909804"/>
<path d="M589.375 44.7143L593.644 44.6885C593.633 49.3861 594.319 72.3467 593.509 75.5492C591.935 75.7429 591.459 75.8235 589.911 75.5364C589.794 74.8533 589.667 74.1724 589.532 73.493C586.282 73.8187 586.994 77.9482 579.621 75.8032C578.392 75.27 576.63 74.3504 575.948 73.2165C571.794 66.3398 573.384 58.9313 579.572 54.4177C584.112 54.0568 585.802 53.6566 589.367 56.5802C589.318 52.6605 589.367 48.6415 589.375 44.7143ZM583.782 72.8005C585.18 72.648 587.245 72.3808 587.965 71.0798C591.103 65.4235 590.469 58.4651 583.4 57.3668C575.453 60.0338 575.296 71.8307 583.782 72.8005Z" fill="#1F1D1E"/>
<path d="M426.228 44.7305L429.583 44.7736C429.71 52.2765 429.673 124.153 429.268 124.895L428.683 124.868C427.034 124.912 426.157 124.967 424.545 124.653C424.504 124.526 424.466 124.397 424.436 124.267C423.6 120.668 424.612 45.0561 424.687 44.9396L426.228 44.7305Z" fill="#1F1D1E"/>
<path d="M473.271 58.8013C473.249 56.237 472.754 47.955 474.13 46.4561C475.412 46.3811 475.88 46.3122 477.113 46.7004C477.597 49.2774 477.44 54.5709 477.421 57.3683C477.32 63.4757 477.308 69.5846 477.387 75.6923C476.045 75.7212 475.112 75.6766 473.774 75.5698C472.96 74.5528 473.286 64.1682 473.301 62.1315C468.833 61.9299 463.754 62.088 459.233 62.1439C459.185 65.4142 459.957 73.852 458.296 75.5784C456.891 75.9299 457.404 75.985 456.077 75.5319C455.02 73.641 455.519 50.2795 455.541 46.3804C456.737 46.3523 457.936 46.2222 459.02 46.7203C459.391 48.9016 459.226 56.207 459.215 58.8133L473.271 58.8013Z" fill="#1F1D1E"/>
<path d="M543.176 54.4419C546.313 54.2122 547.704 54.1631 550.819 54.4502C557.836 58.4246 555.336 68.4764 555.845 75.7825C554.571 75.732 553.296 75.6506 552.026 75.539C551.842 74.8626 551.786 74.6733 551.463 74.0535C547.037 74.4792 549.042 78.4926 541.568 75.3707C536.41 71.792 538.408 65.1379 543.787 63.0821C545.68 62.3574 549.998 62.8528 551.295 61.2725C551.299 60.5594 551.182 60.5204 550.957 59.9932C548.828 54.9838 544.604 58.8664 540.728 58.0109C540.619 57.9873 540.379 57.4551 540.297 57.2978C540.582 55.1854 541.451 55.2052 543.176 54.4419ZM546.561 72.9297C550.47 72.5025 552.73 69.2502 551.025 65.6636C549.987 64.9239 549.571 65.124 548.015 65.2754C545.575 66.3026 542.887 67.4579 542.91 70.6097C543.877 72.5861 544.394 72.6348 546.561 72.9297Z" fill="#1F1D1E"/>
<path d="M676.653 102.356C677.549 102.322 678.441 102.307 679.337 102.31C689.285 102.394 687.37 116.504 687.167 123.797C686.271 124.762 686.687 124.523 685.503 124.89C684.806 124.652 684.251 123.338 683.078 122.438C682.013 122.532 681.361 123.451 680.45 124.291C677.399 124.654 675.989 124.845 672.972 123.883C671.233 122.517 670.64 121.598 670.442 119.354C669.745 111.401 676.908 110.877 682.916 110.525C680.634 101.586 677.305 106.882 672.987 106.446C671.885 105.554 672.192 105.855 671.724 104.427L672.024 103.883C673.279 103.031 675.146 102.712 676.653 102.356ZM677.125 121.516C679.067 121.418 679.753 121.536 681.166 120.074C682.512 118.682 684.142 114.816 682.373 113.23C681.912 113.221 681.125 113.182 680.694 113.247C675.333 114.142 671.454 119.211 677.125 121.516Z" fill="#1F1D1E"/>
<path d="M640.594 54.4447C641.726 54.3169 642.865 54.2382 644.005 54.2086C655.76 53.9065 652.903 67.458 653.087 75.8224C651.67 75.7666 650.782 75.7362 649.395 75.4713L649.076 74.0034C644.454 74.7926 645.571 77.8587 639.402 75.6519C635.511 73.8296 635.413 69.5007 637.108 65.9823C639.132 61.7853 647.056 63.6987 648.551 61.122C647.584 54.8808 642.134 58.7492 638.375 57.9252C637.677 57.0993 637.823 57.4927 637.91 56.2621C638.839 54.9404 638.911 55.2132 640.594 54.4447ZM643.885 73.0426C647.734 72.2965 650.636 68.7396 648.113 65.3655C647.202 64.8469 646.134 65.1493 645.062 65.3048C639.162 67.5978 639.06 73.2761 643.885 73.0426Z" fill="#1F1D1E"/>
<path d="M486.612 54.4014C498.153 53.4432 497.992 56.5314 498.839 67.6276C499 69.7452 499.259 73.3426 498.674 75.2785C497.767 76.1194 498.164 75.9766 497.077 76.037C495.919 75.6349 495.518 75.0634 494.701 74.1641C490.694 74.4537 491.784 78.0388 485.041 75.6765C482.912 74.5077 482.32 73.0901 482.02 70.7484C480.869 61.7297 491.998 63.5291 494.356 60.6999C494.701 55.155 485.817 58.8911 483.691 57.7249C483.444 56.585 483.455 57.0309 483.834 55.8183C484.58 54.9249 485.498 54.7552 486.612 54.4014ZM489.61 72.972C493.55 72.4111 496.425 69.3682 494.345 65.5906C493.093 64.8115 492.868 65.136 491.106 65.2683C486.158 66.9272 482.964 72.1532 489.61 72.972Z" fill="#1F1D1E"/>
<path d="M675.326 54.466C678.76 54.1373 684.483 53.5565 686.511 57.1655C687.823 59.5069 688.573 74.1788 687.523 75.5979C686.313 75.6942 685.514 75.8396 684.363 75.4191L684.225 74.1634L683.809 73.8467C681.447 75.3341 680.386 76.1367 677.654 76.631C676.578 76.3676 675.011 75.7984 673.92 75.439C670.933 73.5432 670.611 70.7515 671.476 67.4148C672.983 61.6076 680.33 63.5454 683.333 61.8737C683.636 61.0568 683.801 60.8945 683.363 60.0289C680.574 54.5233 676.031 59.1494 673.463 58.0593C672.863 57.366 672.74 57.2367 672.657 56.3411C673.523 55.3226 674.145 55.0768 675.326 54.466ZM678.632 73.0692C682.429 72.4482 685.66 69.0959 683.344 65.5134C681.998 64.8423 682.114 65.1016 680.371 65.2837C676.027 67.0292 671.877 71.2113 678.632 73.0692Z" fill="#1F1D1E"/>
<path d="M743.874 102.359L743.967 102.355C752.709 101.975 754.868 106.057 755.216 114.206C750.133 113.992 745.043 113.953 739.96 114.089C740.523 116.209 740.837 117.058 741.715 119.05L744.496 121.006C746.156 121.156 748.323 121.098 750.029 121.1C750.834 120.907 751.655 120.836 752.48 120.745C753.634 121.27 753.331 120.948 753.841 121.971L753.432 122.852C750.31 125.263 744.095 125.242 740.789 123.217C733.243 118.597 734.941 104.46 743.874 102.359ZM740.155 111.281L745.467 111.34C746.685 111.367 749.954 111.614 750.827 111.09C751.846 108.032 748.267 105.409 745.234 105.266C742.689 106.365 741.681 107.332 740.631 109.986C740.463 110.414 740.301 110.846 740.155 111.281Z" fill="#1F1D1E"/>
<path d="M577.214 102.359C577.743 102.331 578.271 102.309 578.8 102.294C586.945 102.075 588.936 107.052 589.093 114.208C586.814 114.14 575.299 113.409 574.317 114.509C574.467 120.687 577.829 121.139 582.886 121.171C584.914 120.918 586.184 120.12 587.489 121.874L587.35 122.645C585.004 125.364 578.733 125.087 575.719 123.73C569.86 121.091 568.72 113.3 571.206 107.938C572.379 105.349 574.542 103.338 577.214 102.359ZM574.017 111.305L580.442 111.344C582.342 111.347 582.83 111.651 584.325 110.74C585.817 107.444 581.705 105.365 578.83 105.261C575.58 106.581 575.074 108.028 574.017 111.305Z" fill="#1F1D1E"/>
<path d="M511.939 102.402C512.674 102.36 513.405 102.329 514.14 102.307C522.544 102.082 523.503 107.302 523.608 114.234C518.769 113.949 513.806 114.004 508.952 113.992C510.054 120.85 511.902 121.156 518.473 121.157C520.576 120.686 521.1 120.291 522.84 121.608L522.795 122.353C520.977 124.853 515.605 124.865 512.775 124.416C505.342 123.236 503.52 114.17 506.141 108.176C507.351 105.407 509.132 103.529 511.939 102.402ZM508.787 111.315L516.051 111.344C517.716 111.333 518.267 111.616 519.47 110.765C520.22 108.393 518.158 106.169 516.033 105.557C515.388 105.372 514.717 105.275 514.046 105.267C511.748 106.095 510.856 106.731 509.78 109.008C509.432 109.769 509.098 110.538 508.787 111.315Z" fill="#1F1D1E"/>
<path d="M463.514 94.191C465.003 94.1052 469.512 94.498 470.456 95.627C470.385 96.7538 470.434 97.3204 469.677 98.182C468.166 98.9191 465.175 97.9028 463.383 97.8091C461.681 97.7206 457.873 99.9177 458.252 101.571C459.219 105.77 466.06 107.246 469.006 109.937C472.758 113.37 472.732 118.264 469.587 122.057C467.525 124.448 463.717 124.479 460.711 124.545C458.094 124.464 456.37 123.942 453.93 123.167C454.087 122.321 454.376 119.157 455.751 119.61C459.162 120.73 466.112 122.887 467.45 117.96C469.051 112.043 462.083 111.222 458.405 108.831C452.408 104.931 453.948 100.921 457.176 95.8324C459.564 94.7265 460.992 94.4953 463.514 94.191Z" fill="#1F1D1E"/>
<path d="M536.399 102.341C541.047 102.102 544.462 102.585 545.695 107.317C546.486 110.347 547.344 121.862 546.051 124.163C545.028 124.526 544.69 124.408 543.667 124.162C539.593 120.45 546.445 104.729 536.227 105.79C532.111 109.013 532.463 111.677 532.519 116.607C532.546 119.149 532.583 121.759 532.598 124.306L528.145 124.252C528.152 120.829 527.635 105.246 528.171 102.855C531.489 101.545 531.23 103.977 532.437 105.105C533.974 103.827 534.592 103.307 536.399 102.341Z" fill="#1F1D1E"/>
<path d="M621.401 102.376C634.614 101.601 630.536 113.043 631.282 121.891C631.376 123.033 630.709 123.735 629.97 124.421C628.726 124.637 629.149 124.715 628.1 124.297C625.341 121.177 632.032 104.444 620.865 105.882C620.528 106.148 620.198 106.42 619.876 106.698C615.786 110.229 617.645 118.081 617.244 123.754C616.337 124.566 616.753 124.345 615.479 124.564C614.785 124.303 613.829 123.993 613.616 123.222C612.806 120.289 613.054 104.995 613.59 102.838C614.358 102.367 614.5 102.584 615.543 102.749C616.656 103.673 616.371 103.525 616.896 105.018C618.789 104.634 618.594 103.58 621.401 102.376Z" fill="#1F1D1E"/>
<path d="M730.631 102.655C731.804 102.631 733.296 102.462 734.259 103.047C734.585 104.362 734.098 105.101 733.655 106.533C732.493 109.897 731.054 113.397 729.731 116.713C728.666 119.379 726.961 125.463 723.321 124.607C720.933 122.375 720.832 118.36 719.625 115.414C717.893 111.177 716.068 107.18 714.782 102.763L719.329 102.754C720.394 106.818 723.145 115.756 725.132 119.233C726.215 114.43 728.97 107.618 730.631 102.655Z" fill="#1F1D1E"/>
<path d="M527.267 71.6458C528.291 68.075 531.229 58.5268 533.156 55.0696C533.46 54.5273 535.821 54.4565 536.646 54.4715C536.957 55.1704 536.357 57.0526 536.151 57.9044C535.787 59.047 534.97 61.6896 534.438 62.6845C532.86 65.6217 530.082 79.1 524.928 75.3377C524.096 73.9505 517.529 55.8115 517.518 54.4985L521.776 54.7121C523.605 60.3784 525.299 66.0211 527.267 71.6458Z" fill="#1F1D1E"/>
<path d="M559.473 102.358C561.722 102.173 565.531 101.897 567.12 103.595C567.176 104.674 567.135 104.87 566.67 105.847C565.429 106.532 562.172 105.84 560.309 106.115C555.74 106.79 554.889 111.394 555.279 115.352C555.53 117.916 557.648 119.581 559.717 121.022C562.607 121.229 564.133 121.047 566.891 120.421C567.296 122.057 567.761 122.761 566.46 123.92C563.034 124.788 559.323 125.056 556.073 123.431C548.592 119.687 548.888 107.397 556.201 103.617C557.258 103.072 558.334 102.694 559.473 102.358Z" fill="#1F1D1E"/>
<path d="M483.546 102.407C486.406 102.201 491.928 101.385 492.261 105.024C490.264 107.796 483.49 103.771 481.147 108.401C478.299 114.032 479.401 117.687 484.446 121.048C487.216 121.117 488.258 121.127 490.972 120.632L491.695 120.798C492.093 121.74 492.093 121.94 491.969 122.959C490.256 125.626 483.745 124.728 481.267 123.616C478.861 122.555 476.979 120.583 476.031 118.133C473.486 111.416 476.889 104.85 483.546 102.407Z" fill="#1F1D1E"/>
<path d="M652.21 97.895C652.888 98.6924 652.701 101.365 652.742 102.692C654.084 102.636 655.7 102.449 656.911 102.966C657.855 103.908 657.743 103.521 657.878 104.667L657.184 105.546C656.071 106.325 654.039 105.997 652.607 105.915C652.679 108.41 651.94 118.08 653.203 119.677C654.673 121.538 656.824 120.412 657.934 123.285C657.544 124.023 657.488 124.113 656.761 124.515C644.203 124.946 649.429 115.665 648.124 106.599C647.277 105.664 646.85 106.23 645.216 105.474C644.717 104.303 644.871 104.542 645.009 103.182C645.643 102.392 646.467 102.592 647.791 102.434C648.743 101.103 648.492 100.919 648.683 99.141C649.489 98.2315 650.981 98.1187 652.21 97.895Z" fill="#1F1D1E"/>
<path d="M662.705 49.4663L663.155 49.5712C663.702 50.486 663.496 53.3665 663.485 54.5975C665.378 54.5027 668.444 53.9758 668.875 56.3914C667.346 58.2853 665.737 57.7891 663.477 57.7127C663.488 61.7718 663.039 67.7566 663.908 71.5444C665.453 73.2588 667.492 71.8168 668.766 74.0289C668.534 75.0174 668.478 75.3438 667.882 76.2102C654.185 78.423 661.007 61.5147 658.818 57.921C657.866 57.7854 657.15 57.6598 656.205 57.4496C655.538 56.3947 655.733 56.6466 655.845 55.2188C657.487 53 658.589 56.7238 659.575 51.0953C660.212 50.0138 661.479 49.8249 662.705 49.4663Z" fill="#1F1D1E"/>
<path d="M695.282 98.1116C696.129 98.0756 696.321 98.0591 697.127 98.2997C697.876 99.2388 697.61 101.352 697.576 102.66C699.578 102.601 702.963 102.015 703.075 104.74C701.655 106.575 699.664 106.063 697.516 105.988C697.528 109.709 696.842 116.848 698.408 119.951C699.222 121.557 700.594 120.744 702.292 121.202C703.12 122.487 702.843 122.484 702.873 124.261C689.161 127.636 695.706 112.457 693.625 106.069C692.696 105.997 692.156 105.924 691.238 105.747C690.334 104.969 690.331 104.38 690.136 103.222C690.563 102.913 690.769 102.618 691.268 102.66C695.736 103.037 692.302 101.002 695.282 98.1116Z" fill="#1F1D1E"/>
<path d="M602.401 94.7148L606.779 94.6294L606.798 124.335L602.39 124.344L602.401 94.7148Z" fill="#1F1D1E"/>
<path d="M514.114 54.0508L514.811 54.3063C516.779 58.4692 511.332 58.1215 510.073 59.9491C507.752 63.3134 508.596 71.453 508.622 75.747C507.344 75.789 505.818 75.9741 504.716 75.4128L504.548 74.2908L504.495 54.5211C505.638 54.3967 505.886 54.4251 507.003 54.6162C507.955 55.3717 508.135 56.4315 508.476 57.601C508.813 57.13 509.158 56.6634 509.507 56.2014C511.066 54.1437 511.332 54.4304 514.114 54.0508Z" fill="#1F1D1E"/>
<path d="M570.873 54.0532L571.87 54.2069C572.14 55.2464 572.106 55.6541 572.068 56.691C571.589 57.8538 569.01 58.7902 567.818 59.3995C562.476 62.1276 568.286 73.4606 564.073 75.7708C563.248 75.7671 562.401 75.845 561.685 75.4549L561.52 74.2906C561.55 68.2264 561.217 62.0152 561.442 55.9561C561.479 54.9121 561.925 54.5902 562.712 54.0768C564.549 54.6397 564.707 56.525 564.973 58.1449C565.314 57.6409 565.67 57.147 566.041 56.6644C567.653 54.5512 568.241 54.4077 570.873 54.0532Z" fill="#1F1D1E"/>
<path d="M50.7294 77.6539C70.2658 76.8977 90.4165 78.0062 110.023 77.507C111.564 77.4677 114.029 77.3392 115.222 78.2835L114.943 78.8905C112.488 79.0191 101.741 79.145 99.4851 78.9973C93.786 78.6234 52.0736 79.7918 50.2451 78.33L50.7294 77.6539Z" fill="#1F1D1E" fill-opacity="0.917647"/>
<path d="M661.858 102.681L666.09 102.663V124.386C664.965 124.301 663.038 124.373 661.85 124.381C661.801 117.147 661.801 109.914 661.858 102.681Z" fill="#1F1D1E"/>
<path d="M637.569 102.646L641.542 102.667C641.591 109.707 641.583 116.748 641.519 123.788L641.216 124.249C639.893 124.36 639.308 124.459 638.015 124.135C637.017 122.933 637.542 105.443 637.569 102.646Z" fill="#1F1D1E"/>
<path d="M496.354 102.691C497.737 102.668 499.083 102.505 500.17 103.227C500.627 106.683 500.361 120.455 500.185 124.353C498.858 124.359 498.161 124.306 496.845 124.129C495.885 122.887 496.335 105.486 496.354 102.691Z" fill="#1F1D1E"/>
<path d="M707.307 102.704C708.675 102.652 709.597 102.535 710.883 103.008C711.385 106.733 711.033 119.903 711.01 124.312C709.747 124.329 709.185 124.308 707.937 124.117C706.835 122.824 707.333 105.539 707.307 102.704Z" fill="#1F1D1E"/>
<path d="M662.315 95.0911C663.08 94.4807 664.126 94.3544 665.014 94.7647C665.902 95.175 666.487 96.0519 666.517 97.0303C666.551 98.0091 666.026 98.922 665.168 99.39C663.987 100.032 662.514 99.6655 661.772 98.5469C661.029 97.4279 661.266 95.9279 662.315 95.0911Z" fill="#1F1D1E"/>
<path d="M638.033 94.9994C638.843 94.4617 639.889 94.4298 640.732 94.9177C641.572 95.4056 642.066 96.3282 642.003 97.2988C641.939 98.2693 641.328 99.1196 640.428 99.4932C639.214 99.9991 637.808 99.4977 637.19 98.3349C636.567 97.1717 636.935 95.7279 638.033 94.9994Z" fill="#1F1D1E"/>
<path d="M496.871 95.109C497.984 94.3067 499.536 94.551 500.346 95.6565C501.159 96.7619 500.927 98.3152 499.829 99.1359C498.715 99.9666 497.141 99.7321 496.316 98.6131C495.495 97.4945 495.743 95.9207 496.871 95.109Z" fill="#1F1D1E"/>
<path d="M708.934 94.6794C710.228 94.5423 711.401 95.4364 711.614 96.7183C711.828 98.0007 711.004 99.2272 709.737 99.5157C708.848 99.7181 707.919 99.4108 707.326 98.7183C706.734 98.0254 706.573 97.0612 706.91 96.2139C707.248 95.3667 708.027 94.7757 708.934 94.6794Z" fill="#1F1D1E"/>
<path d="M104.865 30.216C102.108 27.4247 97.5957 24.6747 95.4343 22.0451L95.5824 21.4037C99.1438 20.7442 112.214 20.9471 115.916 21.331C115.922 26.3598 116.132 33.5353 115.752 38.3896L112.578 42.5473C113.583 43.6606 115.077 45.2042 115.819 46.446C116.079 52.7074 116.066 52.704 111.916 57.4841C107.608 54.4683 103.686 51.1826 99.4721 48.0858C98.327 48.0724 94.1625 47.9423 93.3161 48.1911L93.3956 48.6408L94.4882 48.805L94.5448 49.7141C96.2436 50.3181 97.3798 51.5375 98.7554 52.6639C102.88 56.041 107.427 59.007 111.991 61.7572C113.529 61.7891 116.124 61.6991 117.459 62.2511L117.602 62.7592C111.36 66.5598 91.7256 48.7195 85.3507 45.2439C80.5077 45.1322 67.9018 44.8553 63.3078 45.299C67.6004 48.6502 72.3463 52.7183 76.567 55.8908C81.284 55.902 86.4186 55.8278 91.0899 56.0901C93.0128 57.6078 95.0066 58.8673 97.0503 60.2103C101.34 63.0302 105.449 66.4717 109.735 69.2549C111.49 69.2586 115.567 68.9873 116.85 69.8102L116.778 70.6545C115.41 71.4759 100.306 71.1162 97.6047 71.1113L69.7734 71.0967C64.1673 71.0993 58.3164 70.9449 52.7436 71.3942C50.2899 71.5921 47.615 73.6295 45.2865 74.1852C43.2365 74.6746 41.1681 74.1728 38.8778 74.4415C40.4462 74.5746 41.8597 74.6739 43.4337 74.7259C40.9803 74.9088 39.6909 74.9272 37.2362 74.7784C28.7998 80.3762 18.6284 90.2743 7.48281 86.4903L7.59973 86.0938C10.5829 84.9723 16.0285 85.8641 18.5267 85.4729C23.5927 82.282 28.6032 79.0039 33.5559 75.6399L33.5425 75.1857C32.3215 74.6251 22.4941 74.9358 19.9411 74.7477C22.2206 74.4771 28.7279 74.6903 30.0313 74.3669C28.118 74.2646 20.1679 73.8798 18.6844 74.5412L18.2611 73.9746L18.383 73.3252C21.2675 72.4056 35.2392 73.0333 39.3767 72.904C35.0263 70.4915 30.817 66.4815 26.9228 63.3326C21.4531 58.9096 14.1 67.7158 9.52578 71.0798C7.65059 71.106 4.37485 71.2552 2.66635 70.8711L2.44155 70.5938L3.40191 70.2355C3.06281 69.9238 2.86363 69.6895 2.43103 69.5254C4.37766 69.1496 7.44552 69.2552 9.52015 69.2635C10.7114 68.3034 17.3157 63.1433 17.8202 62.3152C15.6808 61.7999 3.78897 62.4804 0 61.9408V60.8331C7.1443 60.4932 18.7462 60.5835 25.923 60.8747C30.5335 64.2383 37.017 70.5522 41.8526 72.6795C44.9743 74.0533 49.0653 70.9651 51.772 69.9342C52.774 69.5528 55.5002 69.2961 56.7552 69.2792C73.445 69.0551 90.4928 69.6232 107.153 69.1484C104.459 67.2988 101.781 65.4251 99.1201 63.5274C90.4283 63.0141 82.4378 64.5044 73.7782 63.7017C73.5795 63.6833 70.6145 61.0658 70.2614 60.7563C60.6771 60.8009 51.0932 60.7848 41.5092 60.708C38.6484 58.7301 35.8648 56.6432 33.1645 54.4514C25.315 54.0962 14.8024 55.0259 7.37366 53.7612C12.2924 52.4129 20.6044 53.2553 25.8273 52.9847C27.534 52.8963 29.5676 53.1635 31.2278 52.704C30.0068 51.2426 21.925 45.553 19.9741 44.3599C17.9902 44.2583 15.5154 44.304 13.4918 44.2868C9.0239 46.8133 4.28155 51.2246 0 51.0522V49.961C0.219495 49.9546 0.438775 49.9423 0.657611 49.9239C2.8125 49.7358 7.995 46.313 9.22358 44.8564L9.05756 44.3558C8.15221 44.0267 1.45138 44.2186 0 44.198V43.009C6.08207 42.7448 15.0087 42.7819 21.0224 43.0723C21.9099 43.8431 22.8074 44.5574 23.7662 45.2364C30.0853 49.7111 35.8369 54.8029 41.9939 59.4983C45.5474 59.5654 49.1016 59.5759 52.6555 59.5302C49.3228 57.4403 38.4588 48.9069 36.3409 45.9383C41.4556 48.4171 49.6013 55.6097 54.6257 59.4593C58.6009 59.7393 64.2374 59.489 68.5023 59.604C64.0117 56.6226 60.312 53.3598 56.0681 50.1072C52.5434 47.4057 49.0761 45.1539 45.6445 42.2745C41.8151 42.2797 38.0588 42.3221 34.2335 42.0699C31.2741 39.9231 29.4669 38.1686 26.1071 35.9338C17.9992 35.8583 7.85323 36.2316 0 35.751V34.4831C5.7371 34.1673 21.547 34.0082 27.1244 34.5322C29.2337 36.3881 33.0149 39.0454 34.5432 40.8153C38.1102 40.8396 42.8204 40.7456 46.2978 40.9412C53.4543 47.2693 65.8687 55.4452 73.692 61.9C81.579 61.9802 89.4668 61.9551 97.3531 61.8243C86.1821 54.6444 87.3771 58.3314 76.0059 57.1858C73.2669 55.3515 70.8766 53.0372 68.2324 50.984L49.6418 36.5723C45.932 33.6581 34.6542 25.3578 31.8735 22.5292C24.8592 22.7462 10.1203 22.9708 3.42015 22.3901L3.33262 27.8566C12.0351 28.0665 21.3818 27.6649 29.8861 28.0456C33.0671 30.1121 34.4086 31.5588 36.7422 34.549C33.9371 33.3362 31.3519 30.5217 30.2324 30.0631C26.6415 28.5922 17.595 29.6027 13.3455 29.3556C11.7262 29.2614 2.75261 29.7967 2.28673 28.8738C1.61635 27.5456 1.85674 22.81 1.90179 21.1006C9.774 21.0377 24.8393 20.6511 32.2709 21.223C41.5152 28.4922 52.0723 36.2599 60.9995 43.7375C65.7532 43.9855 70.8024 43.6441 75.7233 43.7281C75.1573 41.854 59.8682 30.5961 57.199 28.7064C55.8971 27.7845 49.1905 28.1583 46.8398 28.1213C45.3221 26.8931 40.0769 23.1534 39.8213 21.6086C41.787 21.8881 45.7048 25.2763 47.2375 26.6437C49.999 26.6762 53.7819 26.5871 56.4459 26.8007C63.6238 27.3763 64.3333 25.1545 69.1962 21.2163C72.8673 20.9585 84.6452 20.8078 88.1133 21.371L100.691 31.3195C102.628 32.8347 105.895 34.3922 106.6 36.8148L106.43 37.1703C105.373 36.8503 89.3863 24.167 87.1379 22.4706C81.8152 22.8499 75.1509 22.7029 69.7603 22.4983C68.3621 23.9252 66.8961 25.4258 65.646 26.9802C87.3726 22.9058 87.855 32.1908 102.718 41.5651C107.829 41.778 114.374 42.644 114.476 35.2279C114.533 30.9858 114.254 26.7751 114.45 22.5236C111.74 22.631 101.682 22.2452 100.104 22.6474L99.6322 23.1857C100.22 24.935 104.089 27.5948 105.639 28.7879C108.108 28.9556 110.846 29.0625 113.231 29.632C110.036 30.2876 108.168 30.4631 104.865 30.216ZM79.2194 43.7375C85.0347 43.7704 85.621 43.4871 90.2986 46.7803C93.1647 46.802 97.5533 46.7023 100.298 46.9377C104.169 49.7328 108.086 52.8206 111.888 55.7375C119.976 42.3075 108.826 42.9678 99.2393 43.1529C95.9617 43.1401 91.5453 43.2466 88.3813 42.8568C90.2596 42.2655 91.5011 41.8735 93.4739 41.5749C94.7903 41.3759 98.6771 41.6007 99.3151 41.0398C98.7479 39.7822 93.2872 35.8692 91.8894 34.8081C89.5039 34.8088 74.1163 35.0666 73.1968 34.2599C77.1934 31.9067 87.2429 34.9132 88.4102 32.9023C87.7096 31.54 84.7041 29.2472 83.3749 28.1545L59.0634 28.1351C64.7951 32.7276 70.6865 37.0104 76.3376 41.7053C77.2433 42.4574 78.2201 43.1161 79.2194 43.7375Z" fill="#1F1D1E" fill-opacity="0.878431"/>
</svg>
