<svg width="392" height="392" viewBox="0 0 392 392" fill="none" xmlns="http://www.w3.org/2000/svg">
<path d="M0 391.66H391.667V0H0V391.66Z" fill="#E8E7E3"/>
<mask id="mask0_24_4871" style="mask-type:luminance" maskUnits="userSpaceOnUse" x="0" y="0" width="392" height="392">
<path d="M391.667 0H0V391.66H391.667V0Z" fill="white"/>
</mask>
<g mask="url(#mask0_24_4871)">
<path d="M17.803 17.8027L33.8257 19.9493L55.1893 22.4089L87.2348 25.681L149.545 31.5848L373.864 52.3073" stroke="#26251E" stroke-opacity="0.1" stroke-width="4" stroke-dasharray="12 4"/>
</g>
<mask id="mask1_24_4871" style="mask-type:luminance" maskUnits="userSpaceOnUse" x="0" y="0" width="392" height="392">
<path d="M391.667 0H0V391.66H391.667V0Z" fill="white"/>
</mask>
<g mask="url(#mask1_24_4871)">
<path d="M17.803 17.8027L48.0681 19.7596L76.553 21.9894L103.258 24.4464L129.962 27.2778L156.667 30.5006L183.371 34.1291L208.295 37.8927L233.22 42.0291L258.144 46.546L283.068 51.4498L307.992 56.7461L332.917 62.4399L357.841 68.5355L373.864 72.668" stroke="#26251E" stroke-opacity="0.1" stroke-width="4" stroke-dasharray="4 12"/>
</g>
<mask id="mask2_24_4871" style="mask-type:luminance" maskUnits="userSpaceOnUse" x="0" y="0" width="392" height="392">
<path d="M391.667 0H0V391.66H391.667V0Z" fill="white"/>
</mask>
<g mask="url(#mask2_24_4871)">
<path d="M17.803 17.8027L81.8939 18.0705L112.159 18.5474L131.742 19.1971L147.765 20.1106L160.227 21.2065L170.909 22.5442L179.811 24.0478L186.932 25.5844L194.053 27.4964L201.174 29.8755L206.515 32.0342L211.856 34.5774L217.197 37.5737L222.538 41.1039L227.879 45.263L231.439 48.4397L235 51.9833L238.561 55.9361L242.121 60.3456L245.682 65.2643L249.242 70.7511L252.803 76.8717L256.364 83.6992L259.924 91.3152L263.485 99.8109L267.045 109.288L270.606 119.859L274.167 131.652L277.727 144.807L281.288 159.481L284.848 175.849L288.409 194.109L291.97 214.477L295.53 237.198L299.091 262.543L302.651 290.817L306.212 322.342L311.553 373.857L311.558 433.409" stroke="#26251E" stroke-opacity="0.1" stroke-width="4" stroke-miterlimit="11.4737" stroke-dasharray="10.24 2.56 1.6 2.56"/>
</g>
<mask id="mask3_24_4871" style="mask-type:luminance" maskUnits="userSpaceOnUse" x="0" y="0" width="392" height="392">
<path d="M391.667 0H0V391.66H391.667V0Z" fill="white"/>
</mask>
<g mask="url(#mask3_24_4871)">
<path d="M17.803 17.8027L40.3827 20.3249L89.379 24.6204L111.959 25.8178L145.885 27.4017L158.448 28.2985L165.103 29.1453L169.718 30.1689L172.934 31.3489L174.563 32.3446L175.606 33.3565L175.861 33.8318L177.596 34.1411L182.72 34.6828L195.514 36.4483L197.143 36.7523L206.014 37.8136L213.384 39.0049L221.837 40.867L225.86 41.9924L229.292 43.1355L232.842 44.3912L233.673 44.7591L234.734 45.2053L239.898 47.4455L247.182 50.8232L248.929 51.6782L250.46 52.4192L252.988 53.7146L253.928 54.2968L254.887 54.8409L256.123 55.3982L257.501 56.1997L263.357 59.5245L263.856 59.8203L264.915 60.3478L265.521 60.6618L266.212 61.0228L267.043 61.4357L267.687 61.7166L268.334 62.1009L269.026 62.4912L269.733 62.7993L270.116 63.0219L270.578 63.2496L271.59 63.7697L272.69 64.2563L273.232 64.4856L276.565 65.7989L277.263 66.0812L277.5 66.1702L286.153 69.0212L286.453 69.132L287.709 69.4433L289.785 70.0865L291.003 70.3246L291.328 70.3771L292.604 70.644L293.434 70.8628L294.485 71.1775L294.751 71.2808L297.283 72.1866L297.86 72.4299L299.427 73.045L299.684 73.142L301.423 73.4822L301.573 73.5401L304.167 74.046L304.33 74.138L305.124 74.4353L305.378 74.531L307.718 75.2286L307.868 75.3324L309.003 75.6865L309.279 75.8318L310.903 76.3L312.125 76.5723L315.734 77.1196L315.934 77.1823L316.736 77.2454L319.173 77.6768L319.719 77.8773L320.067 78.128L320.246 78.2441L322.741 79.4867L324.799 79.9198L332.926 82.2494L333.055 82.3197L336.68 83.3605L337.456 83.9252L338.728 84.9752L338.952 85.6435L339.213 85.9444L339.435 86.5752L339.669 87.0192L339.879 87.3659L340.164 87.6039L340.203 87.7863L340.769 87.8479L340.862 89.2377L342.687 89.7482L346.996 90.0522L362.975 90.2864L365.404 91.0246L367.426 92.3925L368.15 93.2076L368.272 93.5315L368.45 93.8664L368.959 95.4652L369.274 96.3005L369.766 96.5954L369.979 97.213L370.659 98.9505L371.127 99.338L371.241 99.7412L371.662 102.583L371.869 103.148L372.622 112.645L373.136 124.288L373.494 127.13L373.82 131.135L373.864 137.983" stroke="#2563EB" stroke-width="4" stroke-linecap="square"/>
</g>
<rect x="22.3772" y="286.415" width="50" height="8" fill="#2563EB"/>
<path d="M83.7756 296.415V284.961H92.0569V286.313H85.2913V289.821H91.6272V291.165H85.2913V295.063H92.3225V296.415H83.7756ZM94.2366 296.415V288.118H95.4944V289.282C95.7548 288.875 96.1012 288.55 96.5334 288.305C96.9657 288.055 97.4579 287.93 98.01 287.93C98.6246 287.93 99.1272 288.058 99.5178 288.313C99.9137 288.568 100.192 288.925 100.354 289.383C101.01 288.415 101.864 287.93 102.916 287.93C103.739 287.93 104.372 288.159 104.815 288.618C105.257 289.071 105.479 289.771 105.479 290.719V296.415H104.08V291.188C104.08 290.625 104.033 290.222 103.94 289.977C103.851 289.727 103.687 289.527 103.448 289.375C103.208 289.224 102.927 289.149 102.604 289.149C102.02 289.149 101.536 289.344 101.151 289.735C100.765 290.12 100.573 290.74 100.573 291.594V296.415H99.1663V291.024C99.1663 290.399 99.0517 289.93 98.8225 289.618C98.5933 289.305 98.2183 289.149 97.6975 289.149C97.3017 289.149 96.9345 289.253 96.5959 289.461C96.2626 289.67 96.0204 289.974 95.8694 290.375C95.7183 290.777 95.6428 291.355 95.6428 292.11V296.415H94.2366ZM107.565 299.594V288.118H108.846V289.196C109.148 288.774 109.489 288.459 109.869 288.25C110.25 288.037 110.711 287.93 111.252 287.93C111.961 287.93 112.586 288.112 113.127 288.477C113.669 288.842 114.078 289.357 114.354 290.024C114.63 290.685 114.768 291.412 114.768 292.204C114.768 293.053 114.614 293.818 114.307 294.5C114.005 295.178 113.562 295.698 112.979 296.063C112.401 296.422 111.791 296.602 111.151 296.602C110.682 296.602 110.26 296.503 109.885 296.305C109.515 296.107 109.211 295.857 108.971 295.555V299.594H107.565ZM108.838 292.313C108.838 293.381 109.054 294.17 109.487 294.68C109.919 295.191 110.442 295.446 111.057 295.446C111.682 295.446 112.216 295.183 112.658 294.657C113.106 294.125 113.33 293.305 113.33 292.196C113.33 291.139 113.112 290.347 112.674 289.821C112.242 289.295 111.724 289.032 111.119 289.032C110.52 289.032 109.989 289.313 109.526 289.875C109.067 290.433 108.838 291.245 108.838 292.313ZM116.479 286.579V284.961H117.885V286.579H116.479ZM116.479 296.415V288.118H117.885V296.415H116.479ZM120.018 296.415V288.118H121.283V289.375C121.606 288.787 121.903 288.399 122.174 288.211C122.45 288.024 122.752 287.93 123.08 287.93C123.554 287.93 124.036 288.081 124.526 288.383L124.041 289.688C123.698 289.485 123.354 289.383 123.01 289.383C122.703 289.383 122.427 289.477 122.182 289.665C121.937 289.847 121.763 290.102 121.658 290.43C121.502 290.93 121.424 291.477 121.424 292.071V296.415H120.018ZM125.369 286.579V284.961H126.776V286.579H125.369ZM125.369 296.415V288.118H126.776V296.415H125.369ZM134.338 293.375L135.721 293.555C135.57 294.508 135.182 295.256 134.557 295.797C133.937 296.334 133.174 296.602 132.268 296.602C131.132 296.602 130.218 296.232 129.526 295.493C128.838 294.748 128.494 293.683 128.494 292.297C128.494 291.402 128.643 290.618 128.94 289.946C129.237 289.274 129.687 288.771 130.291 288.438C130.901 288.099 131.562 287.93 132.276 287.93C133.177 287.93 133.914 288.159 134.487 288.618C135.059 289.071 135.427 289.717 135.588 290.555L134.221 290.766C134.091 290.209 133.859 289.79 133.526 289.508C133.198 289.227 132.799 289.086 132.33 289.086C131.622 289.086 131.046 289.342 130.604 289.852C130.161 290.357 129.94 291.159 129.94 292.258C129.94 293.373 130.153 294.183 130.58 294.688C131.007 295.193 131.565 295.446 132.252 295.446C132.804 295.446 133.265 295.277 133.635 294.938C134.005 294.599 134.239 294.079 134.338 293.375ZM142.338 295.391C141.817 295.834 141.315 296.146 140.83 296.329C140.351 296.511 139.836 296.602 139.283 296.602C138.372 296.602 137.671 296.381 137.182 295.938C136.692 295.49 136.448 294.92 136.448 294.227C136.448 293.821 136.539 293.451 136.721 293.118C136.908 292.779 137.151 292.508 137.448 292.305C137.75 292.102 138.088 291.948 138.463 291.844C138.739 291.771 139.156 291.701 139.713 291.633C140.849 291.498 141.684 291.336 142.221 291.149C142.226 290.956 142.229 290.834 142.229 290.782C142.229 290.209 142.096 289.805 141.83 289.571C141.471 289.253 140.937 289.094 140.229 289.094C139.567 289.094 139.078 289.211 138.76 289.446C138.448 289.675 138.216 290.084 138.065 290.672L136.69 290.485C136.815 289.896 137.02 289.422 137.307 289.063C137.593 288.698 138.007 288.42 138.549 288.227C139.091 288.029 139.718 287.93 140.432 287.93C141.14 287.93 141.716 288.014 142.158 288.18C142.601 288.347 142.927 288.558 143.135 288.813C143.343 289.063 143.489 289.381 143.573 289.766C143.619 290.006 143.643 290.438 143.643 291.063V292.938C143.643 294.245 143.671 295.073 143.729 295.422C143.791 295.766 143.911 296.097 144.088 296.415H142.619C142.474 296.123 142.38 295.782 142.338 295.391ZM142.221 292.25C141.711 292.459 140.945 292.636 139.924 292.782C139.346 292.865 138.937 292.959 138.698 293.063C138.458 293.167 138.273 293.321 138.143 293.524C138.013 293.722 137.948 293.943 137.948 294.188C137.948 294.563 138.088 294.875 138.369 295.125C138.656 295.375 139.073 295.5 139.619 295.5C140.161 295.5 140.643 295.383 141.065 295.149C141.487 294.909 141.796 294.584 141.994 294.172C142.145 293.855 142.221 293.386 142.221 292.766V292.25ZM145.799 296.415V284.961H147.205V296.415H145.799ZM159.229 296.415V295.368C158.703 296.191 157.929 296.602 156.908 296.602C156.247 296.602 155.638 296.42 155.08 296.055C154.528 295.691 154.099 295.183 153.791 294.532C153.489 293.875 153.338 293.123 153.338 292.274C153.338 291.446 153.476 290.696 153.752 290.024C154.028 289.347 154.442 288.829 154.994 288.469C155.546 288.11 156.164 287.93 156.846 287.93C157.346 287.93 157.791 288.037 158.182 288.25C158.573 288.459 158.89 288.732 159.135 289.071V284.961H160.533V296.415H159.229ZM154.783 292.274C154.783 293.336 155.007 294.131 155.455 294.657C155.903 295.183 156.432 295.446 157.041 295.446C157.656 295.446 158.177 295.196 158.604 294.696C159.036 294.191 159.252 293.422 159.252 292.391C159.252 291.256 159.033 290.422 158.596 289.891C158.158 289.36 157.619 289.094 156.979 289.094C156.354 289.094 155.83 289.349 155.408 289.86C154.992 290.37 154.783 291.175 154.783 292.274ZM162.76 286.579V284.961H164.166V286.579H162.76ZM162.76 296.415V288.118H164.166V296.415H162.76ZM165.752 293.938L167.143 293.719C167.221 294.277 167.437 294.704 167.791 295C168.151 295.297 168.651 295.446 169.291 295.446C169.937 295.446 170.416 295.316 170.729 295.055C171.041 294.79 171.198 294.48 171.198 294.125C171.198 293.808 171.059 293.558 170.783 293.375C170.591 293.25 170.112 293.092 169.346 292.899C168.315 292.639 167.599 292.415 167.198 292.227C166.802 292.034 166.5 291.771 166.291 291.438C166.088 291.099 165.987 290.727 165.987 290.321C165.987 289.951 166.07 289.61 166.237 289.297C166.408 288.98 166.64 288.717 166.932 288.508C167.151 288.347 167.448 288.211 167.823 288.102C168.203 287.987 168.609 287.93 169.041 287.93C169.692 287.93 170.263 288.024 170.752 288.211C171.247 288.399 171.612 288.654 171.846 288.977C172.08 289.295 172.242 289.722 172.33 290.258L170.955 290.446C170.893 290.019 170.711 289.685 170.408 289.446C170.112 289.206 169.69 289.086 169.143 289.086C168.497 289.086 168.036 289.193 167.76 289.407C167.484 289.62 167.346 289.87 167.346 290.157C167.346 290.339 167.403 290.503 167.518 290.649C167.632 290.8 167.812 290.925 168.057 291.024C168.198 291.076 168.612 291.196 169.299 291.383C170.294 291.649 170.987 291.868 171.377 292.04C171.773 292.206 172.083 292.451 172.307 292.774C172.531 293.097 172.643 293.498 172.643 293.977C172.643 294.446 172.505 294.889 172.229 295.305C171.958 295.717 171.565 296.037 171.049 296.266C170.533 296.49 169.95 296.602 169.299 296.602C168.221 296.602 167.398 296.378 166.83 295.93C166.268 295.482 165.908 294.818 165.752 293.938ZM177.385 295.157L177.588 296.399C177.192 296.482 176.838 296.524 176.526 296.524C176.015 296.524 175.619 296.443 175.338 296.282C175.057 296.12 174.859 295.909 174.744 295.649C174.63 295.383 174.573 294.829 174.573 293.985V289.211H173.541V288.118H174.573V286.063L175.971 285.219V288.118H177.385V289.211H175.971V294.063C175.971 294.464 175.994 294.722 176.041 294.836C176.093 294.951 176.174 295.042 176.283 295.11C176.398 295.178 176.559 295.211 176.768 295.211C176.924 295.211 177.13 295.193 177.385 295.157ZM178.752 296.415V288.118H180.018V289.375C180.341 288.787 180.638 288.399 180.908 288.211C181.184 288.024 181.487 287.93 181.815 287.93C182.289 287.93 182.77 288.081 183.26 288.383L182.776 289.688C182.432 289.485 182.088 289.383 181.744 289.383C181.437 289.383 181.161 289.477 180.916 289.665C180.671 289.847 180.497 290.102 180.393 290.43C180.237 290.93 180.158 291.477 180.158 292.071V296.415H178.752ZM184.104 286.579V284.961H185.51V286.579H184.104ZM184.104 296.415V288.118H185.51V296.415H184.104ZM188.955 296.415H187.651V284.961H189.057V289.047C189.651 288.303 190.408 287.93 191.33 287.93C191.841 287.93 192.323 288.034 192.776 288.243C193.234 288.446 193.609 288.735 193.901 289.11C194.198 289.48 194.429 289.928 194.596 290.454C194.763 290.98 194.846 291.542 194.846 292.141C194.846 293.563 194.494 294.662 193.791 295.438C193.088 296.214 192.244 296.602 191.26 296.602C190.281 296.602 189.513 296.193 188.955 295.375V296.415ZM188.94 292.204C188.94 293.198 189.075 293.917 189.346 294.36C189.789 295.084 190.388 295.446 191.143 295.446C191.757 295.446 192.289 295.18 192.737 294.649C193.184 294.112 193.408 293.316 193.408 292.258C193.408 291.175 193.192 290.375 192.76 289.86C192.333 289.344 191.815 289.086 191.205 289.086C190.591 289.086 190.059 289.355 189.612 289.891C189.164 290.422 188.94 291.193 188.94 292.204ZM202.002 296.415V295.196C201.356 296.133 200.479 296.602 199.369 296.602C198.88 296.602 198.421 296.508 197.994 296.321C197.573 296.133 197.257 295.899 197.049 295.618C196.846 295.331 196.703 294.982 196.619 294.571C196.562 294.295 196.533 293.857 196.533 293.258V288.118H197.94V292.719C197.94 293.454 197.968 293.948 198.026 294.204C198.114 294.573 198.302 294.865 198.588 295.079C198.875 295.287 199.229 295.391 199.651 295.391C200.073 295.391 200.468 295.284 200.838 295.071C201.208 294.852 201.468 294.558 201.619 294.188C201.776 293.813 201.854 293.271 201.854 292.563V288.118H203.26V296.415H202.002ZM208.541 295.157L208.744 296.399C208.349 296.482 207.994 296.524 207.682 296.524C207.171 296.524 206.776 296.443 206.494 296.282C206.213 296.12 206.015 295.909 205.901 295.649C205.786 295.383 205.729 294.829 205.729 293.985V289.211H204.698V288.118H205.729V286.063L207.127 285.219V288.118H208.541V289.211H207.127V294.063C207.127 294.464 207.151 294.722 207.198 294.836C207.25 294.951 207.33 295.042 207.44 295.11C207.554 295.178 207.716 295.211 207.924 295.211C208.08 295.211 208.286 295.193 208.541 295.157ZM209.932 286.579V284.961H211.338V286.579H209.932ZM209.932 296.415V288.118H211.338V296.415H209.932ZM212.963 292.266C212.963 290.73 213.39 289.592 214.244 288.852C214.958 288.237 215.828 287.93 216.854 287.93C217.994 287.93 218.927 288.305 219.651 289.055C220.375 289.8 220.737 290.831 220.737 292.149C220.737 293.217 220.575 294.058 220.252 294.672C219.934 295.282 219.468 295.756 218.854 296.094C218.244 296.433 217.578 296.602 216.854 296.602C215.692 296.602 214.752 296.23 214.033 295.485C213.32 294.74 212.963 293.667 212.963 292.266ZM214.408 292.266C214.408 293.329 214.64 294.125 215.104 294.657C215.567 295.183 216.151 295.446 216.854 295.446C217.552 295.446 218.132 295.18 218.596 294.649C219.059 294.118 219.291 293.308 219.291 292.219C219.291 291.193 219.057 290.417 218.588 289.891C218.125 289.36 217.546 289.094 216.854 289.094C216.151 289.094 215.567 289.357 215.104 289.883C214.64 290.409 214.408 291.204 214.408 292.266ZM222.393 296.415V288.118H223.658V289.297C224.268 288.386 225.148 287.93 226.299 287.93C226.799 287.93 227.257 288.021 227.674 288.204C228.096 288.381 228.411 288.615 228.619 288.907C228.828 289.198 228.974 289.545 229.057 289.946C229.109 290.206 229.135 290.662 229.135 291.313V296.415H227.729V291.368C227.729 290.795 227.674 290.368 227.565 290.086C227.455 289.8 227.26 289.573 226.979 289.407C226.703 289.235 226.377 289.149 226.002 289.149C225.403 289.149 224.885 289.339 224.448 289.719C224.015 290.099 223.799 290.821 223.799 291.883V296.415H222.393Z" fill="black"/>
<path d="M22.3772 310.415H72.3772" stroke="#26251E" stroke-opacity="0.1" stroke-width="8" stroke-dasharray="12 4"/>
<path d="M83.6819 316.415V304.961H88.0022C88.7626 304.961 89.3433 304.998 89.7444 305.071C90.3069 305.165 90.7782 305.344 91.1584 305.61C91.5387 305.87 91.8433 306.237 92.0725 306.711C92.3069 307.185 92.4241 307.706 92.4241 308.274C92.4241 309.248 92.1142 310.073 91.4944 310.75C90.8746 311.422 89.7548 311.758 88.135 311.758H85.1975V316.415H83.6819ZM85.1975 310.407H88.1584C89.1376 310.407 89.8329 310.224 90.2444 309.86C90.6558 309.495 90.8616 308.982 90.8616 308.321C90.8616 307.842 90.7392 307.433 90.4944 307.094C90.2548 306.75 89.9371 306.524 89.5413 306.415C89.2861 306.347 88.8147 306.313 88.1272 306.313H85.1975V310.407ZM93.6506 312.266C93.6506 310.73 94.0777 309.592 94.9319 308.852C95.6454 308.237 96.5152 307.93 97.5413 307.93C98.6819 307.93 99.6142 308.305 100.338 309.055C101.062 309.8 101.424 310.831 101.424 312.149C101.424 313.217 101.263 314.058 100.94 314.672C100.622 315.282 100.156 315.756 99.5413 316.094C98.9319 316.433 98.2652 316.602 97.5413 316.602C96.3798 316.602 95.4397 316.23 94.7209 315.485C94.0074 314.74 93.6506 313.667 93.6506 312.266ZM95.0959 312.266C95.0959 313.329 95.3277 314.125 95.7913 314.657C96.2548 315.183 96.8381 315.446 97.5413 315.446C98.2392 315.446 98.8199 315.18 99.2834 314.649C99.747 314.118 99.9788 313.308 99.9788 312.219C99.9788 311.193 99.7444 310.417 99.2756 309.891C98.8121 309.36 98.234 309.094 97.5413 309.094C96.8381 309.094 96.2548 309.357 95.7913 309.883C95.3277 310.409 95.0959 311.204 95.0959 312.266ZM104.612 316.415L102.073 308.118H103.526L104.846 312.907L105.338 314.688C105.359 314.599 105.502 314.029 105.768 312.977L107.088 308.118H108.533L109.776 312.93L110.19 314.516L110.666 312.915L112.088 308.118H113.455L110.862 316.415H109.401L108.08 311.446L107.76 310.032L106.08 316.415H104.612ZM120.323 313.743L121.776 313.922C121.546 314.771 121.122 315.43 120.502 315.899C119.882 316.368 119.091 316.602 118.127 316.602C116.914 316.602 115.95 316.23 115.237 315.485C114.528 314.735 114.174 313.685 114.174 312.336C114.174 310.941 114.533 309.857 115.252 309.086C115.971 308.316 116.903 307.93 118.049 307.93C119.158 307.93 120.065 308.308 120.768 309.063C121.471 309.818 121.823 310.881 121.823 312.25C121.823 312.334 121.82 312.459 121.815 312.625H115.627C115.679 313.537 115.937 314.235 116.401 314.719C116.864 315.204 117.442 315.446 118.135 315.446C118.651 315.446 119.091 315.31 119.455 315.04C119.82 314.769 120.109 314.336 120.323 313.743ZM115.705 311.469H120.338C120.276 310.771 120.099 310.248 119.807 309.899C119.359 309.357 118.778 309.086 118.065 309.086C117.419 309.086 116.875 309.303 116.432 309.735C115.994 310.167 115.752 310.745 115.705 311.469ZM123.533 316.415V308.118H124.799V309.375C125.122 308.787 125.419 308.399 125.69 308.211C125.966 308.024 126.268 307.93 126.596 307.93C127.07 307.93 127.552 308.081 128.041 308.383L127.557 309.688C127.213 309.485 126.869 309.383 126.526 309.383C126.218 309.383 125.942 309.477 125.698 309.665C125.453 309.847 125.278 310.102 125.174 310.43C125.018 310.93 124.94 311.477 124.94 312.071V316.415H123.533ZM133.299 316.415V304.961H134.705V316.415H133.299ZM142.307 315.391C141.786 315.834 141.283 316.146 140.799 316.329C140.32 316.511 139.804 316.602 139.252 316.602C138.341 316.602 137.64 316.381 137.151 315.938C136.661 315.49 136.416 314.92 136.416 314.227C136.416 313.821 136.507 313.451 136.69 313.118C136.877 312.779 137.119 312.508 137.416 312.305C137.718 312.102 138.057 311.948 138.432 311.844C138.708 311.771 139.125 311.701 139.682 311.633C140.817 311.498 141.653 311.336 142.19 311.149C142.195 310.956 142.198 310.834 142.198 310.782C142.198 310.209 142.065 309.805 141.799 309.571C141.44 309.253 140.906 309.094 140.198 309.094C139.536 309.094 139.046 309.211 138.729 309.446C138.416 309.675 138.184 310.084 138.033 310.672L136.658 310.485C136.783 309.896 136.989 309.422 137.276 309.063C137.562 308.698 137.976 308.42 138.518 308.227C139.059 308.029 139.687 307.93 140.401 307.93C141.109 307.93 141.684 308.014 142.127 308.18C142.57 308.347 142.895 308.558 143.104 308.813C143.312 309.063 143.458 309.381 143.541 309.766C143.588 310.006 143.612 310.438 143.612 311.063V312.938C143.612 314.245 143.64 315.073 143.698 315.422C143.76 315.766 143.88 316.097 144.057 316.415H142.588C142.442 316.123 142.349 315.782 142.307 315.391ZM142.19 312.25C141.679 312.459 140.914 312.636 139.893 312.782C139.315 312.865 138.906 312.959 138.666 313.063C138.427 313.167 138.242 313.321 138.112 313.524C137.981 313.722 137.916 313.943 137.916 314.188C137.916 314.563 138.057 314.875 138.338 315.125C138.625 315.375 139.041 315.5 139.588 315.5C140.13 315.5 140.612 315.383 141.033 315.149C141.455 314.909 141.765 314.584 141.963 314.172C142.114 313.855 142.19 313.386 142.19 312.766V312.25ZM147.33 316.415L144.791 308.118H146.244L147.565 312.907L148.057 314.688C148.078 314.599 148.221 314.029 148.487 312.977L149.807 308.118H151.252L152.494 312.93L152.908 314.516L153.385 312.915L154.807 308.118H156.174L153.58 316.415H152.119L150.799 311.446L150.479 310.032L148.799 316.415H147.33Z" fill="black"/>
<path d="M22.3772 330.415H72.3772" stroke="#26251E" stroke-opacity="0.1" stroke-width="8" stroke-dasharray="4 12"/>
<path d="M83.7209 336.415V324.961H85.2366V335.063H90.8772V336.415H83.7209ZM91.9866 332.266C91.9866 330.73 92.4137 329.592 93.2678 328.852C93.9814 328.237 94.8512 327.93 95.8772 327.93C97.0178 327.93 97.9501 328.305 98.6741 329.055C99.398 329.8 99.76 330.831 99.76 332.149C99.76 333.217 99.5986 334.058 99.2756 334.672C98.9579 335.282 98.4918 335.756 97.8772 336.094C97.2678 336.433 96.6012 336.602 95.8772 336.602C94.7157 336.602 93.7756 336.23 93.0569 335.485C92.3433 334.74 91.9866 333.667 91.9866 332.266ZM93.4319 332.266C93.4319 333.329 93.6637 334.125 94.1272 334.657C94.5907 335.183 95.1741 335.446 95.8772 335.446C96.5751 335.446 97.1558 335.18 97.6194 334.649C98.0829 334.118 98.3147 333.308 98.3147 332.219C98.3147 331.193 98.0803 330.417 97.6116 329.891C97.148 329.36 96.5699 329.094 95.8772 329.094C95.1741 329.094 94.5907 329.357 94.1272 329.883C93.6637 330.409 93.4319 331.204 93.4319 332.266ZM101.158 337.102L102.526 337.305C102.583 337.727 102.742 338.034 103.002 338.227C103.351 338.487 103.828 338.618 104.432 338.618C105.083 338.618 105.586 338.487 105.94 338.227C106.294 337.967 106.533 337.602 106.658 337.133C106.731 336.847 106.765 336.245 106.76 335.329C106.145 336.053 105.38 336.415 104.463 336.415C103.323 336.415 102.44 336.003 101.815 335.18C101.19 334.357 100.877 333.37 100.877 332.219C100.877 331.428 101.02 330.698 101.307 330.032C101.593 329.36 102.007 328.842 102.549 328.477C103.096 328.112 103.737 327.93 104.471 327.93C105.45 327.93 106.257 328.326 106.893 329.118V328.118H108.19V335.29C108.19 336.581 108.057 337.495 107.791 338.032C107.531 338.573 107.114 339 106.541 339.313C105.974 339.625 105.273 339.782 104.44 339.782C103.45 339.782 102.651 339.558 102.041 339.11C101.432 338.667 101.138 337.998 101.158 337.102ZM102.323 332.118C102.323 333.206 102.539 334 102.971 334.5C103.403 335 103.945 335.25 104.596 335.25C105.242 335.25 105.783 335.003 106.221 334.508C106.658 334.008 106.877 333.227 106.877 332.165C106.877 331.149 106.651 330.383 106.198 329.868C105.75 329.352 105.208 329.094 104.573 329.094C103.948 329.094 103.416 329.349 102.979 329.86C102.541 330.365 102.323 331.118 102.323 332.118ZM110.323 336.415V328.118H111.588V329.297C112.198 328.386 113.078 327.93 114.229 327.93C114.729 327.93 115.187 328.021 115.604 328.204C116.026 328.381 116.341 328.615 116.549 328.907C116.757 329.198 116.903 329.545 116.987 329.946C117.039 330.206 117.065 330.662 117.065 331.313V336.415H115.658V331.368C115.658 330.795 115.604 330.368 115.494 330.086C115.385 329.8 115.19 329.573 114.908 329.407C114.632 329.235 114.307 329.149 113.932 329.149C113.333 329.149 112.815 329.339 112.377 329.719C111.945 330.099 111.729 330.821 111.729 331.883V336.415H110.323ZM118.705 332.266C118.705 330.73 119.132 329.592 119.987 328.852C120.7 328.237 121.57 327.93 122.596 327.93C123.737 327.93 124.669 328.305 125.393 329.055C126.117 329.8 126.479 330.831 126.479 332.149C126.479 333.217 126.317 334.058 125.994 334.672C125.677 335.282 125.211 335.756 124.596 336.094C123.987 336.433 123.32 336.602 122.596 336.602C121.434 336.602 120.494 336.23 119.776 335.485C119.062 334.74 118.705 333.667 118.705 332.266ZM120.151 332.266C120.151 333.329 120.382 334.125 120.846 334.657C121.309 335.183 121.893 335.446 122.596 335.446C123.294 335.446 123.875 335.18 124.338 334.649C124.802 334.118 125.033 333.308 125.033 332.219C125.033 331.193 124.799 330.417 124.33 329.891C123.867 329.36 123.289 329.094 122.596 329.094C121.893 329.094 121.309 329.357 120.846 329.883C120.382 330.409 120.151 331.204 120.151 332.266ZM128.119 336.415V328.118H129.385V329.375C129.708 328.787 130.005 328.399 130.276 328.211C130.552 328.024 130.854 327.93 131.182 327.93C131.656 327.93 132.138 328.081 132.627 328.383L132.143 329.688C131.799 329.485 131.455 329.383 131.112 329.383C130.804 329.383 130.528 329.477 130.283 329.665C130.039 329.847 129.864 330.102 129.76 330.43C129.604 330.93 129.526 331.477 129.526 332.071V336.415H128.119ZM133.463 336.415V328.118H134.721V329.282C134.981 328.875 135.328 328.55 135.76 328.305C136.192 328.055 136.684 327.93 137.237 327.93C137.851 327.93 138.354 328.058 138.744 328.313C139.14 328.568 139.419 328.925 139.58 329.383C140.237 328.415 141.091 327.93 142.143 327.93C142.966 327.93 143.599 328.159 144.041 328.618C144.484 329.071 144.705 329.771 144.705 330.719V336.415H143.307V331.188C143.307 330.625 143.26 330.222 143.166 329.977C143.078 329.727 142.914 329.527 142.674 329.375C142.434 329.224 142.153 329.149 141.83 329.149C141.247 329.149 140.763 329.344 140.377 329.735C139.992 330.12 139.799 330.74 139.799 331.594V336.415H138.393V331.024C138.393 330.399 138.278 329.93 138.049 329.618C137.82 329.305 137.445 329.149 136.924 329.149C136.528 329.149 136.161 329.253 135.823 329.461C135.489 329.67 135.247 329.974 135.096 330.375C134.945 330.777 134.869 331.355 134.869 332.11V336.415H133.463ZM152.205 335.391C151.684 335.834 151.182 336.146 150.698 336.329C150.218 336.511 149.703 336.602 149.151 336.602C148.239 336.602 147.539 336.381 147.049 335.938C146.559 335.49 146.315 334.92 146.315 334.227C146.315 333.821 146.406 333.451 146.588 333.118C146.776 332.779 147.018 332.508 147.315 332.305C147.617 332.102 147.955 331.948 148.33 331.844C148.606 331.771 149.023 331.701 149.58 331.633C150.716 331.498 151.552 331.336 152.088 331.149C152.093 330.956 152.096 330.834 152.096 330.782C152.096 330.209 151.963 329.805 151.698 329.571C151.338 329.253 150.804 329.094 150.096 329.094C149.434 329.094 148.945 329.211 148.627 329.446C148.315 329.675 148.083 330.084 147.932 330.672L146.557 330.485C146.682 329.896 146.888 329.422 147.174 329.063C147.461 328.698 147.875 328.42 148.416 328.227C148.958 328.029 149.586 327.93 150.299 327.93C151.007 327.93 151.583 328.014 152.026 328.18C152.468 328.347 152.794 328.558 153.002 328.813C153.211 329.063 153.356 329.381 153.44 329.766C153.487 330.006 153.51 330.438 153.51 331.063V332.938C153.51 334.245 153.539 335.073 153.596 335.422C153.658 335.766 153.778 336.097 153.955 336.415H152.487C152.341 336.123 152.247 335.782 152.205 335.391ZM152.088 332.25C151.578 332.459 150.812 332.636 149.791 332.782C149.213 332.865 148.804 332.959 148.565 333.063C148.325 333.167 148.14 333.321 148.01 333.524C147.88 333.722 147.815 333.943 147.815 334.188C147.815 334.563 147.955 334.875 148.237 335.125C148.523 335.375 148.94 335.5 149.487 335.5C150.028 335.5 150.51 335.383 150.932 335.149C151.354 334.909 151.664 334.584 151.862 334.172C152.013 333.855 152.088 333.386 152.088 332.766V332.25ZM155.666 336.415V324.961H157.073V336.415H155.666Z" fill="black"/>
<path d="M67.3459 346.415V348.415H70.3772V348.83H72.3772V350.038H70.3772V350.792H72.3772V352H70.3772V352.415H67.3459V354.415H64.8303V352.415H63.2581V354.415H60.7424V352.415H50.679V354.415H48.1633V352.415H46.5911V354.415H44.0754V352.415H34.012V354.415H31.4963V352.415H29.9241V354.415H27.4084V352.415H24.3772V352H22.3772V350.792H24.3772V350.038H22.3772V348.83H24.3772V348.415H27.4084V346.415H29.9241V348.415H31.4963V346.415H34.012V348.415H44.0754V346.415H46.5911V348.415H48.1633V346.415H50.679V348.415H60.7424V346.415H63.2581V348.415H64.8303V346.415H67.3459Z" stroke="#26251E" stroke-opacity="0.1" stroke-width="4" stroke-dasharray="10.24 2.56 1.6 2.56"/>
<path d="M83.7991 356.415V344.961H92.0803V346.313H85.3147V349.821H91.6506V351.165H85.3147V355.063H92.3459V356.415H83.7991ZM93.3225 356.415L96.3538 352.102L93.5491 348.118H95.3069L96.5803 350.063C96.8199 350.433 97.0126 350.743 97.1584 350.993C97.3876 350.649 97.5986 350.344 97.7913 350.079L99.1897 348.118H100.869L98.0022 352.024L101.088 356.415H99.3616L97.6584 353.836L97.2053 353.141L95.0256 356.415H93.3225ZM102.26 359.594V348.118H103.541V349.196C103.843 348.774 104.184 348.459 104.565 348.25C104.945 348.037 105.406 347.93 105.948 347.93C106.656 347.93 107.281 348.112 107.823 348.477C108.364 348.842 108.773 349.357 109.049 350.024C109.325 350.685 109.463 351.412 109.463 352.204C109.463 353.053 109.309 353.818 109.002 354.5C108.7 355.178 108.257 355.698 107.674 356.063C107.096 356.422 106.487 356.602 105.846 356.602C105.377 356.602 104.955 356.503 104.58 356.305C104.211 356.107 103.906 355.857 103.666 355.555V359.594H102.26ZM103.533 352.313C103.533 353.381 103.75 354.17 104.182 354.68C104.614 355.191 105.138 355.446 105.752 355.446C106.377 355.446 106.911 355.183 107.354 354.657C107.802 354.125 108.026 353.305 108.026 352.196C108.026 351.139 107.807 350.347 107.369 349.821C106.937 349.295 106.419 349.032 105.815 349.032C105.216 349.032 104.684 349.313 104.221 349.875C103.763 350.433 103.533 351.245 103.533 352.313ZM110.643 352.266C110.643 350.73 111.07 349.592 111.924 348.852C112.638 348.237 113.507 347.93 114.533 347.93C115.674 347.93 116.606 348.305 117.33 349.055C118.054 349.8 118.416 350.831 118.416 352.149C118.416 353.217 118.255 354.058 117.932 354.672C117.614 355.282 117.148 355.756 116.533 356.094C115.924 356.433 115.257 356.602 114.533 356.602C113.372 356.602 112.432 356.23 111.713 355.485C111 354.74 110.643 353.667 110.643 352.266ZM112.088 352.266C112.088 353.329 112.32 354.125 112.783 354.657C113.247 355.183 113.83 355.446 114.533 355.446C115.231 355.446 115.812 355.18 116.276 354.649C116.739 354.118 116.971 353.308 116.971 352.219C116.971 351.193 116.737 350.417 116.268 349.891C115.804 349.36 115.226 349.094 114.533 349.094C113.83 349.094 113.247 349.357 112.783 349.883C112.32 350.409 112.088 351.204 112.088 352.266ZM120.073 356.415V348.118H121.338V349.297C121.948 348.386 122.828 347.93 123.979 347.93C124.479 347.93 124.937 348.021 125.354 348.204C125.776 348.381 126.091 348.615 126.299 348.907C126.507 349.198 126.653 349.545 126.737 349.946C126.789 350.206 126.815 350.662 126.815 351.313V356.415H125.408V351.368C125.408 350.795 125.354 350.368 125.244 350.086C125.135 349.8 124.94 349.573 124.658 349.407C124.382 349.235 124.057 349.149 123.682 349.149C123.083 349.149 122.565 349.339 122.127 349.719C121.695 350.099 121.479 350.821 121.479 351.883V356.415H120.073ZM134.658 353.743L136.112 353.922C135.882 354.771 135.458 355.43 134.838 355.899C134.218 356.368 133.427 356.602 132.463 356.602C131.25 356.602 130.286 356.23 129.573 355.485C128.864 354.735 128.51 353.685 128.51 352.336C128.51 350.941 128.869 349.857 129.588 349.086C130.307 348.316 131.239 347.93 132.385 347.93C133.494 347.93 134.401 348.308 135.104 349.063C135.807 349.818 136.158 350.881 136.158 352.25C136.158 352.334 136.156 352.459 136.151 352.625H129.963C130.015 353.537 130.273 354.235 130.737 354.719C131.2 355.204 131.778 355.446 132.471 355.446C132.987 355.446 133.427 355.31 133.791 355.04C134.156 354.769 134.445 354.336 134.658 353.743ZM130.041 351.469H134.674C134.612 350.771 134.434 350.248 134.143 349.899C133.695 349.357 133.114 349.086 132.401 349.086C131.755 349.086 131.211 349.303 130.768 349.735C130.33 350.167 130.088 350.745 130.041 351.469ZM137.885 356.415V348.118H139.151V349.297C139.76 348.386 140.64 347.93 141.791 347.93C142.291 347.93 142.75 348.021 143.166 348.204C143.588 348.381 143.903 348.615 144.112 348.907C144.32 349.198 144.466 349.545 144.549 349.946C144.601 350.206 144.627 350.662 144.627 351.313V356.415H143.221V351.368C143.221 350.795 143.166 350.368 143.057 350.086C142.948 349.8 142.752 349.573 142.471 349.407C142.195 349.235 141.869 349.149 141.494 349.149C140.895 349.149 140.377 349.339 139.94 349.719C139.507 350.099 139.291 350.821 139.291 351.883V356.415H137.885ZM149.862 355.157L150.065 356.399C149.669 356.482 149.315 356.524 149.002 356.524C148.492 356.524 148.096 356.443 147.815 356.282C147.533 356.12 147.336 355.909 147.221 355.649C147.106 355.383 147.049 354.829 147.049 353.985V349.211H146.018V348.118H147.049V346.063L148.448 345.219V348.118H149.862V349.211H148.448V354.063C148.448 354.464 148.471 354.722 148.518 354.836C148.57 354.951 148.651 355.042 148.76 355.11C148.875 355.178 149.036 355.211 149.244 355.211C149.401 355.211 149.606 355.193 149.862 355.157ZM151.252 346.579V344.961H152.658V346.579H151.252ZM151.252 356.415V348.118H152.658V356.415H151.252ZM160.221 355.391C159.7 355.834 159.198 356.146 158.713 356.329C158.234 356.511 157.718 356.602 157.166 356.602C156.255 356.602 155.554 356.381 155.065 355.938C154.575 355.49 154.33 354.92 154.33 354.227C154.33 353.821 154.421 353.451 154.604 353.118C154.791 352.779 155.033 352.508 155.33 352.305C155.632 352.102 155.971 351.948 156.346 351.844C156.622 351.771 157.039 351.701 157.596 351.633C158.731 351.498 159.567 351.336 160.104 351.149C160.109 350.956 160.112 350.834 160.112 350.782C160.112 350.209 159.979 349.805 159.713 349.571C159.354 349.253 158.82 349.094 158.112 349.094C157.45 349.094 156.961 349.211 156.643 349.446C156.33 349.675 156.099 350.084 155.948 350.672L154.573 350.485C154.698 349.896 154.903 349.422 155.19 349.063C155.476 348.698 155.89 348.42 156.432 348.227C156.974 348.029 157.601 347.93 158.315 347.93C159.023 347.93 159.599 348.014 160.041 348.18C160.484 348.347 160.809 348.558 161.018 348.813C161.226 349.063 161.372 349.381 161.455 349.766C161.502 350.006 161.526 350.438 161.526 351.063V352.938C161.526 354.245 161.554 355.073 161.612 355.422C161.674 355.766 161.794 356.097 161.971 356.415H160.502C160.356 356.123 160.263 355.782 160.221 355.391ZM160.104 352.25C159.593 352.459 158.828 352.636 157.807 352.782C157.229 352.865 156.82 352.959 156.58 353.063C156.341 353.167 156.156 353.321 156.026 353.524C155.895 353.722 155.83 353.943 155.83 354.188C155.83 354.563 155.971 354.875 156.252 355.125C156.539 355.375 156.955 355.5 157.502 355.5C158.044 355.5 158.526 355.383 158.948 355.149C159.369 354.909 159.679 354.584 159.877 354.172C160.028 353.855 160.104 353.386 160.104 352.766V352.25ZM163.682 356.415V344.961H165.088V356.415H163.682Z" fill="black"/>
</svg>
