<svg width="488" height="307" viewBox="0 0 488 307" fill="none" xmlns="http://www.w3.org/2000/svg">
<path d="M42.7666 262.181H487.098V21.0063H42.7666V262.181Z" fill="white"/>
<mask id="mask0_22_3262" style="mask-type:luminance" maskUnits="userSpaceOnUse" x="42" y="21" width="446" height="242">
<path d="M487.098 21.0063H42.7666V262.181H487.098V21.0063Z" fill="white"/>
</mask>
<g mask="url(#mask0_22_3262)">
<path d="M62.9636 262.181H95.2107V229.793H62.9636V262.181Z" fill="#516FD9" stroke="white" stroke-width="0.533333"/>
</g>
<mask id="mask1_22_3262" style="mask-type:luminance" maskUnits="userSpaceOnUse" x="42" y="21" width="446" height="242">
<path d="M487.098 21.0063H42.7666V262.181H487.098V21.0063Z" fill="white"/>
</mask>
<g mask="url(#mask1_22_3262)">
<path d="M147.824 262.181H180.071V248.845H147.824V262.181Z" fill="#516FD9" stroke="white" stroke-width="0.533333"/>
</g>
<mask id="mask2_22_3262" style="mask-type:luminance" maskUnits="userSpaceOnUse" x="42" y="21" width="446" height="242">
<path d="M487.098 21.0063H42.7666V262.181H487.098V21.0063Z" fill="white"/>
</mask>
<g mask="url(#mask2_22_3262)">
<path d="M232.685 262.181H264.932V226.935H232.685V262.181Z" fill="#516FD9" stroke="white" stroke-width="0.533333"/>
</g>
<mask id="mask3_22_3262" style="mask-type:luminance" maskUnits="userSpaceOnUse" x="42" y="21" width="446" height="242">
<path d="M487.098 21.0063H42.7666V262.181H487.098V21.0063Z" fill="white"/>
</mask>
<g mask="url(#mask3_22_3262)">
<path d="M317.546 262.181H349.793V231.698H317.546V262.181Z" fill="#516FD9" stroke="white" stroke-width="0.533333"/>
</g>
<mask id="mask4_22_3262" style="mask-type:luminance" maskUnits="userSpaceOnUse" x="42" y="21" width="446" height="242">
<path d="M487.098 21.0063H42.7666V262.181H487.098V21.0063Z" fill="white"/>
</mask>
<g mask="url(#mask4_22_3262)">
<path d="M402.406 262.181H434.654V206.93H402.406V262.181Z" fill="#516FD9" stroke="white" stroke-width="0.533333"/>
</g>
<mask id="mask5_22_3262" style="mask-type:luminance" maskUnits="userSpaceOnUse" x="42" y="21" width="446" height="242">
<path d="M487.098 21.0063H42.7666V262.181H487.098V21.0063Z" fill="white"/>
</mask>
<g mask="url(#mask5_22_3262)">
<path d="M62.9636 229.793H95.2107V226.935H62.9636V229.793Z" fill="#7EACF5" stroke="white" stroke-width="0.533333"/>
</g>
<mask id="mask6_22_3262" style="mask-type:luminance" maskUnits="userSpaceOnUse" x="42" y="21" width="446" height="242">
<path d="M487.098 21.0063H42.7666V262.181H487.098V21.0063Z" fill="white"/>
</mask>
<g mask="url(#mask6_22_3262)">
<path d="M147.824 248.845H180.071V245.987H147.824V248.845Z" fill="#7EACF5" stroke="white" stroke-width="0.533333"/>
</g>
<mask id="mask7_22_3262" style="mask-type:luminance" maskUnits="userSpaceOnUse" x="42" y="21" width="446" height="242">
<path d="M487.098 21.0063H42.7666V262.181H487.098V21.0063Z" fill="white"/>
</mask>
<g mask="url(#mask7_22_3262)">
<path d="M232.685 226.935H264.932V205.978H232.685V226.935Z" fill="#7EACF5" stroke="white" stroke-width="0.533333"/>
</g>
<mask id="mask8_22_3262" style="mask-type:luminance" maskUnits="userSpaceOnUse" x="42" y="21" width="446" height="242">
<path d="M487.098 21.0063H42.7666V262.181H487.098V21.0063Z" fill="white"/>
</mask>
<g mask="url(#mask8_22_3262)">
<path d="M317.546 231.698H349.793V220.267H317.546V231.698Z" fill="#7EACF5" stroke="white" stroke-width="0.533333"/>
</g>
<mask id="mask9_22_3262" style="mask-type:luminance" maskUnits="userSpaceOnUse" x="42" y="21" width="446" height="242">
<path d="M487.098 21.0063H42.7666V262.181H487.098V21.0063Z" fill="white"/>
</mask>
<g mask="url(#mask9_22_3262)">
<path d="M402.406 206.931H434.654V150.727H402.406V206.931Z" fill="#7EACF5" stroke="white" stroke-width="0.533333"/>
</g>
<mask id="mask10_22_3262" style="mask-type:luminance" maskUnits="userSpaceOnUse" x="42" y="21" width="446" height="242">
<path d="M487.098 21.0063H42.7666V262.181H487.098V21.0063Z" fill="white"/>
</mask>
<g mask="url(#mask10_22_3262)">
<path d="M95.2104 262.181H127.458V32.491H95.2104V262.181Z" fill="#D0D0D0" stroke="white" stroke-width="0.533333"/>
</g>
<mask id="mask11_22_3262" style="mask-type:luminance" maskUnits="userSpaceOnUse" x="42" y="21" width="446" height="242">
<path d="M487.098 21.0063H42.7666V262.181H487.098V21.0063Z" fill="white"/>
</mask>
<g mask="url(#mask11_22_3262)">
<path d="M180.071 262.181H212.318V241.301H180.071V262.181Z" fill="#D0D0D0" stroke="white" stroke-width="0.533333"/>
</g>
<mask id="mask12_22_3262" style="mask-type:luminance" maskUnits="userSpaceOnUse" x="42" y="21" width="446" height="242">
<path d="M487.098 21.0063H42.7666V262.181H487.098V21.0063Z" fill="white"/>
</mask>
<g mask="url(#mask12_22_3262)">
<path d="M264.932 262.181H297.179V254.351H264.932V262.181Z" fill="#D0D0D0" stroke="white" stroke-width="0.533333"/>
</g>
<mask id="mask13_22_3262" style="mask-type:luminance" maskUnits="userSpaceOnUse" x="42" y="21" width="446" height="242">
<path d="M487.098 21.0063H42.7666V262.181H487.098V21.0063Z" fill="white"/>
</mask>
<g mask="url(#mask13_22_3262)">
<path d="M349.793 262.181H382.04V259.571H349.793V262.181Z" fill="#D0D0D0" stroke="white" stroke-width="0.533333"/>
</g>
<mask id="mask14_22_3262" style="mask-type:luminance" maskUnits="userSpaceOnUse" x="42" y="21" width="446" height="242">
<path d="M487.098 21.0063H42.7666V262.181H487.098V21.0063Z" fill="white"/>
</mask>
<g mask="url(#mask14_22_3262)">
<path d="M434.654 262.181H466.901" stroke="white" stroke-width="0.533333"/>
</g>
<path d="M61.0037 276.775V267.717H62.2316L66.9909 274.83V267.717H68.1397V276.775H66.9098L62.1525 269.657V276.775H61.0037Z" fill="black"/>
<path d="M69.5986 273.495C69.5986 272.28 69.9361 271.38 70.611 270.794C71.1752 270.308 71.8633 270.065 72.6753 270.065C73.5769 270.065 74.3138 270.361 74.8859 270.952C75.4593 271.543 75.746 272.36 75.746 273.402C75.746 274.246 75.6195 274.91 75.3664 275.395C75.1133 275.879 74.7442 276.255 74.2591 276.522C73.7753 276.79 73.2474 276.924 72.6753 276.924C71.7565 276.924 71.0137 276.629 70.4469 276.04C69.8814 275.451 69.5986 274.602 69.5986 273.495ZM70.7415 273.495C70.7415 274.335 70.9247 274.964 71.2912 275.382C71.6576 275.799 72.119 276.008 72.6753 276.008C73.2276 276.008 73.687 275.799 74.0535 275.38C74.4199 274.959 74.6031 274.318 74.6031 273.458C74.6031 272.646 74.4186 272.031 74.0495 271.613C73.6804 271.195 73.2223 270.986 72.6753 270.986C72.119 270.986 71.6576 271.194 71.2912 271.611C70.9247 272.026 70.7415 272.654 70.7415 273.495Z" fill="black"/>
<path d="M85.058 274.662L86.2068 274.804C86.0262 275.475 85.6907 275.996 85.2003 276.368C84.71 276.739 84.0838 276.924 83.3219 276.924C82.3623 276.924 81.601 276.629 81.0381 276.038C80.4753 275.446 80.1938 274.617 80.1938 273.551C80.1938 272.446 80.4779 271.589 81.0461 270.98C81.6155 270.37 82.353 270.065 83.2586 270.065C84.1366 270.065 84.8536 270.363 85.4099 270.96C85.9662 271.557 86.2443 272.398 86.2443 273.481C86.2443 273.547 86.2424 273.646 86.2384 273.778H81.3446C81.3855 274.499 81.5892 275.051 81.9556 275.435C82.3221 275.817 82.7795 276.008 83.3278 276.008C83.7352 276.008 84.0832 275.902 84.3718 275.688C84.6605 275.473 84.8892 275.131 85.058 274.662ZM81.4059 272.864H85.0698C85.0211 272.312 84.8813 271.898 84.6506 271.623C84.2961 271.194 83.8367 270.98 83.2725 270.98C82.761 270.98 82.3313 271.151 81.9833 271.492C81.6353 271.834 81.4428 272.291 81.4059 272.864Z" fill="black"/>
<path d="M89.4265 276.775L86.9292 270.213H88.1037L89.5135 274.144C89.6651 274.568 89.8048 275.008 89.9327 275.464C90.0316 275.119 90.1693 274.703 90.3459 274.217L91.8052 270.213H92.9481L90.4646 276.775H89.4265Z" fill="black"/>
<path d="M93.9368 268.997V267.717H95.05V268.997H93.9368ZM93.9368 276.775V270.213H95.05V276.775H93.9368Z" fill="black"/>
<path d="M100.999 276.776V275.947C100.583 276.598 99.9711 276.924 99.1644 276.924C98.6411 276.924 98.1599 276.779 97.721 276.491C97.282 276.202 96.9419 275.799 96.7007 275.283C96.4608 274.766 96.3408 274.172 96.3408 273.501C96.3408 272.846 96.4496 272.252 96.6671 271.718C96.8859 271.184 97.2135 270.775 97.6498 270.492C98.0874 270.207 98.5758 270.065 99.115 270.065C99.5104 270.065 99.8624 270.148 100.171 270.316C100.481 270.482 100.732 270.699 100.926 270.966V267.718H102.031V276.776H100.999ZM97.4837 273.501C97.4837 274.341 97.6603 274.969 98.0136 275.386C98.3682 275.801 98.7867 276.008 99.2692 276.008C99.7556 276.008 100.168 275.81 100.507 275.413C100.847 275.015 101.017 274.409 101.017 273.594C101.017 272.695 100.844 272.036 100.497 271.617C100.152 271.196 99.7259 270.986 99.2197 270.986C98.7254 270.986 98.3122 271.188 97.98 271.591C97.6491 271.994 97.4837 272.631 97.4837 273.501Z" fill="black"/>
<path d="M108.273 274.662L109.421 274.804C109.241 275.475 108.905 275.996 108.415 276.368C107.925 276.739 107.298 276.924 106.537 276.924C105.577 276.924 104.816 276.629 104.253 276.038C103.69 275.446 103.408 274.617 103.408 273.551C103.408 272.446 103.693 271.589 104.261 270.98C104.83 270.37 105.568 270.065 106.473 270.065C107.351 270.065 108.068 270.363 108.625 270.96C109.181 271.557 109.459 272.398 109.459 273.481C109.459 273.547 109.457 273.646 109.453 273.778H104.559C104.6 274.499 104.804 275.051 105.17 275.435C105.537 275.817 105.994 276.008 106.542 276.008C106.95 276.008 107.298 275.902 107.586 275.688C107.875 275.473 108.104 275.131 108.273 274.662ZM104.621 272.864H108.284C108.236 272.312 108.096 271.898 107.865 271.623C107.511 271.194 107.051 270.98 106.487 270.98C105.976 270.98 105.546 271.151 105.198 271.492C104.85 271.834 104.657 272.291 104.621 272.864Z" fill="black"/>
<path d="M110.818 276.775V270.213H111.819V271.146C112.301 270.425 112.997 270.064 113.907 270.064C114.302 270.064 114.666 270.136 114.998 270.278C115.33 270.42 115.579 270.607 115.744 270.838C115.908 271.068 116.024 271.342 116.09 271.658C116.13 271.865 116.151 272.226 116.151 272.74V276.775H115.038V272.783C115.038 272.33 114.994 271.991 114.907 271.767C114.821 271.543 114.669 271.364 114.448 271.231C114.228 271.097 113.97 271.029 113.673 271.029C113.199 271.029 112.789 271.18 112.445 271.48C112.101 271.781 111.929 272.351 111.929 273.191V276.775H110.818Z" fill="black"/>
<path d="M122.139 274.371L123.232 274.514C123.112 275.268 122.806 275.858 122.313 276.285C121.821 276.711 121.217 276.924 120.5 276.924C119.602 276.924 118.88 276.631 118.334 276.044C117.789 275.456 117.516 274.614 117.516 273.519C117.516 272.811 117.633 272.192 117.868 271.66C118.102 271.128 118.46 270.729 118.94 270.464C119.419 270.198 119.942 270.065 120.508 270.065C121.219 270.065 121.802 270.245 122.255 270.606C122.709 270.966 123 271.478 123.127 272.141L122.046 272.309C121.943 271.867 121.76 271.536 121.498 271.314C121.237 271.091 120.921 270.98 120.549 270.98C119.989 270.98 119.533 271.181 119.183 271.583C118.833 271.984 118.659 272.619 118.659 273.487C118.659 274.369 118.827 275.01 119.165 275.409C119.504 275.809 119.945 276.008 120.488 276.008C120.924 276.008 121.289 275.875 121.581 275.607C121.874 275.339 122.06 274.927 122.139 274.371Z" fill="black"/>
<path d="M128.676 274.662L129.824 274.804C129.644 275.475 129.308 275.996 128.818 276.368C128.328 276.739 127.702 276.924 126.94 276.924C125.98 276.924 125.219 276.629 124.656 276.038C124.093 275.446 123.812 274.617 123.812 273.551C123.812 272.446 124.096 271.589 124.664 270.98C125.233 270.37 125.971 270.065 126.876 270.065C127.754 270.065 128.471 270.363 129.028 270.96C129.584 271.557 129.862 272.398 129.862 273.481C129.862 273.547 129.86 273.646 129.856 273.778H124.962C125.003 274.499 125.207 275.051 125.573 275.435C125.94 275.817 126.397 276.008 126.946 276.008C127.353 276.008 127.701 275.902 127.99 275.688C128.278 275.473 128.507 275.131 128.676 274.662ZM125.024 272.864H128.688C128.639 272.312 128.499 271.898 128.268 271.623C127.914 271.194 127.454 270.98 126.89 270.98C126.379 270.98 125.949 271.151 125.601 271.492C125.253 271.834 125.061 272.291 125.024 272.864Z" fill="black"/>
<path d="M166.567 276.775L164.163 267.717H165.393L166.771 273.655C166.919 274.277 167.047 274.895 167.155 275.508C167.385 274.54 167.521 273.982 167.562 273.833L169.286 267.717H170.732L172.029 272.301C172.354 273.438 172.59 274.507 172.735 275.508C172.849 274.936 173 274.279 173.185 273.537L174.605 267.717H175.811L173.328 276.775H172.171L170.263 269.873C170.102 269.297 170.007 268.943 169.978 268.811C169.883 269.226 169.794 269.58 169.711 269.873L167.791 276.775H166.567Z" fill="black"/>
<path d="M181.058 274.662L182.207 274.804C182.026 275.475 181.691 275.996 181.201 276.368C180.71 276.739 180.084 276.924 179.322 276.924C178.363 276.924 177.601 276.629 177.038 276.038C176.476 275.446 176.194 274.617 176.194 273.551C176.194 272.446 176.478 271.589 177.046 270.98C177.616 270.37 178.353 270.065 179.259 270.065C180.137 270.065 180.854 270.363 181.41 270.96C181.966 271.557 182.245 272.398 182.245 273.481C182.245 273.547 182.243 273.646 182.239 273.778H177.345C177.386 274.499 177.589 275.051 177.956 275.435C178.322 275.817 178.78 276.008 179.328 276.008C179.735 276.008 180.083 275.902 180.372 275.688C180.661 275.473 180.889 275.131 181.058 274.662ZM177.406 272.864H181.07C181.021 272.312 180.882 271.898 180.651 271.623C180.296 271.194 179.837 270.98 179.273 270.98C178.761 270.98 178.332 271.151 177.984 271.492C177.636 271.834 177.443 272.291 177.406 272.864Z" fill="black"/>
<path d="M187.887 275.967C187.474 276.316 187.077 276.563 186.696 276.708C186.315 276.852 185.907 276.924 185.47 276.924C184.749 276.924 184.195 276.748 183.807 276.396C183.42 276.044 183.226 275.594 183.226 275.045C183.226 274.724 183.299 274.43 183.446 274.166C183.592 273.899 183.784 273.686 184.021 273.525C184.258 273.364 184.525 273.243 184.822 273.161C185.039 273.103 185.369 273.047 185.81 272.993C186.708 272.886 187.369 272.759 187.794 272.611C187.798 272.458 187.8 272.362 187.8 272.321C187.8 271.867 187.694 271.548 187.483 271.362C187.2 271.111 186.778 270.986 186.218 270.986C185.694 270.986 185.308 271.078 185.059 271.261C184.81 271.444 184.625 271.768 184.505 272.234L183.418 272.085C183.517 271.62 183.68 271.244 183.906 270.958C184.133 270.672 184.461 270.452 184.889 270.298C185.317 270.142 185.814 270.065 186.378 270.065C186.938 270.065 187.393 270.131 187.742 270.262C188.093 270.394 188.351 270.56 188.515 270.761C188.68 270.96 188.795 271.212 188.861 271.518C188.898 271.706 188.917 272.048 188.917 272.542V274.025C188.917 275.06 188.94 275.714 188.988 275.989C189.035 276.261 189.13 276.524 189.271 276.776H188.108C187.993 276.545 187.919 276.275 187.887 275.967ZM187.794 273.481C187.389 273.646 186.783 273.787 185.976 273.903C185.519 273.968 185.195 274.043 185.006 274.126C184.817 274.208 184.671 274.328 184.567 274.486C184.464 274.644 184.412 274.82 184.412 275.014C184.412 275.31 184.524 275.558 184.749 275.755C184.974 275.953 185.303 276.052 185.735 276.052C186.164 276.052 186.545 275.958 186.878 275.771C187.212 275.584 187.457 275.328 187.614 275.002C187.734 274.75 187.794 274.38 187.794 273.891V273.481Z" fill="black"/>
<path d="M190.648 276.775V267.717H191.761V272.882L194.393 270.213H195.832L193.323 272.647L196.085 276.775H194.713L192.544 273.42L191.761 274.173V276.775H190.648Z" fill="black"/>
<path d="M239.143 276.775V267.717H240.949L243.092 274.13C243.29 274.728 243.434 275.176 243.525 275.472C243.628 275.143 243.788 274.658 244.005 274.019L246.175 267.717H247.788V276.775H246.633V269.194L244 276.775H242.918L240.298 269.064V276.775H239.143Z" fill="black"/>
<path d="M249.167 273.495C249.167 272.28 249.504 271.38 250.179 270.794C250.743 270.308 251.431 270.065 252.243 270.065C253.145 270.065 253.882 270.361 254.454 270.952C255.027 271.543 255.314 272.36 255.314 273.402C255.314 274.246 255.188 274.91 254.934 275.395C254.681 275.879 254.312 276.255 253.827 276.522C253.343 276.79 252.815 276.924 252.243 276.924C251.325 276.924 250.582 276.629 250.015 276.04C249.449 275.451 249.167 274.602 249.167 273.495ZM250.31 273.495C250.31 274.335 250.493 274.964 250.859 275.382C251.226 275.799 251.687 276.008 252.243 276.008C252.796 276.008 253.255 275.799 253.622 275.38C253.988 274.959 254.171 274.318 254.171 273.458C254.171 272.646 253.987 272.031 253.618 271.613C253.249 271.195 252.79 270.986 252.243 270.986C251.687 270.986 251.226 271.194 250.859 271.611C250.493 272.026 250.31 272.654 250.31 273.495Z" fill="black"/>
<path d="M260.875 276.776V275.947C260.458 276.598 259.847 276.924 259.04 276.924C258.517 276.924 258.036 276.779 257.597 276.491C257.158 276.202 256.818 275.799 256.576 275.283C256.337 274.766 256.217 274.172 256.217 273.501C256.217 272.846 256.325 272.252 256.543 271.718C256.762 271.184 257.089 270.775 257.526 270.492C257.963 270.207 258.452 270.065 258.991 270.065C259.386 270.065 259.738 270.148 260.047 270.316C260.356 270.482 260.608 270.699 260.802 270.966V267.718H261.907V276.776H260.875ZM257.359 273.501C257.359 274.341 257.536 274.969 257.889 275.386C258.244 275.801 258.662 276.008 259.145 276.008C259.631 276.008 260.044 275.81 260.383 275.413C260.723 275.015 260.893 274.409 260.893 273.594C260.893 272.695 260.719 272.036 260.373 271.617C260.027 271.196 259.602 270.986 259.095 270.986C258.601 270.986 258.188 271.188 257.856 271.591C257.525 271.994 257.359 272.631 257.359 273.501Z" fill="black"/>
<path d="M268.148 274.662L269.297 274.804C269.117 275.475 268.781 275.996 268.291 276.368C267.8 276.739 267.174 276.924 266.412 276.924C265.453 276.924 264.691 276.629 264.128 276.038C263.566 275.446 263.284 274.617 263.284 273.551C263.284 272.446 263.568 271.589 264.136 270.98C264.706 270.37 265.443 270.065 266.349 270.065C267.227 270.065 267.944 270.363 268.5 270.96C269.057 271.557 269.335 272.398 269.335 273.481C269.335 273.547 269.333 273.646 269.329 273.778H264.435C264.476 274.499 264.679 275.051 265.046 275.435C265.412 275.817 265.87 276.008 266.418 276.008C266.825 276.008 267.173 275.902 267.462 275.688C267.751 275.473 267.98 275.131 268.148 274.662ZM264.496 272.864H268.16C268.111 272.312 267.972 271.898 267.741 271.623C267.386 271.194 266.927 270.98 266.363 270.98C265.851 270.98 265.422 271.151 265.074 271.492C264.726 271.834 264.533 272.291 264.496 272.864Z" fill="black"/>
<path d="M270.682 276.775V270.213H271.682V271.207C271.938 270.742 272.174 270.436 272.39 270.288C272.606 270.139 272.844 270.064 273.104 270.064C273.478 270.064 273.859 270.184 274.247 270.422L273.863 271.455C273.592 271.294 273.32 271.213 273.049 271.213C272.805 271.213 272.586 271.286 272.392 271.433C272.198 271.579 272.061 271.782 271.979 272.042C271.855 272.437 271.793 272.87 271.793 273.339V276.775H270.682Z" fill="black"/>
<path d="M279.19 275.967C278.778 276.316 278.381 276.563 278 276.708C277.619 276.852 277.211 276.924 276.774 276.924C276.053 276.924 275.499 276.748 275.111 276.396C274.724 276.044 274.53 275.594 274.53 275.045C274.53 274.724 274.603 274.43 274.75 274.166C274.896 273.899 275.088 273.686 275.325 273.525C275.562 273.364 275.829 273.243 276.126 273.161C276.343 273.103 276.673 273.047 277.114 272.993C278.012 272.886 278.673 272.759 279.098 272.611C279.102 272.458 279.103 272.362 279.103 272.321C279.103 271.867 278.998 271.548 278.787 271.362C278.504 271.111 278.082 270.986 277.522 270.986C276.998 270.986 276.612 271.078 276.363 271.261C276.114 271.444 275.929 271.768 275.809 272.234L274.722 272.085C274.821 271.62 274.983 271.244 275.21 270.958C275.437 270.672 275.765 270.452 276.193 270.298C276.621 270.142 277.118 270.065 277.682 270.065C278.242 270.065 278.697 270.131 279.046 270.262C279.397 270.394 279.654 270.56 279.819 270.761C279.984 270.96 280.099 271.212 280.165 271.518C280.202 271.706 280.221 272.048 280.221 272.542V274.025C280.221 275.06 280.244 275.714 280.292 275.989C280.339 276.261 280.434 276.524 280.575 276.776H279.412C279.297 276.545 279.223 276.275 279.19 275.967ZM279.098 273.481C278.693 273.646 278.087 273.787 277.28 273.903C276.823 273.968 276.499 274.043 276.31 274.126C276.121 274.208 275.975 274.328 275.871 274.486C275.768 274.644 275.716 274.82 275.716 275.014C275.716 275.31 275.828 275.558 276.053 275.755C276.278 275.953 276.607 276.052 277.039 276.052C277.468 276.052 277.849 275.958 278.182 275.771C278.516 275.584 278.761 275.328 278.918 275.002C279.038 274.75 279.098 274.38 279.098 273.891V273.481Z" fill="black"/>
<path d="M284.374 275.781L284.534 276.763C284.221 276.829 283.941 276.862 283.693 276.862C283.29 276.862 282.977 276.798 282.754 276.671C282.533 276.543 282.377 276.375 282.286 276.166C282.195 275.958 282.149 275.52 282.149 274.853V271.079H281.334V270.213H282.149V268.587L283.254 267.921V270.213H284.374V271.079H283.254V274.915C283.254 275.232 283.274 275.437 283.314 275.528C283.353 275.617 283.417 275.689 283.506 275.743C283.594 275.797 283.72 275.824 283.885 275.824C284.009 275.824 284.172 275.81 284.374 275.781Z" fill="black"/>
<path d="M289.954 274.662L291.103 274.804C290.922 275.475 290.587 275.996 290.096 276.368C289.606 276.739 288.98 276.924 288.218 276.924C287.258 276.924 286.497 276.629 285.934 276.038C285.371 275.446 285.09 274.617 285.09 273.551C285.09 272.446 285.374 271.589 285.942 270.98C286.512 270.37 287.249 270.065 288.155 270.065C289.033 270.065 289.75 270.363 290.306 270.96C290.862 271.557 291.14 272.398 291.14 273.481C291.14 273.547 291.138 273.646 291.134 273.778H286.241C286.281 274.499 286.485 275.051 286.852 275.435C287.218 275.817 287.675 276.008 288.224 276.008C288.631 276.008 288.979 275.902 289.268 275.688C289.557 275.473 289.785 275.131 289.954 274.662ZM286.302 272.864H289.966C289.917 272.312 289.777 271.898 289.547 271.623C289.192 271.194 288.733 270.98 288.168 270.98C287.657 270.98 287.227 271.151 286.879 271.492C286.531 271.834 286.339 272.291 286.302 272.864Z" fill="black"/>
<path d="M331.721 274.019L332.85 273.92C332.905 274.374 333.029 274.746 333.224 275.036C333.421 275.326 333.724 275.56 334.136 275.739C334.548 275.919 335.012 276.008 335.528 276.008C335.984 276.008 336.387 275.94 336.738 275.805C337.088 275.669 337.349 275.483 337.519 275.247C337.69 275.01 337.776 274.751 337.776 274.47C337.776 274.187 337.693 273.939 337.529 273.727C337.364 273.514 337.092 273.336 336.714 273.191C336.47 273.096 335.932 272.949 335.101 272.75C334.269 272.549 333.686 272.361 333.353 272.184C332.919 271.958 332.596 271.677 332.384 271.342C332.173 271.006 332.067 270.629 332.067 270.213C332.067 269.756 332.197 269.328 332.455 268.932C332.715 268.534 333.094 268.232 333.592 268.026C334.092 267.82 334.646 267.718 335.255 267.718C335.926 267.718 336.518 267.826 337.03 268.042C337.545 268.258 337.939 268.576 338.215 268.997C338.49 269.416 338.639 269.891 338.66 270.423L337.511 270.51C337.449 269.937 337.239 269.505 336.882 269.212C336.526 268.92 336 268.773 335.304 268.773C334.579 268.773 334.051 268.907 333.718 269.173C333.388 269.438 333.222 269.757 333.222 270.132C333.222 270.457 333.34 270.726 333.574 270.937C333.805 271.146 334.407 271.361 335.381 271.581C336.356 271.801 337.024 271.994 337.386 272.159C337.914 272.402 338.302 272.711 338.553 273.084C338.805 273.456 338.931 273.885 338.931 274.371C338.931 274.854 338.793 275.308 338.517 275.735C338.242 276.161 337.845 276.493 337.327 276.73C336.81 276.966 336.229 277.084 335.583 277.084C334.763 277.084 334.076 276.965 333.521 276.726C332.967 276.488 332.533 276.128 332.218 275.648C331.903 275.167 331.737 274.624 331.721 274.019Z" fill="black"/>
<path d="M342.855 275.935L343.015 276.918C342.703 276.984 342.423 277.017 342.175 277.017C341.771 277.017 341.458 276.953 341.236 276.825C341.014 276.697 340.858 276.529 340.767 276.321C340.676 276.112 340.631 275.675 340.631 275.008V271.233H339.816V270.367H340.631V268.742L341.736 268.075V270.367H342.855V271.233H341.736V275.069C341.736 275.387 341.756 275.591 341.795 275.682C341.835 275.772 341.899 275.843 341.987 275.897C342.075 275.952 342.202 275.979 342.367 275.979C342.491 275.979 342.653 275.964 342.855 275.935Z" fill="black"/>
<path d="M343.931 276.929V270.367H344.931V271.361C345.187 270.896 345.423 270.59 345.639 270.442C345.855 270.293 346.093 270.219 346.353 270.219C346.727 270.219 347.108 270.338 347.496 270.576L347.112 271.609C346.841 271.448 346.569 271.367 346.298 271.367C346.054 271.367 345.835 271.441 345.641 271.587C345.447 271.733 345.31 271.936 345.228 272.196C345.104 272.591 345.042 273.024 345.042 273.493V276.929H343.931Z" fill="black"/>
<path d="M347.743 273.649C347.743 272.434 348.081 271.534 348.756 270.948C349.32 270.462 350.008 270.219 350.82 270.219C351.722 270.219 352.459 270.515 353.031 271.106C353.604 271.697 353.891 272.514 353.891 273.556C353.891 274.4 353.764 275.064 353.511 275.549C353.258 276.033 352.889 276.409 352.404 276.676C351.92 276.944 351.392 277.078 350.82 277.078C349.901 277.078 349.158 276.783 348.592 276.194C348.026 275.605 347.743 274.757 347.743 273.649ZM348.886 273.649C348.886 274.489 349.07 275.118 349.436 275.536C349.802 275.953 350.264 276.162 350.82 276.162C351.372 276.162 351.832 275.953 352.198 275.534C352.565 275.113 352.748 274.472 352.748 273.612C352.748 272.8 352.563 272.185 352.194 271.767C351.825 271.349 351.367 271.14 350.82 271.14C350.264 271.14 349.802 271.348 349.436 271.765C349.07 272.18 348.886 272.808 348.886 273.649Z" fill="black"/>
<path d="M355.195 276.929V270.367H356.195V271.3C356.678 270.579 357.374 270.219 358.283 270.219C358.679 270.219 359.043 270.29 359.375 270.432C359.707 270.574 359.955 270.761 360.12 270.992C360.285 271.222 360.4 271.496 360.466 271.812C360.507 272.019 360.528 272.38 360.528 272.894V276.929H359.414V272.937C359.414 272.484 359.371 272.145 359.284 271.921C359.198 271.697 359.045 271.518 358.825 271.385C358.605 271.251 358.347 271.183 358.05 271.183C357.575 271.183 357.166 271.334 356.822 271.634C356.478 271.935 356.306 272.505 356.306 273.345V276.929H355.195Z" fill="black"/>
<path d="M362.029 277.473L363.111 277.634C363.155 277.967 363.281 278.21 363.486 278.363C363.763 278.569 364.14 278.672 364.617 278.672C365.133 278.672 365.53 278.569 365.81 278.363C366.09 278.158 366.28 277.869 366.379 277.499C366.437 277.272 366.463 276.796 366.458 276.071C365.973 276.644 365.368 276.93 364.643 276.93C363.74 276.93 363.041 276.604 362.547 275.953C362.053 275.302 361.806 274.521 361.806 273.612C361.806 272.986 361.919 272.408 362.146 271.88C362.372 271.35 362.701 270.94 363.13 270.652C363.561 270.363 364.068 270.219 364.649 270.219C365.423 270.219 366.061 270.532 366.565 271.158V270.367H367.589V276.04C367.589 277.061 367.485 277.785 367.277 278.211C367.07 278.638 366.74 278.975 366.288 279.221C365.837 279.469 365.282 279.593 364.623 279.593C363.842 279.593 363.21 279.417 362.727 279.065C362.245 278.713 362.012 278.183 362.029 277.473ZM362.949 273.531C362.949 274.391 363.119 275.02 363.461 275.415C363.803 275.81 364.232 276.008 364.748 276.008C365.258 276.008 365.686 275.812 366.031 275.419C366.378 275.025 366.551 274.408 366.551 273.568C366.551 272.765 366.373 272.16 366.017 271.753C365.661 271.344 365.232 271.14 364.728 271.14C364.234 271.14 363.813 271.341 363.467 271.743C363.121 272.144 362.949 272.74 362.949 273.531Z" fill="black"/>
<path d="M406.215 276.775L402.706 267.717H404.003L406.358 274.298C406.548 274.825 406.707 275.319 406.834 275.781C406.974 275.286 407.137 274.792 407.323 274.298L409.769 267.717H410.993L407.445 276.775H406.215Z" fill="black"/>
<path d="M415.722 274.661L416.871 274.804C416.69 275.475 416.355 275.996 415.864 276.368C415.374 276.738 414.748 276.923 413.986 276.923C413.026 276.923 412.265 276.628 411.702 276.038C411.139 275.446 410.858 274.617 410.858 273.55C410.858 272.445 411.142 271.589 411.71 270.98C412.279 270.369 413.017 270.064 413.922 270.064C414.8 270.064 415.517 270.363 416.074 270.96C416.63 271.557 416.908 272.397 416.908 273.481C416.908 273.547 416.906 273.646 416.902 273.777H412.008C412.049 274.499 412.253 275.051 412.619 275.434C412.986 275.817 413.443 276.008 413.992 276.008C414.399 276.008 414.747 275.901 415.036 275.688C415.324 275.473 415.553 275.131 415.722 274.661ZM412.07 272.864H415.734C415.685 272.312 415.545 271.898 415.314 271.622C414.96 271.194 414.5 270.98 413.936 270.98C413.425 270.98 412.995 271.15 412.647 271.492C412.299 271.833 412.107 272.291 412.07 272.864Z" fill="black"/>
<path d="M418.256 276.775V270.213H419.256V271.207C419.512 270.742 419.748 270.435 419.964 270.288C420.18 270.139 420.418 270.064 420.678 270.064C421.052 270.064 421.433 270.184 421.821 270.422L421.437 271.454C421.166 271.293 420.894 271.213 420.622 271.213C420.379 271.213 420.16 271.286 419.966 271.433C419.772 271.579 419.634 271.782 419.553 272.042C419.429 272.437 419.367 272.869 419.367 273.339V276.775H418.256Z" fill="black"/>
<path d="M422.432 279.302L422.307 278.258C422.551 278.324 422.763 278.357 422.944 278.357C423.192 278.357 423.39 278.316 423.537 278.233C423.686 278.151 423.808 278.036 423.903 277.889C423.973 277.776 424.086 277.5 424.243 277.06C424.263 276.998 424.296 276.907 424.342 276.787L421.851 270.213H423.049L424.415 274.013C424.592 274.496 424.751 275.002 424.892 275.534C425.02 275.022 425.172 274.524 425.348 274.039L426.75 270.213H427.864L425.366 276.886C425.099 277.607 424.891 278.103 424.743 278.375C424.546 278.743 424.319 279.012 424.063 279.182C423.807 279.353 423.502 279.439 423.148 279.439C422.934 279.439 422.696 279.393 422.432 279.302Z" fill="black"/>
<path d="M431.88 274.816L432.979 274.644C433.041 275.084 433.213 275.421 433.495 275.656C433.777 275.891 434.172 276.008 434.679 276.008C435.19 276.008 435.568 275.904 435.814 275.697C436.062 275.489 436.186 275.245 436.186 274.964C436.186 274.713 436.077 274.516 435.858 274.371C435.706 274.272 435.327 274.147 434.721 273.995C433.906 273.788 433.342 273.609 433.026 273.459C432.711 273.309 432.472 273.101 432.309 272.836C432.147 272.57 432.066 272.276 432.066 271.954C432.066 271.663 432.132 271.393 432.265 271.144C432.4 270.893 432.582 270.686 432.813 270.521C432.986 270.394 433.221 270.287 433.519 270.199C433.818 270.109 434.139 270.064 434.482 270.064C434.996 270.064 435.447 270.139 435.836 270.288C436.226 270.435 436.514 270.636 436.698 270.891C436.884 271.144 437.012 271.482 437.082 271.905L435.994 272.053C435.946 271.716 435.803 271.453 435.565 271.264C435.328 271.075 434.993 270.98 434.561 270.98C434.051 270.98 433.686 271.064 433.467 271.233C433.249 271.401 433.139 271.599 433.139 271.826C433.139 271.97 433.185 272.099 433.276 272.215C433.367 272.334 433.509 272.433 433.703 272.512C433.813 272.553 434.141 272.647 434.685 272.795C435.472 273.006 436.021 273.178 436.331 273.313C436.642 273.446 436.885 273.64 437.062 273.896C437.24 274.151 437.329 274.468 437.329 274.847C437.329 275.218 437.221 275.567 437.005 275.895C436.789 276.222 436.476 276.475 436.068 276.654C435.66 276.834 435.199 276.923 434.685 276.923C433.833 276.923 433.183 276.746 432.736 276.391C432.289 276.037 432.004 275.512 431.88 274.816Z" fill="black"/>
<path d="M441.08 275.781L441.24 276.763C440.928 276.829 440.648 276.862 440.4 276.862C439.997 276.862 439.683 276.798 439.461 276.671C439.239 276.543 439.083 276.375 438.992 276.166C438.901 275.958 438.856 275.52 438.856 274.853V271.079H438.041V270.213H438.856V268.587L439.961 267.921V270.213H441.08V271.079H439.961V274.915C439.961 275.232 439.981 275.437 440.02 275.528C440.06 275.617 440.124 275.689 440.212 275.743C440.3 275.797 440.427 275.824 440.592 275.824C440.716 275.824 440.878 275.81 441.08 275.781Z" fill="black"/>
<path d="M442.156 276.775V270.213H443.156V271.207C443.412 270.742 443.648 270.435 443.864 270.288C444.08 270.139 444.318 270.064 444.578 270.064C444.952 270.064 445.333 270.184 445.721 270.422L445.337 271.454C445.066 271.293 444.794 271.213 444.523 271.213C444.279 271.213 444.06 271.286 443.866 271.433C443.672 271.579 443.535 271.782 443.453 272.042C443.329 272.437 443.267 272.869 443.267 273.339V276.775H442.156Z" fill="black"/>
<path d="M445.969 273.495C445.969 272.279 446.306 271.379 446.981 270.794C447.545 270.307 448.233 270.064 449.045 270.064C449.947 270.064 450.684 270.36 451.256 270.952C451.829 271.542 452.116 272.359 452.116 273.402C452.116 274.245 451.99 274.91 451.736 275.395C451.483 275.879 451.114 276.254 450.629 276.522C450.145 276.79 449.617 276.923 449.045 276.923C448.127 276.923 447.384 276.629 446.817 276.039C446.252 275.45 445.969 274.602 445.969 273.495ZM447.112 273.495C447.112 274.334 447.295 274.963 447.661 275.381C448.028 275.799 448.489 276.008 449.045 276.008C449.598 276.008 450.057 275.798 450.424 275.379C450.79 274.959 450.973 274.318 450.973 273.457C450.973 272.645 450.789 272.03 450.42 271.612C450.051 271.194 449.592 270.986 449.045 270.986C448.489 270.986 448.028 271.194 447.661 271.61C447.295 272.026 447.112 272.654 447.112 273.495Z" fill="black"/>
<path d="M453.42 276.775V270.213H454.42V271.146C454.903 270.425 455.599 270.064 456.508 270.064C456.904 270.064 457.267 270.135 457.6 270.278C457.932 270.42 458.18 270.607 458.345 270.837C458.51 271.068 458.625 271.342 458.691 271.658C458.732 271.865 458.752 272.225 458.752 272.74V276.775H457.639V272.783C457.639 272.33 457.596 271.991 457.509 271.767C457.423 271.543 457.27 271.364 457.05 271.231C456.83 271.096 456.571 271.029 456.275 271.029C455.8 271.029 455.391 271.179 455.047 271.48C454.703 271.781 454.531 272.351 454.531 273.19V276.775H453.42Z" fill="black"/>
<path d="M460.254 277.319L461.336 277.479C461.38 277.813 461.506 278.056 461.711 278.209C461.988 278.414 462.365 278.517 462.842 278.517C463.358 278.517 463.755 278.414 464.035 278.209C464.315 278.003 464.505 277.715 464.604 277.345C464.662 277.118 464.688 276.642 464.683 275.917C464.198 276.489 463.593 276.775 462.868 276.775C461.965 276.775 461.266 276.45 460.772 275.799C460.278 275.147 460.031 274.367 460.031 273.457C460.031 272.831 460.144 272.254 460.371 271.725C460.597 271.195 460.926 270.786 461.355 270.497C461.786 270.209 462.293 270.064 462.874 270.064C463.648 270.064 464.286 270.377 464.79 271.004V270.213H465.814V275.886C465.814 276.907 465.71 277.631 465.502 278.057C465.295 278.484 464.965 278.82 464.513 279.067C464.062 279.315 463.507 279.439 462.848 279.439C462.066 279.439 461.434 279.263 460.952 278.911C460.469 278.559 460.237 278.028 460.254 277.319ZM461.173 273.376C461.173 274.237 461.344 274.865 461.686 275.261C462.028 275.656 462.457 275.854 462.973 275.854C463.483 275.854 463.911 275.657 464.256 275.265C464.603 274.871 464.776 274.254 464.776 273.414C464.776 272.611 464.598 272.006 464.242 271.599C463.886 271.19 463.456 270.986 462.953 270.986C462.459 270.986 462.038 271.187 461.691 271.589C461.346 271.99 461.173 272.585 461.173 273.376Z" fill="black"/>
<path d="M42.7666 262.181H47.5121Z" fill="black"/>
<path d="M42.7666 262.181H47.5121" stroke="black" stroke-width="0.666667"/>
<path d="M20.0396 262.228C20.0396 261.156 20.1496 260.294 20.3698 259.641C20.5899 258.988 20.9168 258.484 21.3505 258.131C21.7855 257.776 22.3325 257.599 22.9916 257.599C23.478 257.599 23.9045 257.697 24.2709 257.894C24.6374 258.089 24.9399 258.371 25.1785 258.74C25.4184 259.108 25.6063 259.556 25.742 260.086C25.8778 260.615 25.9457 261.329 25.9457 262.228C25.9457 263.29 25.8363 264.148 25.6175 264.8C25.4 265.453 25.0737 265.958 24.6387 266.315C24.205 266.671 23.656 266.849 22.9916 266.849C22.119 266.849 21.4335 266.536 20.9353 265.909C20.3381 265.155 20.0396 263.928 20.0396 262.228ZM21.1824 262.228C21.1824 263.715 21.3564 264.705 21.7044 265.198C22.0524 265.689 22.4815 265.935 22.9916 265.935C23.5031 265.935 23.9328 265.688 24.2808 265.194C24.6288 264.699 24.8028 263.711 24.8028 262.228C24.8028 260.736 24.6288 259.745 24.2808 259.256C23.9328 258.765 23.4991 258.52 22.9798 258.52C22.4696 258.52 22.0617 258.736 21.7558 259.169C21.3736 259.72 21.1824 260.739 21.1824 262.228Z" fill="black"/>
<path d="M27.7004 266.695V265.427H28.9679V266.695H27.7004Z" fill="black"/>
<path d="M30.5933 262.228C30.5933 261.156 30.7033 260.294 30.9235 259.641C31.1436 258.988 31.4705 258.484 31.9042 258.131C32.3392 257.776 32.8863 257.599 33.5453 257.599C34.0318 257.599 34.4582 257.697 34.8246 257.894C35.1911 258.089 35.4936 258.371 35.7322 258.74C35.9721 259.108 36.16 259.556 36.2957 260.086C36.4315 260.615 36.4994 261.329 36.4994 262.228C36.4994 263.29 36.39 264.148 36.1712 264.8C35.9537 265.453 35.6274 265.958 35.1924 266.315C34.7587 266.671 34.2097 266.849 33.5453 266.849C32.6727 266.849 31.9872 266.536 31.489 265.909C30.8918 265.155 30.5933 263.928 30.5933 262.228ZM31.7361 262.228C31.7361 263.715 31.9101 264.705 32.2581 265.198C32.6061 265.689 33.0352 265.935 33.5453 265.935C34.0568 265.935 34.4865 265.688 34.8345 265.194C35.1825 264.699 35.3565 263.711 35.3565 262.228C35.3565 260.736 35.1825 259.745 34.8345 259.256C34.4865 258.765 34.0528 258.52 33.5335 258.52C33.0233 258.52 32.6154 258.736 32.3095 259.169C31.9273 259.72 31.7361 260.739 31.7361 262.228Z" fill="black"/>
<path d="M42.7666 209.979H47.5121Z" fill="black"/>
<path d="M42.7666 209.979H47.5121" stroke="black" stroke-width="0.666667"/>
<path d="M20.0396 210.025C20.0396 208.953 20.1496 208.091 20.3698 207.439C20.5899 206.785 20.9168 206.281 21.3505 205.928C21.7855 205.574 22.3325 205.396 22.9916 205.396C23.478 205.396 23.9045 205.494 24.2709 205.691C24.6374 205.886 24.9399 206.168 25.1785 206.537C25.4184 206.905 25.6063 207.354 25.742 207.884C25.8778 208.412 25.9457 209.126 25.9457 210.025C25.9457 211.088 25.8363 211.945 25.6175 212.598C25.4 213.25 25.0737 213.755 24.6387 214.112C24.205 214.468 23.656 214.646 22.9916 214.646C22.119 214.646 21.4335 214.333 20.9353 213.707C20.3381 212.953 20.0396 211.726 20.0396 210.025ZM21.1824 210.025C21.1824 211.512 21.3564 212.502 21.7044 212.995C22.0524 213.487 22.4815 213.732 22.9916 213.732C23.5031 213.732 23.9328 213.485 24.2808 212.991C24.6288 212.497 24.8028 211.508 24.8028 210.025C24.8028 208.533 24.6288 207.542 24.2808 207.053C23.9328 206.563 23.4991 206.318 22.9798 206.318C22.4696 206.318 22.0617 206.534 21.7558 206.966C21.3736 207.517 21.1824 208.537 21.1824 210.025Z" fill="black"/>
<path d="M27.7004 214.492V213.225H28.9679V214.492H27.7004Z" fill="black"/>
<path d="M36.4383 213.422V214.492H30.4511C30.4432 214.224 30.4861 213.967 30.5796 213.719C30.7326 213.312 30.9764 212.91 31.3112 212.515C31.6474 212.119 32.1331 211.662 32.7685 211.142C33.7532 210.336 34.4182 209.696 34.7636 209.224C35.1103 208.753 35.2836 208.306 35.2836 207.886C35.2836 207.446 35.1254 207.074 34.8091 206.773C34.494 206.469 34.0834 206.318 33.5772 206.318C33.042 206.318 32.6136 206.479 32.292 206.8C31.9703 207.121 31.8075 207.565 31.8036 208.133L30.6607 208.016C30.7385 207.163 31.0324 206.514 31.5426 206.067C32.054 205.62 32.7408 205.396 33.6029 205.396C34.4716 205.396 35.159 205.638 35.6652 206.12C36.1727 206.601 36.4265 207.198 36.4265 207.912C36.4265 208.274 36.352 208.631 36.203 208.981C36.0554 209.331 35.8096 209.699 35.4655 210.087C35.1215 210.474 34.55 211.005 33.7512 211.68C33.0829 212.24 32.6538 212.621 32.464 212.821C32.2755 213.02 32.1193 213.221 31.9954 213.422H36.4383Z" fill="black"/>
<path d="M42.7666 157.776H47.5121Z" fill="black"/>
<path d="M42.7666 157.776H47.5121" stroke="black" stroke-width="0.666667"/>
<path d="M20.0396 157.823C20.0396 156.751 20.1496 155.889 20.3698 155.236C20.5899 154.583 20.9168 154.079 21.3505 153.726C21.7855 153.371 22.3325 153.194 22.9916 153.194C23.478 153.194 23.9045 153.292 24.2709 153.488C24.6374 153.684 24.9399 153.966 25.1785 154.335C25.4184 154.703 25.6063 155.151 25.742 155.681C25.8778 156.21 25.9457 156.924 25.9457 157.823C25.9457 158.885 25.8363 159.743 25.6175 160.395C25.4 161.048 25.0737 161.553 24.6387 161.91C24.205 162.266 23.656 162.444 22.9916 162.444C22.119 162.444 21.4335 162.131 20.9353 161.504C20.3381 160.75 20.0396 159.523 20.0396 157.823ZM21.1824 157.823C21.1824 159.31 21.3564 160.3 21.7044 160.793C22.0524 161.284 22.4815 161.53 22.9916 161.53C23.5031 161.53 23.9328 161.283 24.2808 160.789C24.6288 160.294 24.8028 159.306 24.8028 157.823C24.8028 156.33 24.6288 155.34 24.2808 154.851C23.9328 154.36 23.4991 154.115 22.9798 154.115C22.4696 154.115 22.0617 154.331 21.7558 154.764C21.3736 155.315 21.1824 156.334 21.1824 157.823Z" fill="black"/>
<path d="M27.7004 162.289V161.022H28.9679V162.289H27.7004Z" fill="black"/>
<path d="M34.1584 162.289V160.12H30.2275V159.1L34.362 153.231H35.2696V159.1H36.4936V160.12H35.2696V162.289H34.1584ZM34.1584 159.1V155.017L31.321 159.1H34.1584Z" fill="black"/>
<path d="M42.7666 105.574H47.5121Z" fill="black"/>
<path d="M42.7666 105.574H47.5121" stroke="black" stroke-width="0.666667"/>
<path d="M20.0396 105.62C20.0396 104.549 20.1496 103.687 20.3698 103.034C20.5899 102.38 20.9168 101.877 21.3505 101.523C21.7855 101.169 22.3325 100.991 22.9916 100.991C23.478 100.991 23.9045 101.09 24.2709 101.286C24.6374 101.481 24.9399 101.763 25.1785 102.132C25.4184 102.5 25.6063 102.949 25.742 103.479C25.8778 104.007 25.9457 104.721 25.9457 105.62C25.9457 106.683 25.8363 107.54 25.6175 108.193C25.4 108.845 25.0737 109.35 24.6387 109.707C24.205 110.063 23.656 110.241 22.9916 110.241C22.119 110.241 21.4335 109.928 20.9353 109.302C20.3381 108.548 20.0396 107.321 20.0396 105.62ZM21.1824 105.62C21.1824 107.107 21.3564 108.097 21.7044 108.59C22.0524 109.082 22.4815 109.328 22.9916 109.328C23.5031 109.328 23.9328 109.081 24.2808 108.586C24.6288 108.092 24.8028 107.103 24.8028 105.62C24.8028 104.128 24.6288 103.137 24.2808 102.648C23.9328 102.158 23.4991 101.913 22.9798 101.913C22.4696 101.913 22.0617 102.129 21.7558 102.561C21.3736 103.112 21.1824 104.132 21.1824 105.62Z" fill="black"/>
<path d="M27.7004 110.087V108.82H28.9679V110.087H27.7004Z" fill="black"/>
<path d="M36.3631 103.248L35.2578 103.333C35.1589 102.896 35.0192 102.579 34.8386 102.382C34.5367 102.064 34.1657 101.905 33.7254 101.905C33.3708 101.905 33.0597 102.004 32.7921 102.202C32.4428 102.457 32.1666 102.83 31.9636 103.321C31.762 103.811 31.6572 104.509 31.6492 105.415C31.9168 105.007 32.2444 104.705 32.632 104.507C33.0195 104.309 33.4255 104.21 33.85 104.21C34.5908 104.21 35.2215 104.483 35.7422 105.029C36.2642 105.575 36.5252 106.28 36.5252 107.145C36.5252 107.714 36.4026 108.243 36.1575 108.731C35.9123 109.218 35.5755 109.592 35.1471 109.852C34.7187 110.111 34.2322 110.241 33.6878 110.241C32.7611 110.241 32.0052 109.9 31.4199 109.219C30.8359 108.537 30.5439 107.414 30.5439 105.848C30.5439 104.097 30.8669 102.824 31.5128 102.03C32.077 101.338 32.8369 100.991 33.7926 100.991C34.5058 100.991 35.0897 101.191 35.5445 101.591C36.0006 101.99 36.2735 102.542 36.3631 103.248ZM31.8232 107.153C31.8232 107.535 31.9043 107.901 32.0665 108.252C32.2286 108.601 32.456 108.868 32.7486 109.053C33.0413 109.236 33.3484 109.328 33.67 109.328C34.1393 109.328 34.5427 109.139 34.8801 108.76C35.2189 108.381 35.3883 107.865 35.3883 107.214C35.3883 106.588 35.2209 106.095 34.8861 105.735C34.5526 105.374 34.1327 105.193 33.6265 105.193C33.1243 105.193 32.6979 105.374 32.3472 105.735C31.9979 106.095 31.8232 106.567 31.8232 107.153Z" fill="black"/>
<path d="M42.7666 53.3716H47.5121Z" fill="black"/>
<path d="M42.7666 53.3716H47.5121" stroke="black" stroke-width="0.666667"/>
<path d="M20.0396 53.4181C20.0396 52.3465 20.1496 51.4844 20.3698 50.8319C20.5899 50.178 20.9168 49.6745 21.3505 49.3212C21.7855 48.9666 22.3325 48.7893 22.9916 48.7893C23.478 48.7893 23.9045 48.8875 24.2709 49.0839C24.6374 49.279 24.9399 49.5611 25.1785 49.9302C25.4184 50.298 25.6063 50.7468 25.742 51.2768C25.8778 51.8053 25.9457 52.5191 25.9457 53.4181C25.9457 54.4806 25.8363 55.3381 25.6175 55.9906C25.4 56.6431 25.0737 57.148 24.6387 57.5052C24.205 57.8611 23.656 58.0391 22.9916 58.0391C22.119 58.0391 21.4335 57.726 20.9353 57.0999C20.3381 56.3458 20.0396 55.1186 20.0396 53.4181ZM21.1824 53.4181C21.1824 54.9051 21.3564 55.895 21.7044 56.388C22.0524 56.8797 22.4815 57.1256 22.9916 57.1256C23.5031 57.1256 23.9328 56.8784 24.2808 56.3841C24.6288 55.8898 24.8028 54.9011 24.8028 53.4181C24.8028 51.926 24.6288 50.9353 24.2808 50.4463C23.9328 49.9559 23.4991 49.7107 22.9798 49.7107C22.4696 49.7107 22.0617 49.9269 21.7558 50.3593C21.3736 50.9103 21.1824 51.9299 21.1824 53.4181Z" fill="black"/>
<path d="M27.7004 57.8845V56.6171H28.9679V57.8845H27.7004Z" fill="black"/>
<path d="M32.3038 52.9733C31.8424 52.8032 31.5003 52.562 31.2776 52.2496C31.0561 51.9358 30.9454 51.5608 30.9454 51.1245C30.9454 50.4654 31.182 49.9118 31.6552 49.4636C32.1298 49.0141 32.7599 48.7893 33.5455 48.7893C34.3364 48.7893 34.9731 49.0194 35.4556 49.4794C35.938 49.9381 36.1793 50.497 36.1793 51.1561C36.1793 51.5766 36.0685 51.9424 35.8471 52.2535C35.6269 52.5633 35.2928 52.8032 34.8446 52.9733C35.4009 53.1539 35.824 53.4465 36.114 53.8512C36.404 54.2545 36.549 54.7363 36.549 55.2966C36.549 56.0703 36.2748 56.7209 35.7265 57.2481C35.1794 57.7754 34.459 58.0391 33.5653 58.0391C32.6716 58.0391 31.9505 57.7748 31.4021 57.2462C30.8538 56.7163 30.5796 56.0558 30.5796 55.2649C30.5796 54.6757 30.7292 54.1827 31.0284 53.7859C31.3277 53.3878 31.7528 53.1169 32.3038 52.9733ZM32.0823 51.0869C32.0823 51.5153 32.2201 51.866 32.4956 52.1388C32.7724 52.4104 33.1309 52.5462 33.5712 52.5462C33.9996 52.5462 34.3509 52.4117 34.6251 52.1428C34.8993 51.8726 35.0364 51.5417 35.0364 51.1502C35.0364 50.7416 34.8947 50.3982 34.6113 50.12C34.3292 49.8419 33.9785 49.7028 33.5594 49.7028C33.1349 49.7028 32.7823 49.8393 32.5015 50.1121C32.2221 50.3837 32.0823 50.7086 32.0823 51.0869ZM31.7244 55.2709C31.7244 55.5885 31.7996 55.8957 31.9498 56.1923C32.1001 56.4889 32.3236 56.7189 32.6201 56.8824C32.9167 57.0445 33.2357 57.1256 33.5772 57.1256C34.1084 57.1256 34.5467 56.9549 34.892 56.6134C35.2387 56.2707 35.4121 55.8357 35.4121 55.3084C35.4121 54.7732 35.2341 54.3303 34.8782 53.9797C34.5223 53.6291 34.0761 53.4537 33.5396 53.4537C33.0163 53.4537 32.5826 53.6271 32.2385 53.9738C31.8958 54.3191 31.7244 54.7515 31.7244 55.2709Z" fill="black"/>
<path d="M10.1902 164.229H3.56371e-06V160.719C3.56371e-06 159.927 0.0481999 159.322 0.144592 158.904C0.279542 158.321 0.522748 157.824 0.87421 157.412C1.32948 156.873 1.9108 156.471 2.61818 156.206C3.32407 155.939 4.1308 155.806 5.03837 155.806C5.81248 155.806 6.49835 155.896 7.09598 156.077C7.69362 156.256 8.18893 156.488 8.58191 156.771C8.97341 157.054 9.28187 157.364 9.50728 157.701C9.73121 158.036 9.90101 158.441 10.0167 158.915C10.1323 159.39 10.1902 159.936 10.1902 160.552V164.229ZM8.98676 162.881V160.706C8.98676 160.034 8.92448 159.507 8.79991 159.124C8.67534 158.742 8.49887 158.437 8.27049 158.21C7.95165 157.89 7.52233 157.641 6.98254 157.463C6.44274 157.285 5.78801 157.196 5.01835 157.196C3.9521 157.196 3.13276 157.371 2.56034 157.721C1.98792 158.071 1.60457 158.496 1.4103 158.995C1.2709 159.357 1.2012 159.939 1.2012 160.739V162.881H8.98676Z" fill="black"/>
<path d="M7.81217 149.055L7.97233 147.762C8.72716 147.965 9.31367 148.343 9.73186 148.895C10.1486 149.446 10.3569 150.151 10.3569 151.008C10.3569 152.087 10.0247 152.944 9.36038 153.577C8.69453 154.21 7.76175 154.527 6.56203 154.527C5.31931 154.527 4.35538 154.207 3.67025 153.568C2.98364 152.927 2.64033 152.098 2.64033 151.079C2.64033 150.091 2.97623 149.285 3.64801 148.659C4.31979 148.033 5.26518 147.72 6.48418 147.72C6.55832 147.72 6.66955 147.722 6.81784 147.727V153.232C7.62902 153.186 8.25038 152.957 8.68193 152.545C9.11199 152.133 9.32702 151.618 9.32702 151.001C9.32702 150.543 9.2069 150.151 8.96666 149.827C8.72493 149.502 8.3401 149.245 7.81217 149.055ZM5.79015 153.163V149.041C5.16879 149.096 4.70314 149.253 4.3932 149.513C3.91123 149.912 3.67025 150.429 3.67025 151.063C3.67025 151.639 3.8623 152.122 4.24638 152.514C4.63047 152.905 5.14506 153.122 5.79015 153.163Z" fill="black"/>
<path d="M10.1902 146.191H2.80725V145.065H3.85719C3.04601 144.523 2.64042 143.74 2.64042 142.716C2.64042 142.271 2.7205 141.862 2.88066 141.488C3.04082 141.115 3.25066 140.835 3.51018 140.65C3.7697 140.464 4.07741 140.335 4.43332 140.261C4.66615 140.215 5.07174 140.192 5.65009 140.192H10.1902V141.444H5.69903C5.18889 141.444 4.80777 141.493 4.55567 141.591C4.30356 141.687 4.10262 141.859 3.95284 142.107C3.80158 142.354 3.72595 142.645 3.72595 142.979C3.72595 143.513 3.89501 143.973 4.23312 144.36C4.57124 144.747 5.21262 144.941 6.15727 144.941H10.1902V146.191Z" fill="black"/>
<path d="M7.98568 138.774L7.79215 137.537C8.28746 137.467 8.6671 137.274 8.93106 136.957C9.19503 136.639 9.32702 136.195 9.32702 135.624C9.32702 135.05 9.2106 134.625 8.97778 134.347C8.74347 134.068 8.46838 133.929 8.15251 133.929C7.87075 133.929 7.6483 134.052 7.48518 134.298C7.37395 134.469 7.23307 134.895 7.06253 135.577C6.82971 136.494 6.62876 137.129 6.45971 137.484C6.29065 137.838 6.05708 138.107 5.75901 138.291C5.45945 138.474 5.12875 138.565 4.7669 138.565C4.43917 138.565 4.13516 138.49 3.85488 138.34C3.57312 138.189 3.33955 137.984 3.15418 137.724C3.01182 137.53 2.89096 137.265 2.7916 136.93C2.69076 136.593 2.64033 136.232 2.64033 135.847C2.64033 135.268 2.72412 134.76 2.8917 134.323C3.05779 133.884 3.28394 133.561 3.57015 133.353C3.85488 133.144 4.23526 133 4.71129 132.921L4.87813 134.145C4.49849 134.2 4.20264 134.361 3.99057 134.628C3.77703 134.894 3.67025 135.271 3.67025 135.758C3.67025 136.331 3.76516 136.742 3.95498 136.988C4.1448 137.234 4.36725 137.357 4.62231 137.357C4.78396 137.357 4.93003 137.306 5.06053 137.203C5.194 137.101 5.30522 136.941 5.3942 136.723C5.44017 136.598 5.5462 136.23 5.71229 135.617C5.94957 134.732 6.14383 134.115 6.2951 133.767C6.44488 133.417 6.66361 133.142 6.95131 132.944C7.23752 132.743 7.59417 132.643 8.02127 132.643C8.43798 132.643 8.83096 132.765 9.20022 133.008C9.568 133.251 9.85273 133.603 10.0544 134.063C10.2561 134.521 10.3569 135.039 10.3569 135.617C10.3569 136.577 10.1575 137.308 9.75856 137.811C9.35964 138.313 8.76868 138.635 7.98568 138.774Z" fill="black"/>
<path d="M1.43922 131.148H3.56371e-06V129.896H1.43922V131.148ZM10.1902 131.148H2.80725V129.896H10.1902V131.148Z" fill="black"/>
<path d="M9.07131 125.26L10.1769 125.08C10.251 125.432 10.2881 125.747 10.2881 126.026C10.2881 126.479 10.2162 126.832 10.0723 127.082C9.92847 127.331 9.73939 127.507 9.50508 127.609C9.27077 127.712 8.77843 127.763 8.02805 127.763H3.78159V128.679H2.80728V127.763H0.978785L0.229147 126.52H2.80728V125.26H3.78159V126.52H8.09701C8.4544 126.52 8.68426 126.497 8.78659 126.453C8.88743 126.408 8.96825 126.336 9.02905 126.237C9.08985 126.138 9.12025 125.995 9.12025 125.81C9.12025 125.671 9.10394 125.487 9.07131 125.26Z" fill="black"/>
<path d="M13.033 124.093L11.8585 124.233C11.9327 123.958 11.9698 123.72 11.9698 123.516C11.9698 123.238 11.923 123.015 11.8296 122.849C11.7377 122.682 11.6087 122.544 11.4426 122.438C11.3165 122.359 11.0058 122.231 10.5105 122.055C10.4408 122.033 10.3385 121.996 10.2035 121.944L2.80726 124.747V123.399L7.08265 121.861C7.62541 121.663 8.19561 121.484 8.79324 121.325C8.21786 121.182 7.65729 121.01 7.11156 120.812L2.80726 119.234V117.982L10.3148 120.792C11.1259 121.093 11.6843 121.326 11.9898 121.492C12.4035 121.715 12.706 121.97 12.8973 122.257C13.0901 122.545 13.1865 122.888 13.1865 123.287C13.1865 123.528 13.1354 123.796 13.033 124.093Z" fill="black"/>
<path d="M42.7666 262.181V21.0063" stroke="black" stroke-width="0.666667" stroke-linecap="square"/>
<path d="M42.7666 262.181H487.098" stroke="black" stroke-width="0.666667" stroke-linecap="square"/>
<path d="M72.5818 220.724L73.693 220.576C73.8209 221.206 74.0384 221.66 74.3455 221.939C74.6527 222.217 75.0264 222.356 75.4666 222.356C75.99 222.356 76.4316 222.174 76.7914 221.812C77.1526 221.449 77.3332 221 77.3332 220.463C77.3332 219.953 77.1665 219.533 76.8329 219.202C76.4994 218.87 76.075 218.704 75.5596 218.704C75.35 218.704 75.0883 218.745 74.7746 218.826L74.8992 217.849C74.973 217.859 75.0323 217.863 75.0771 217.863C75.5517 217.863 75.9781 217.74 76.3564 217.494C76.7361 217.246 76.9259 216.864 76.9259 216.349C76.9259 215.941 76.7875 215.604 76.5107 215.336C76.2351 215.067 75.8792 214.933 75.4429 214.933C75.0106 214.933 74.65 215.069 74.3613 215.342C74.0727 215.614 73.8875 216.021 73.8057 216.564L72.6925 216.367C72.8283 215.622 73.1367 215.044 73.6179 214.634C74.1003 214.224 74.7001 214.019 75.4172 214.019C75.9115 214.019 76.3663 214.126 76.7815 214.338C77.1981 214.55 77.5164 214.839 77.7366 215.206C77.958 215.572 78.0688 215.962 78.0688 216.374C78.0688 216.765 77.9633 217.121 77.7524 217.442C77.5428 217.764 77.2324 218.02 76.8211 218.209C77.3563 218.332 77.7722 218.588 78.0688 218.979C78.3653 219.367 78.5136 219.854 78.5136 220.44C78.5136 221.231 78.225 221.901 77.6476 222.451C77.0715 223 76.3426 223.275 75.4607 223.275C74.6658 223.275 74.0054 223.039 73.4795 222.565C72.9548 222.091 72.6556 221.477 72.5818 220.724Z" fill="black"/>
<path d="M79.687 215.243V214.174H85.5516V215.04C84.9743 215.653 84.4022 216.468 83.8354 217.486C83.2699 218.503 82.8329 219.55 82.5244 220.626C82.3016 221.384 82.1593 222.213 82.0973 223.115H80.9545C80.9663 222.402 81.106 221.541 81.3736 220.533C81.6412 219.523 82.0255 218.549 82.5264 217.612C83.0273 216.675 83.5599 215.885 84.124 215.243H79.687Z" fill="black"/>
<path d="M161.624 242.167H160.513V235.08C160.246 235.335 159.894 235.59 159.459 235.846C159.024 236.101 158.634 236.293 158.289 236.421V235.345C158.911 235.053 159.455 234.699 159.92 234.284C160.385 233.867 160.715 233.463 160.909 233.071H161.624V242.167Z" fill="black"/>
<path d="M164.548 234.295V233.226H170.412V234.092C169.835 234.705 169.263 235.52 168.696 236.538C168.131 237.555 167.694 238.602 167.385 239.678C167.162 240.436 167.02 241.265 166.958 242.167H165.815C165.827 241.454 165.967 240.593 166.234 239.585C166.502 238.575 166.886 237.601 167.387 236.664C167.888 235.727 168.421 234.937 168.985 234.295H164.548Z" fill="black"/>
<path d="M242.297 199.785L243.464 199.686C243.551 200.254 243.752 200.682 244.067 200.969C244.382 201.255 244.762 201.398 245.208 201.398C245.743 201.398 246.196 201.197 246.566 200.793C246.937 200.389 247.122 199.853 247.122 199.186C247.122 198.552 246.944 198.051 246.588 197.685C246.232 197.317 245.766 197.133 245.188 197.133C244.83 197.133 244.506 197.215 244.217 197.378C243.93 197.541 243.704 197.751 243.539 198.011L242.495 197.875L243.371 193.222H247.877V194.286H244.261L243.774 196.72C244.317 196.34 244.888 196.151 245.485 196.151C246.276 196.151 246.943 196.425 247.486 196.973C248.03 197.521 248.302 198.226 248.302 199.087C248.302 199.907 248.064 200.615 247.587 201.212C247.005 201.945 246.212 202.312 245.208 202.312C244.384 202.312 243.711 202.081 243.189 201.62C242.668 201.158 242.371 200.547 242.297 199.785Z" fill="black"/>
<path d="M249.501 200.064L250.571 199.965C250.661 200.467 250.833 200.831 251.089 201.058C251.345 201.285 251.672 201.398 252.072 201.398C252.413 201.398 252.712 201.32 252.969 201.163C253.228 201.006 253.439 200.797 253.604 200.536C253.769 200.274 253.907 199.921 254.017 199.476C254.129 199.031 254.185 198.577 254.185 198.116C254.185 198.067 254.184 197.993 254.18 197.895C253.957 198.248 253.653 198.535 253.268 198.757C252.883 198.977 252.466 199.087 252.016 199.087C251.266 199.087 250.632 198.815 250.112 198.272C249.594 197.728 249.335 197.011 249.335 196.121C249.335 195.202 249.606 194.463 250.148 193.902C250.69 193.342 251.368 193.062 252.182 193.062C252.772 193.062 253.31 193.221 253.798 193.539C254.287 193.855 254.658 194.307 254.911 194.895C255.164 195.482 255.291 196.331 255.291 197.444C255.291 198.601 255.165 199.522 254.913 200.208C254.663 200.893 254.289 201.415 253.792 201.774C253.296 202.132 252.715 202.312 252.048 202.312C251.339 202.312 250.76 202.115 250.31 201.723C249.862 201.328 249.592 200.775 249.501 200.064ZM254.055 196.066C254.055 195.426 253.885 194.919 253.545 194.545C253.206 194.171 252.797 193.983 252.319 193.983C251.825 193.983 251.394 194.185 251.028 194.588C250.661 194.992 250.478 195.515 250.478 196.158C250.478 196.735 250.652 197.203 251 197.564C251.348 197.924 251.777 198.104 252.287 198.104C252.803 198.104 253.226 197.924 253.557 197.564C253.889 197.203 254.055 196.704 254.055 196.066Z" fill="black"/>
<path d="M330.723 216.447V214.277H326.792V213.257L330.927 207.389H331.834V213.257H333.058V214.277H331.834V216.447H330.723ZM330.723 213.257V209.174L327.886 213.257H330.723Z" fill="black"/>
<path d="M337.761 216.447V214.277H333.83V213.257L337.965 207.389H338.872V213.257H340.096V214.277H338.872V216.447H337.761ZM337.761 213.257V209.174L334.924 213.257H337.761Z" fill="black"/>
<path d="M413.155 146.907H412.044V139.821C411.776 140.075 411.425 140.33 410.99 140.586C410.555 140.842 410.164 141.033 409.819 141.161V140.086C410.441 139.793 410.985 139.439 411.45 139.024C411.916 138.607 412.245 138.203 412.439 137.812H413.155V146.907Z" fill="black"/>
<path d="M419.26 146.907H418.148V139.821C417.881 140.075 417.529 140.33 417.094 140.586C416.659 140.842 416.269 141.033 415.924 141.161V140.086C416.546 139.793 417.09 139.439 417.555 139.024C418.02 138.607 418.35 138.203 418.544 137.812H419.26V146.907Z" fill="black"/>
<path d="M422.182 139.036V137.966H428.047V138.832C427.47 139.445 426.898 140.26 426.331 141.278C425.765 142.296 425.328 143.342 425.02 144.418C424.797 145.176 424.655 146.006 424.593 146.907H423.45C423.462 146.194 423.601 145.333 423.869 144.325C424.137 143.315 424.521 142.342 425.022 141.404C425.523 140.467 426.055 139.678 426.619 139.036H422.182Z" fill="black"/>
<path d="M106.533 23.7591C106.072 23.5891 105.73 23.3479 105.507 23.0355C105.285 22.7217 105.175 22.3467 105.175 21.9104C105.175 21.2513 105.411 20.6977 105.884 20.2495C106.359 19.8 106.989 19.5752 107.775 19.5752C108.566 19.5752 109.202 19.8052 109.685 20.2653C110.167 20.724 110.409 21.2829 110.409 21.942C110.409 22.3625 110.298 22.7283 110.076 23.0394C109.856 23.3492 109.522 23.5891 109.074 23.7591C109.63 23.9397 110.053 24.2324 110.343 24.6371C110.633 25.0404 110.778 25.5222 110.778 26.0825C110.778 26.8562 110.504 27.5068 109.956 28.034C109.409 28.5613 108.688 28.825 107.795 28.825C106.901 28.825 106.18 28.5607 105.631 28.0321C105.083 27.5021 104.809 26.8417 104.809 26.0508C104.809 25.4616 104.958 24.9686 105.258 24.5718C105.557 24.1737 105.982 23.9028 106.533 23.7591ZM106.312 21.8728C106.312 22.3012 106.449 22.6519 106.725 22.9247C107.002 23.1963 107.36 23.3321 107.8 23.3321C108.229 23.3321 108.58 23.1976 108.854 22.9287C109.129 22.6585 109.266 22.3276 109.266 21.9361C109.266 21.5275 109.124 21.1841 108.841 20.9059C108.558 20.6278 108.208 20.4887 107.789 20.4887C107.364 20.4887 107.012 20.6252 106.731 20.898C106.451 21.1696 106.312 21.4945 106.312 21.8728ZM105.954 26.0568C105.954 26.3744 106.029 26.6816 106.179 26.9782C106.329 27.2748 106.553 27.5048 106.849 27.6682C107.146 27.8304 107.465 27.9114 107.806 27.9114C108.338 27.9114 108.776 27.7407 109.121 27.3993C109.468 27.0566 109.641 26.6216 109.641 26.0943C109.641 25.5591 109.463 25.1162 109.107 24.7656C108.752 24.4149 108.305 24.2396 107.769 24.2396C107.246 24.2396 106.812 24.413 106.468 24.7597C106.125 25.105 105.954 25.5374 105.954 26.0568Z" fill="black"/>
<path d="M113.571 23.7591C113.11 23.5891 112.768 23.3479 112.545 23.0355C112.323 22.7217 112.213 22.3467 112.213 21.9104C112.213 21.2513 112.449 20.6977 112.923 20.2495C113.397 19.8 114.027 19.5752 114.813 19.5752C115.604 19.5752 116.24 19.8052 116.723 20.2653C117.205 20.724 117.447 21.2829 117.447 21.942C117.447 22.3625 117.336 22.7283 117.114 23.0394C116.894 23.3492 116.56 23.5891 116.112 23.7591C116.668 23.9397 117.091 24.2324 117.381 24.6371C117.671 25.0404 117.816 25.5222 117.816 26.0825C117.816 26.8562 117.542 27.5068 116.994 28.034C116.447 28.5613 115.726 28.825 114.833 28.825C113.939 28.825 113.218 28.5607 112.669 28.0321C112.121 27.5021 111.847 26.8417 111.847 26.0508C111.847 25.4616 111.997 24.9686 112.296 24.5718C112.595 24.1737 113.02 23.9028 113.571 23.7591ZM113.35 21.8728C113.35 22.3012 113.487 22.6519 113.763 22.9247C114.04 23.1963 114.398 23.3321 114.839 23.3321C115.267 23.3321 115.618 23.1976 115.892 22.9287C116.167 22.6585 116.304 22.3276 116.304 21.9361C116.304 21.5275 116.162 21.1841 115.879 20.9059C115.597 20.6278 115.246 20.4887 114.827 20.4887C114.402 20.4887 114.05 20.6252 113.769 20.898C113.489 21.1696 113.35 21.4945 113.35 21.8728ZM112.992 26.0568C112.992 26.3744 113.067 26.6816 113.217 26.9782C113.367 27.2748 113.591 27.5048 113.887 27.6682C114.184 27.8304 114.503 27.9114 114.844 27.9114C115.376 27.9114 115.814 27.7407 116.159 27.3993C116.506 27.0566 116.679 26.6216 116.679 26.0943C116.679 25.5591 116.501 25.1162 116.146 24.7656C115.79 24.4149 115.343 24.2396 114.807 24.2396C114.284 24.2396 113.85 24.413 113.506 24.7597C113.163 25.105 112.992 25.5374 112.992 26.0568Z" fill="black"/>
<path d="M194.912 232.568C194.451 232.398 194.109 232.157 193.886 231.845C193.665 231.531 193.554 231.156 193.554 230.72C193.554 230.061 193.791 229.507 194.264 229.059C194.738 228.609 195.369 228.385 196.154 228.385C196.945 228.385 197.582 228.615 198.064 229.075C198.547 229.533 198.788 230.092 198.788 230.751C198.788 231.172 198.677 231.538 198.456 231.849C198.236 232.159 197.901 232.398 197.453 232.568C198.01 232.749 198.433 233.042 198.723 233.446C199.013 233.85 199.158 234.332 199.158 234.892C199.158 235.666 198.883 236.316 198.335 236.843C197.788 237.371 197.068 237.634 196.174 237.634C195.28 237.634 194.559 237.37 194.011 236.841C193.462 236.311 193.188 235.651 193.188 234.86C193.188 234.271 193.338 233.778 193.637 233.381C193.936 232.983 194.361 232.712 194.912 232.568ZM194.691 230.682C194.691 231.111 194.829 231.461 195.104 231.734C195.381 232.006 195.74 232.141 196.18 232.141C196.608 232.141 196.96 232.007 197.234 231.738C197.508 231.468 197.645 231.137 197.645 230.745C197.645 230.337 197.503 229.993 197.22 229.715C196.938 229.437 196.587 229.298 196.168 229.298C195.744 229.298 195.391 229.434 195.11 229.707C194.831 229.979 194.691 230.304 194.691 230.682ZM194.333 234.866C194.333 235.184 194.408 235.491 194.558 235.787C194.709 236.084 194.932 236.314 195.229 236.478C195.525 236.64 195.844 236.721 196.186 236.721C196.717 236.721 197.155 236.55 197.501 236.209C197.847 235.866 198.021 235.431 198.021 234.904C198.021 234.368 197.843 233.926 197.487 233.575C197.131 233.224 196.685 233.049 196.148 233.049C195.625 233.049 195.191 233.222 194.847 233.569C194.504 233.914 194.333 234.347 194.333 234.866Z" fill="black"/>
<path d="M278.069 248.14L279.18 247.992C279.308 248.622 279.525 249.076 279.833 249.354C280.14 249.632 280.513 249.771 280.954 249.771C281.477 249.771 281.919 249.59 282.278 249.228C282.64 248.865 282.82 248.416 282.82 247.879C282.82 247.369 282.654 246.949 282.32 246.618C281.987 246.286 281.562 246.119 281.047 246.119C280.837 246.119 280.575 246.16 280.262 246.242L280.386 245.265C280.46 245.274 280.519 245.279 280.564 245.279C281.039 245.279 281.465 245.156 281.843 244.909C282.223 244.662 282.413 244.28 282.413 243.764C282.413 243.357 282.275 243.02 281.998 242.752C281.722 242.483 281.366 242.349 280.93 242.349C280.498 242.349 280.137 242.485 279.848 242.758C279.56 243.03 279.375 243.437 279.293 243.98L278.18 243.782C278.315 243.038 278.624 242.46 279.105 242.05C279.587 241.64 280.187 241.435 280.904 241.435C281.399 241.435 281.853 241.541 282.269 241.754C282.685 241.966 283.003 242.255 283.224 242.622C283.445 242.988 283.556 243.378 283.556 243.79C283.556 244.18 283.45 244.536 283.239 244.858C283.03 245.18 282.719 245.435 282.308 245.625C282.843 245.748 283.259 246.004 283.556 246.394C283.852 246.783 284.001 247.27 284.001 247.855C284.001 248.646 283.712 249.317 283.135 249.866C282.559 250.416 281.83 250.691 280.948 250.691C280.153 250.691 279.492 250.454 278.967 249.981C278.442 249.507 278.143 248.893 278.069 248.14Z" fill="black"/>
<path d="M367.112 255.751H366.001V248.664C365.733 248.919 365.382 249.174 364.947 249.43C364.512 249.685 364.121 249.877 363.776 250.005V248.929C364.398 248.637 364.942 248.283 365.407 247.868C365.873 247.451 366.202 247.047 366.396 246.655H367.112V255.751Z" fill="black"/>
<path d="M201.926 11.5154V0.192956H204.183L206.862 8.20837C207.109 8.95645 207.289 9.51585 207.403 9.88659C207.532 9.47466 207.732 8.86912 208.004 8.06996L210.715 0.192956H212.732V11.5154H211.288V2.03925L207.996 11.5154H206.644L203.369 1.87612V11.5154H201.926Z" fill="black"/>
<path d="M214.455 7.41492C214.455 5.89571 214.877 4.7703 215.721 4.03871C216.426 3.43069 217.286 3.12668 218.301 3.12668C219.428 3.12668 220.349 3.4966 221.064 4.23644C221.781 4.97462 222.14 5.99539 222.14 7.29875C222.14 8.35331 221.981 9.18377 221.665 9.79013C221.349 10.3949 220.887 10.8645 220.281 11.1989C219.676 11.5334 219.016 11.7007 218.301 11.7007C217.153 11.7007 216.224 11.3324 215.516 10.5959C214.809 9.85934 214.455 8.79902 214.455 7.41492ZM215.884 7.41492C215.884 8.46453 216.113 9.2505 216.571 9.77283C217.029 10.2952 217.606 10.5563 218.301 10.5563C218.992 10.5563 219.566 10.2943 220.024 9.77036C220.482 9.24473 220.711 8.44393 220.711 7.36796C220.711 6.35295 220.48 5.58428 220.019 5.06195C219.558 4.53962 218.985 4.27845 218.301 4.27845C217.606 4.27845 217.029 4.5388 216.571 5.05948C216.113 5.57852 215.884 6.36366 215.884 7.41492Z" fill="black"/>
<path d="M223.737 11.5154V0.192956H225.129V11.5154H223.737Z" fill="black"/>
<path d="M232.899 8.87317L234.335 9.05112C234.109 9.88982 233.69 10.5415 233.077 11.0062C232.464 11.4692 231.681 11.7007 230.729 11.7007C229.529 11.7007 228.578 11.3316 227.874 10.5934C227.171 9.85357 226.819 8.81714 226.819 7.48412C226.819 6.10332 227.174 5.03229 227.884 4.27104C228.596 3.50814 229.518 3.12668 230.65 3.12668C231.747 3.12668 232.644 3.4999 233.339 4.24632C234.034 4.99275 234.382 6.04318 234.382 7.39762C234.382 7.48001 234.379 7.60359 234.375 7.76836H228.257C228.308 8.66967 228.563 9.36007 229.021 9.83956C229.479 10.3174 230.051 10.5563 230.736 10.5563C231.245 10.5563 231.68 10.4229 232.041 10.1559C232.402 9.88735 232.688 9.45976 232.899 8.87317ZM228.334 6.62648H232.914C232.853 5.93608 232.678 5.41869 232.39 5.07431C231.947 4.5388 231.372 4.27104 230.667 4.27104C230.028 4.27104 229.491 4.48442 229.056 4.91118C228.621 5.33795 228.38 5.90971 228.334 6.62648Z" fill="black"/>
<path d="M241.434 8.50984L242.801 8.6878C242.651 9.6303 242.268 10.3685 241.652 10.9024C241.037 11.4346 240.282 11.7007 239.385 11.7007C238.263 11.7007 237.361 11.3341 236.679 10.6008C235.997 9.86593 235.656 8.81385 235.656 7.44458C235.656 6.55974 235.802 5.78531 236.095 5.12127C236.389 4.45558 236.835 3.95714 237.435 3.62595C238.035 3.29311 238.688 3.12668 239.395 3.12668C240.285 3.12668 241.013 3.35242 241.58 3.8039C242.147 4.25374 242.51 4.89306 242.67 5.72187L241.318 5.93196C241.189 5.37996 240.961 4.96556 240.633 4.68874C240.307 4.41027 239.912 4.27104 239.447 4.27104C238.747 4.27104 238.177 4.52232 237.739 5.02488C237.302 5.52579 237.084 6.31917 237.084 7.40503C237.084 8.50737 237.295 9.30817 237.717 9.80743C238.14 10.3067 238.691 10.5563 239.37 10.5563C239.916 10.5563 240.371 10.3891 240.737 10.0546C241.103 9.7201 241.335 9.20519 241.434 8.50984Z" fill="black"/>
<path d="M249.366 11.5153V10.3092C248.726 11.2368 247.859 11.7007 246.763 11.7007C246.279 11.7007 245.826 11.6084 245.406 11.4239C244.988 11.2377 244.676 11.0045 244.472 10.7244C244.269 10.4426 244.127 10.0983 244.044 9.69127C243.987 9.41939 243.958 8.98686 243.958 8.39368V3.31206H245.349V7.86228C245.349 8.58729 245.377 9.07666 245.433 9.33041C245.521 9.69456 245.706 9.98127 245.989 10.1905C246.273 10.3998 246.623 10.5044 247.04 10.5044C247.457 10.5044 247.848 10.3973 248.214 10.1831C248.58 9.96891 248.838 9.67809 248.99 9.31064C249.143 8.94155 249.22 8.40686 249.22 7.70657V3.31206H250.609V11.5153H249.366Z" fill="black"/>
<path d="M252.755 11.5154V0.192956H254.147V11.5154H252.755Z" fill="black"/>
<path d="M261.655 10.5044C261.139 10.9411 260.643 11.25 260.167 11.4313C259.691 11.6109 259.18 11.7007 258.635 11.7007C257.734 11.7007 257.041 11.4807 256.556 11.0408C256.072 10.6008 255.83 10.0381 255.83 9.35266C255.83 8.95061 255.921 8.58399 256.104 8.25279C256.287 7.91995 256.527 7.65302 256.823 7.45199C257.12 7.25097 257.453 7.09938 257.824 6.99722C258.096 6.92472 258.508 6.85469 259.06 6.78713C260.182 6.65367 261.008 6.49466 261.539 6.31011C261.544 6.11897 261.546 5.99787 261.546 5.94679C261.546 5.37996 261.415 4.98039 261.151 4.74806C260.797 4.43499 260.269 4.27845 259.569 4.27845C258.915 4.27845 258.432 4.39297 258.121 4.62201C257.809 4.85104 257.579 5.25638 257.429 5.83804L256.069 5.65267C256.193 5.07101 256.396 4.60141 256.68 4.24385C256.963 3.88629 257.373 3.61112 257.908 3.41833C258.444 3.2239 259.064 3.12668 259.769 3.12668C260.47 3.12668 261.038 3.20907 261.475 3.37385C261.913 3.53862 262.235 3.74623 262.441 3.99669C262.647 4.2455 262.791 4.56104 262.874 4.94331C262.92 5.17894 262.943 5.6057 262.943 6.22361V8.07731C262.943 9.37078 262.973 10.1889 263.032 10.5316C263.091 10.8727 263.209 11.2006 263.385 11.5153H261.932C261.789 11.227 261.696 10.89 261.655 10.5044ZM261.539 7.39762C261.033 7.60359 260.276 7.77907 259.268 7.92407C258.696 8.00646 258.291 8.09955 258.054 8.20336C257.818 8.30552 257.636 8.45547 257.505 8.65319C257.377 8.85092 257.313 9.0709 257.313 9.31311C257.313 9.68385 257.453 9.9928 257.733 10.24C258.014 10.4871 258.426 10.6107 258.966 10.6107C259.502 10.6107 259.978 10.4937 260.395 10.2597C260.812 10.0258 261.118 9.70527 261.314 9.29828C261.464 8.98357 261.539 8.52055 261.539 7.90924V7.39762Z" fill="black"/>
<path d="M265.084 11.5154V3.31212H266.335V4.55534C266.655 3.97369 266.949 3.59059 267.22 3.40604C267.49 3.21985 267.787 3.12675 268.112 3.12675C268.58 3.12675 269.056 3.27587 269.541 3.57411L269.061 4.86429C268.722 4.66327 268.382 4.56276 268.043 4.56276C267.738 4.56276 267.464 4.65421 267.222 4.8371C266.98 5.02 266.808 5.27375 266.706 5.59836C266.551 6.09268 266.473 6.63314 266.473 7.21973V11.5154H265.084Z" fill="black"/>
<path d="M275.092 11.5154V4.39469H273.864V3.31212H275.092V2.43965C275.092 1.8893 275.142 1.47984 275.241 1.21126C275.374 0.850404 275.609 0.558754 275.945 0.33631C276.283 0.112218 276.756 0.000171693 277.364 0.000171693C277.756 0.000171693 278.188 0.0463083 278.661 0.138582L278.454 1.34967C278.165 1.29859 277.892 1.27305 277.633 1.27305C277.211 1.27305 276.913 1.36367 276.738 1.54493C276.564 1.72453 276.477 2.06149 276.477 2.55581V3.31212H278.076V4.39469H276.477V11.5154H275.092Z" fill="black"/>
<path d="M284.532 11.5153V10.3092C283.893 11.2368 283.025 11.7007 281.929 11.7007C281.445 11.7007 280.993 11.6084 280.572 11.4239C280.154 11.2377 279.842 11.0045 279.638 10.7244C279.435 10.4426 279.293 10.0983 279.211 9.69127C279.153 9.41939 279.124 8.98686 279.124 8.39368V3.31206H280.516V7.86228C280.516 8.58729 280.544 9.07666 280.6 9.33041C280.687 9.69456 280.872 9.98127 281.156 10.1905C281.439 10.3998 281.789 10.5044 282.206 10.5044C282.623 10.5044 283.014 10.3973 283.38 10.1831C283.746 9.96891 284.005 9.67809 284.156 9.31064C284.309 8.94155 284.386 8.40686 284.386 7.70657V3.31206H285.775V11.5153H284.532Z" fill="black"/>
<path d="M287.954 11.5154V3.31212H289.204V4.47872C289.808 3.57741 290.678 3.12675 291.815 3.12675C292.309 3.12675 292.764 3.21573 293.179 3.39369C293.594 3.57164 293.905 3.8048 294.111 4.09315C294.317 4.3815 294.461 4.72341 294.543 5.11887C294.594 5.37756 294.62 5.82822 294.62 6.47083V11.5154H293.228V6.52521C293.228 5.95839 293.174 5.53492 293.065 5.25481C292.958 4.97469 292.767 4.75142 292.492 4.585C292.217 4.41693 291.894 4.3329 291.523 4.3329C290.93 4.3329 290.418 4.52074 289.988 4.89642C289.558 5.27211 289.343 5.98475 289.343 7.03436V11.5154H287.954Z" fill="black"/>
<path d="M302.105 8.50984L303.471 8.6878C303.321 9.6303 302.938 10.3685 302.322 10.9024C301.707 11.4346 300.952 11.7007 300.056 11.7007C298.933 11.7007 298.031 11.3341 297.349 10.6008C296.667 9.86593 296.326 8.81385 296.326 7.44458C296.326 6.55974 296.473 5.78531 296.766 5.12127C297.059 4.45558 297.506 3.95714 298.105 3.62595C298.705 3.29311 299.359 3.12668 300.065 3.12668C300.955 3.12668 301.684 3.35242 302.25 3.8039C302.817 4.25374 303.181 4.89306 303.34 5.72187L301.988 5.93196C301.86 5.37996 301.632 4.96556 301.304 4.68874C300.977 4.41027 300.582 4.27104 300.117 4.27104C299.417 4.27104 298.848 4.52232 298.409 5.02488C297.973 5.52579 297.755 6.31917 297.755 7.40503C297.755 8.50737 297.965 9.30817 298.387 9.80743C298.811 10.3067 299.362 10.5563 300.041 10.5563C300.586 10.5563 301.042 10.3891 301.408 10.0546C301.773 9.7201 302.006 9.20519 302.105 8.50984Z" fill="black"/>
<path d="M307.695 10.2721L307.896 11.5004C307.505 11.5828 307.155 11.624 306.845 11.624C306.341 11.624 305.95 11.5441 305.671 11.3843C305.394 11.2244 305.199 11.0144 305.085 10.754C304.972 10.4937 304.915 9.94663 304.915 9.11287V4.39458H303.896V3.31201H304.915V1.28036L306.296 0.447424V3.31201H307.695V4.39458H306.296V9.18949C306.296 9.5866 306.321 9.842 306.371 9.95569C306.42 10.0677 306.5 10.1575 306.61 10.2251C306.721 10.2927 306.879 10.3264 307.085 10.3264C307.24 10.3264 307.443 10.3083 307.695 10.2721Z" fill="black"/>
<path d="M309.062 1.79208V0.192956H310.454V1.79208H309.062ZM309.062 11.5154V3.31212H310.454V11.5154H309.062Z" fill="black"/>
<path d="M312.053 7.41492C312.053 5.89571 312.475 4.7703 313.318 4.03871C314.023 3.43069 314.884 3.12668 315.899 3.12668C317.026 3.12668 317.947 3.4966 318.662 4.23644C319.379 4.97462 319.737 5.99539 319.737 7.29875C319.737 8.35331 319.579 9.18377 319.262 9.79013C318.946 10.3949 318.485 10.8645 317.878 11.1989C317.274 11.5334 316.614 11.7007 315.899 11.7007C314.75 11.7007 313.822 11.3324 313.113 10.5959C312.406 9.85934 312.053 8.79902 312.053 7.41492ZM313.481 7.41492C313.481 8.46453 313.71 9.2505 314.168 9.77283C314.626 10.2952 315.203 10.5563 315.899 10.5563C316.589 10.5563 317.163 10.2943 317.621 9.77036C318.079 9.24473 318.308 8.44393 318.308 7.36796C318.308 6.35295 318.078 5.58428 317.616 5.06195C317.155 4.53962 316.582 4.27845 315.899 4.27845C315.203 4.27845 314.626 4.5388 314.168 5.05948C313.71 5.57852 313.481 6.36366 313.481 7.41492Z" fill="black"/>
<path d="M321.367 11.5154V3.31212H322.617V4.47872C323.22 3.57741 324.09 3.12675 325.227 3.12675C325.722 3.12675 326.176 3.21573 326.592 3.39369C327.007 3.57164 327.318 3.8048 327.523 4.09315C327.729 4.3815 327.874 4.72341 327.956 5.11887C328.007 5.37756 328.033 5.82822 328.033 6.47083V11.5154H326.641V6.52521C326.641 5.95839 326.587 5.53492 326.478 5.25481C326.371 4.97469 326.18 4.75142 325.905 4.585C325.629 4.41693 325.306 4.3329 324.936 4.3329C324.343 4.3329 323.831 4.52074 323.401 4.89642C322.971 5.27211 322.756 5.98475 322.756 7.03436V11.5154H321.367Z" fill="black"/>
<path d="M114.463 304.19H136.609V296.439H114.463V304.19Z" fill="#516FD9"/>
<path d="M146.289 304.19V296.264H147.868L149.744 301.875C149.917 302.399 150.043 302.79 150.123 303.05C150.213 302.761 150.353 302.338 150.543 301.778L152.441 296.264H153.853V304.19H152.843V297.557L150.538 304.19H149.592L147.299 297.442V304.19H146.289Z" fill="black"/>
<path d="M155.599 304.19V296.264H160.947V297.199H156.647V299.654H160.367V300.59H156.647V304.19H155.599Z" fill="black"/>
<path d="M162.299 304.19V296.264H163.373L167.537 302.487V296.264H168.543V304.19H167.466L163.304 297.961V304.19H162.299Z" fill="black"/>
<path d="M169.802 301.811V300.832H172.792V301.811H169.802Z" fill="black"/>
<path d="M173.96 304.19V296.264H175.54L177.415 301.875C177.588 302.399 177.714 302.79 177.794 303.05C177.884 302.761 178.024 302.338 178.214 301.778L180.112 296.264H181.524V304.19H180.514V297.557L178.209 304.19H177.263L174.97 297.442V304.19H173.96Z" fill="black"/>
<path d="M183.27 304.19V296.264H188.618V297.199H184.319V299.654H188.038V300.59H184.319V304.19H183.27Z" fill="black"/>
<path d="M189.97 304.19V296.264H191.044L195.209 302.487V296.264H196.214V304.19H195.138L190.975 297.961V304.19H189.97Z" fill="black"/>
<path d="M219.266 304.19H241.411V296.439H219.266V304.19Z" fill="#7EACF5"/>
<path d="M251.091 304.19V296.264H252.671L254.546 301.875C254.719 302.399 254.845 302.79 254.925 303.05C255.015 302.761 255.155 302.338 255.345 301.778L257.243 296.264H258.655V304.19H257.645V297.557L255.34 304.19H254.394L252.101 297.442V304.19H251.091Z" fill="black"/>
<path d="M260.401 304.19V296.264H265.749V297.199H261.45V299.654H265.17V300.59H261.45V304.19H260.401Z" fill="black"/>
<path d="M267.101 304.19V296.264H268.175L272.34 302.487V296.264H273.345V304.19H272.269L268.106 297.961V304.19H267.101Z" fill="black"/>
<path d="M274.604 301.811V300.832H277.594V301.811H274.604Z" fill="black"/>
<path d="M278.795 304.19V296.264H281.785C282.311 296.264 282.712 296.289 282.99 296.339C283.379 296.404 283.705 296.528 283.968 296.711C284.232 296.892 284.444 297.147 284.605 297.475C284.765 297.803 284.845 298.163 284.845 298.557C284.845 299.23 284.631 299.801 284.202 300.268C283.772 300.734 282.997 300.967 281.876 300.967H279.843V304.19H278.795ZM279.843 300.032H281.892C282.57 300.032 283.052 299.906 283.336 299.654C283.621 299.401 283.764 299.046 283.764 298.588C283.764 298.257 283.68 297.974 283.511 297.738C283.344 297.502 283.124 297.346 282.85 297.269C282.673 297.222 282.346 297.199 281.871 297.199H279.843V300.032Z" fill="black"/>
<path d="M286.196 304.19V296.264H289.71C290.417 296.264 290.954 296.336 291.321 296.479C291.689 296.621 291.983 296.872 292.203 297.233C292.424 297.593 292.534 297.991 292.534 298.427C292.534 298.989 292.351 299.463 291.987 299.849C291.623 300.234 291.06 300.479 290.3 300.584C290.578 300.717 290.789 300.848 290.933 300.979C291.239 301.259 291.529 301.61 291.804 302.032L293.183 304.19H291.862L290.814 302.541C290.507 302.065 290.255 301.701 290.056 301.449C289.859 301.197 289.682 301.02 289.525 300.92C289.368 300.819 289.208 300.748 289.046 300.707C288.927 300.683 288.733 300.671 288.463 300.671H287.245V304.19H286.196ZM287.245 299.763H289.501C289.979 299.763 290.354 299.713 290.624 299.614C290.895 299.515 291.101 299.356 291.241 299.138C291.382 298.92 291.452 298.683 291.452 298.427C291.452 298.052 291.316 297.744 291.044 297.503C290.772 297.261 290.342 297.14 289.753 297.14H287.245V299.763Z" fill="black"/>
<path d="M293.857 300.33C293.857 299.014 294.21 297.984 294.916 297.24C295.623 296.495 296.535 296.122 297.653 296.122C298.385 296.122 299.045 296.298 299.632 296.648C300.219 296.998 300.667 297.485 300.975 298.11C301.284 298.735 301.438 299.445 301.438 300.238C301.438 301.041 301.276 301.76 300.95 302.394C300.626 303.029 300.167 303.509 299.572 303.835C298.978 304.162 298.336 304.325 297.648 304.325C296.901 304.325 296.234 304.145 295.646 303.785C295.059 303.424 294.614 302.932 294.31 302.309C294.008 301.685 293.857 301.026 293.857 300.33ZM294.938 300.346C294.938 301.301 295.195 302.053 295.708 302.603C296.223 303.153 296.867 303.427 297.642 303.427C298.431 303.427 299.081 303.15 299.591 302.595C300.102 302.04 300.357 301.252 300.357 300.231C300.357 299.587 300.248 299.024 300.03 298.543C299.812 298.062 299.493 297.689 299.072 297.423C298.652 297.158 298.181 297.026 297.658 297.026C296.916 297.026 296.277 297.281 295.741 297.792C295.206 298.302 294.938 299.153 294.938 300.346Z" fill="black"/>
<path d="M324.08 304.19H346.225V296.439H324.08V304.19Z" fill="#D0D0D0"/>
<path d="M355.992 304.19V296.264H361.34V297.199H357.04V299.654H360.76V300.59H357.04V304.19H355.992Z" fill="black"/>
<path d="M366.325 303.482C365.964 303.788 365.617 304.004 365.283 304.131C364.95 304.257 364.593 304.32 364.211 304.32C363.58 304.32 363.095 304.166 362.756 303.858C362.417 303.55 362.247 303.156 362.247 302.676C362.247 302.395 362.311 302.138 362.439 301.906C362.567 301.673 362.735 301.486 362.943 301.346C363.15 301.205 363.384 301.099 363.643 301.027C363.834 300.977 364.122 300.928 364.508 300.88C365.294 300.787 365.872 300.676 366.244 300.546C366.247 300.413 366.249 300.328 366.249 300.292C366.249 299.895 366.157 299.616 365.972 299.453C365.724 299.234 365.355 299.124 364.865 299.124C364.407 299.124 364.069 299.204 363.851 299.365C363.633 299.525 363.471 299.809 363.366 300.216L362.415 300.086C362.501 299.679 362.644 299.35 362.842 299.1C363.041 298.85 363.327 298.657 363.702 298.522C364.077 298.386 364.511 298.318 365.005 298.318C365.495 298.318 365.893 298.376 366.199 298.491C366.505 298.606 366.731 298.752 366.875 298.927C367.019 299.101 367.12 299.322 367.178 299.59C367.21 299.755 367.226 300.053 367.226 300.486V301.783C367.226 302.689 367.247 303.262 367.289 303.501C367.33 303.74 367.413 303.97 367.536 304.19H366.519C366.418 303.988 366.354 303.752 366.325 303.482ZM366.244 301.308C365.89 301.452 365.36 301.575 364.654 301.676C364.253 301.734 363.97 301.799 363.804 301.872C363.639 301.943 363.511 302.048 363.42 302.187C363.33 302.325 363.285 302.479 363.285 302.649C363.285 302.908 363.383 303.124 363.579 303.297C363.776 303.47 364.064 303.557 364.443 303.557C364.817 303.557 365.151 303.475 365.443 303.311C365.734 303.147 365.949 302.923 366.086 302.638C366.191 302.418 366.244 302.094 366.244 301.666V301.308Z" fill="black"/>
<path d="M368.713 304.19V296.264H369.687V304.19H368.713Z" fill="black"/>
<path d="M370.806 302.476L371.768 302.325C371.822 302.71 371.973 303.006 372.22 303.211C372.466 303.416 372.812 303.519 373.256 303.519C373.702 303.519 374.033 303.428 374.249 303.247C374.466 303.065 374.574 302.851 374.574 302.605C374.574 302.386 374.479 302.213 374.287 302.086C374.155 302 373.823 301.89 373.292 301.758C372.58 301.576 372.085 301.42 371.81 301.289C371.534 301.157 371.325 300.975 371.182 300.744C371.04 300.511 370.969 300.253 370.969 299.972C370.969 299.717 371.027 299.481 371.144 299.263C371.261 299.044 371.421 298.862 371.623 298.718C371.774 298.607 371.98 298.513 372.24 298.436C372.502 298.357 372.783 298.318 373.083 298.318C373.533 298.318 373.928 298.383 374.268 298.514C374.61 298.643 374.861 298.819 375.022 299.041C375.185 299.263 375.297 299.559 375.358 299.929L374.407 300.059C374.364 299.763 374.239 299.533 374.031 299.368C373.823 299.202 373.531 299.119 373.152 299.119C372.706 299.119 372.387 299.193 372.195 299.341C372.004 299.488 371.908 299.661 371.908 299.86C371.908 299.985 371.948 300.099 372.028 300.2C372.107 300.304 372.232 300.391 372.401 300.46C372.498 300.496 372.785 300.578 373.261 300.707C373.95 300.892 374.43 301.043 374.701 301.161C374.973 301.277 375.186 301.447 375.341 301.671C375.497 301.894 375.574 302.171 375.574 302.503C375.574 302.827 375.48 303.133 375.291 303.42C375.101 303.706 374.828 303.928 374.471 304.085C374.114 304.241 373.711 304.32 373.261 304.32C372.515 304.32 371.946 304.165 371.555 303.854C371.164 303.544 370.915 303.085 370.806 302.476Z" fill="black"/>
<path d="M380.663 302.341L381.668 302.465C381.51 303.052 381.216 303.508 380.787 303.834C380.358 304.158 379.81 304.32 379.144 304.32C378.304 304.32 377.638 304.061 377.146 303.545C376.653 303.027 376.407 302.301 376.407 301.368C376.407 300.402 376.655 299.652 377.152 299.119C377.651 298.585 378.296 298.318 379.088 298.318C379.857 298.318 380.484 298.579 380.971 299.102C381.458 299.624 381.701 300.36 381.701 301.308C381.701 301.365 381.699 301.452 381.696 301.567H377.414C377.449 302.198 377.628 302.681 377.948 303.017C378.269 303.352 378.669 303.519 379.149 303.519C379.505 303.519 379.81 303.425 380.062 303.238C380.315 303.05 380.515 302.751 380.663 302.341ZM377.467 300.768H380.673C380.631 300.285 380.508 299.922 380.306 299.681C379.996 299.307 379.594 299.119 379.101 299.119C378.653 299.119 378.277 299.268 377.973 299.567C377.668 299.866 377.5 300.266 377.467 300.768Z" fill="black"/>
<path d="M389.897 302.341L390.903 302.465C390.745 303.052 390.451 303.508 390.022 303.834C389.593 304.158 389.045 304.32 388.378 304.32C387.539 304.32 386.873 304.061 386.38 303.545C385.888 303.027 385.641 302.301 385.641 301.368C385.641 300.402 385.89 299.652 386.387 299.119C386.885 298.585 387.531 298.318 388.323 298.318C389.091 298.318 389.719 298.579 390.205 299.102C390.692 299.624 390.936 300.36 390.936 301.308C390.936 301.365 390.934 301.452 390.93 301.567H386.648C386.684 302.198 386.862 302.681 387.183 303.017C387.504 303.352 387.904 303.519 388.384 303.519C388.74 303.519 389.045 303.425 389.297 303.238C389.55 303.05 389.75 302.751 389.897 302.341ZM386.702 300.768H389.908C389.865 300.285 389.743 299.922 389.541 299.681C389.231 299.307 388.829 299.119 388.335 299.119C387.888 299.119 387.512 299.268 387.207 299.567C386.903 299.866 386.734 300.266 386.702 300.768Z" fill="black"/>
<path d="M395.85 304.19V303.465C395.485 304.035 394.95 304.32 394.244 304.32C393.786 304.32 393.365 304.194 392.981 303.941C392.597 303.688 392.3 303.336 392.089 302.884C391.879 302.432 391.774 301.912 391.774 301.325C391.774 300.752 391.869 300.232 392.059 299.764C392.251 299.297 392.537 298.94 392.919 298.692C393.302 298.443 393.729 298.318 394.201 298.318C394.547 298.318 394.855 298.391 395.125 298.538C395.396 298.683 395.616 298.873 395.786 299.107V296.264H396.753V304.19H395.85ZM392.774 301.325C392.774 302.06 392.928 302.609 393.237 302.974C393.548 303.337 393.914 303.519 394.336 303.519C394.762 303.519 395.123 303.345 395.419 302.998C395.717 302.65 395.865 302.119 395.865 301.406C395.865 300.62 395.714 300.043 395.41 299.676C395.108 299.308 394.736 299.124 394.293 299.124C393.86 299.124 393.499 299.301 393.208 299.654C392.918 300.007 392.774 300.564 392.774 301.325Z" fill="black"/>
<path d="M398.105 304.666L399.051 304.806C399.09 305.098 399.2 305.311 399.38 305.444C399.622 305.624 399.952 305.714 400.369 305.714C400.82 305.714 401.168 305.624 401.413 305.444C401.658 305.264 401.824 305.012 401.911 304.688C401.962 304.49 401.985 304.074 401.98 303.439C401.556 303.94 401.026 304.19 400.392 304.19C399.602 304.19 398.991 303.905 398.558 303.335C398.125 302.766 397.909 302.083 397.909 301.287C397.909 300.739 398.008 300.234 398.207 299.771C398.405 299.308 398.692 298.949 399.068 298.697C399.446 298.444 399.888 298.318 400.397 298.318C401.074 298.318 401.633 298.592 402.074 299.14V298.448H402.97V303.411C402.97 304.305 402.879 304.939 402.696 305.311C402.515 305.685 402.227 305.98 401.831 306.195C401.437 306.412 400.951 306.521 400.375 306.521C399.691 306.521 399.138 306.367 398.715 306.059C398.293 305.751 398.09 305.286 398.105 304.666ZM398.909 301.216C398.909 301.969 399.059 302.519 399.357 302.865C399.657 303.211 400.033 303.384 400.484 303.384C400.93 303.384 401.304 303.212 401.606 302.868C401.91 302.523 402.061 301.984 402.061 301.249C402.061 300.546 401.906 300.017 401.594 299.661C401.283 299.303 400.907 299.124 400.466 299.124C400.034 299.124 399.666 299.3 399.362 299.652C399.06 300.003 398.909 300.524 398.909 301.216Z" fill="black"/>
<path d="M408.372 302.341L409.377 302.465C409.219 303.052 408.925 303.508 408.496 303.834C408.067 304.158 407.519 304.32 406.853 304.32C406.013 304.32 405.347 304.061 404.854 303.545C404.362 303.027 404.116 302.301 404.116 301.368C404.116 300.402 404.364 299.652 404.861 299.119C405.36 298.585 406.005 298.318 406.797 298.318C407.566 298.318 408.193 298.579 408.68 299.102C409.167 299.624 409.41 300.36 409.41 301.308C409.41 301.365 409.408 301.452 409.405 301.567H405.123C405.158 302.198 405.337 302.681 405.657 303.017C405.978 303.352 406.378 303.519 406.858 303.519C407.214 303.519 407.519 303.425 407.771 303.238C408.024 303.05 408.224 302.751 408.372 302.341ZM405.176 300.768H408.382C408.34 300.285 408.217 299.922 408.015 299.681C407.705 299.307 407.303 299.119 406.81 299.119C406.362 299.119 405.986 299.268 405.681 299.567C405.377 299.866 405.209 300.266 405.176 300.768Z" fill="black"/>
<path d="M410.21 302.476L411.172 302.325C411.226 302.71 411.377 303.006 411.623 303.211C411.87 303.416 412.216 303.519 412.66 303.519C413.106 303.519 413.437 303.428 413.653 303.247C413.87 303.065 413.978 302.851 413.978 302.605C413.978 302.386 413.882 302.213 413.691 302.086C413.558 302 413.227 301.89 412.696 301.758C411.983 301.576 411.489 301.42 411.213 301.289C410.938 301.157 410.728 300.975 410.585 300.744C410.444 300.511 410.373 300.253 410.373 299.972C410.373 299.717 410.431 299.481 410.547 299.263C410.665 299.044 410.825 298.862 411.027 298.718C411.178 298.607 411.384 298.513 411.644 298.436C411.906 298.357 412.187 298.318 412.487 298.318C412.937 298.318 413.332 298.383 413.672 298.514C414.013 298.643 414.265 298.819 414.426 299.041C414.589 299.263 414.701 299.559 414.762 299.929L413.81 300.059C413.768 299.763 413.643 299.533 413.435 299.368C413.227 299.202 412.934 299.119 412.556 299.119C412.11 299.119 411.791 299.193 411.599 299.341C411.408 299.488 411.312 299.661 411.312 299.86C411.312 299.985 411.352 300.099 411.431 300.2C411.511 300.304 411.636 300.391 411.805 300.46C411.902 300.496 412.189 300.578 412.665 300.707C413.354 300.892 413.833 301.043 414.104 301.161C414.377 301.277 414.59 301.447 414.745 301.671C414.9 301.894 414.978 302.171 414.978 302.503C414.978 302.827 414.884 303.133 414.694 303.42C414.505 303.706 414.232 303.928 413.874 304.085C413.518 304.241 413.115 304.32 412.665 304.32C411.919 304.32 411.35 304.165 410.959 303.854C410.568 303.544 410.318 303.085 410.21 302.476Z" fill="black"/>
</svg>
