<svg width="496" height="325" viewBox="0 0 496 325" fill="none" xmlns="http://www.w3.org/2000/svg">
<path d="M43.4629 266.253H495.026V21.1523H43.4629V266.253Z" fill="white"/>
<mask id="mask0_22_2948" style="mask-type:luminance" maskUnits="userSpaceOnUse" x="43" y="21" width="453" height="246">
<path d="M495.026 21.1523H43.4629V266.253H495.026V21.1523Z" fill="white"/>
</mask>
<g mask="url(#mask0_22_2948)">
<path d="M63.9885 266.253H96.7605V246.93H63.9885V266.253Z" fill="#516FD9" stroke="white" stroke-width="0.533333"/>
</g>
<mask id="mask1_22_2948" style="mask-type:luminance" maskUnits="userSpaceOnUse" x="43" y="21" width="453" height="246">
<path d="M495.026 21.1523H43.4629V266.253H495.026V21.1523Z" fill="white"/>
</mask>
<g mask="url(#mask1_22_2948)">
<path d="M150.23 266.253H183.002V246.125H150.23V266.253Z" fill="#516FD9" stroke="white" stroke-width="0.533333"/>
</g>
<mask id="mask2_22_2948" style="mask-type:luminance" maskUnits="userSpaceOnUse" x="43" y="21" width="453" height="246">
<path d="M495.026 21.1523H43.4629V266.253H495.026V21.1523Z" fill="white"/>
</mask>
<g mask="url(#mask2_22_2948)">
<path d="M236.472 266.253H269.244V245.32H236.472V266.253Z" fill="#516FD9" stroke="white" stroke-width="0.533333"/>
</g>
<mask id="mask3_22_2948" style="mask-type:luminance" maskUnits="userSpaceOnUse" x="43" y="21" width="453" height="246">
<path d="M495.026 21.1523H43.4629V266.253H495.026V21.1523Z" fill="white"/>
</mask>
<g mask="url(#mask3_22_2948)">
<path d="M322.714 266.253H355.486V226.802H322.714V266.253Z" fill="#516FD9" stroke="white" stroke-width="0.533333"/>
</g>
<mask id="mask4_22_2948" style="mask-type:luminance" maskUnits="userSpaceOnUse" x="43" y="21" width="453" height="246">
<path d="M495.026 21.1523H43.4629V266.253H495.026V21.1523Z" fill="white"/>
</mask>
<g mask="url(#mask4_22_2948)">
<path d="M408.957 266.253H441.729V188.961H408.957V266.253Z" fill="#516FD9" stroke="white" stroke-width="0.533333"/>
</g>
<mask id="mask5_22_2948" style="mask-type:luminance" maskUnits="userSpaceOnUse" x="43" y="21" width="453" height="246">
<path d="M495.026 21.1523H43.4629V266.253H495.026V21.1523Z" fill="white"/>
</mask>
<g mask="url(#mask5_22_2948)">
<path d="M63.9885 246.93H96.7605V235.658H63.9885V246.93Z" fill="#7EACF5" stroke="white" stroke-width="0.533333"/>
</g>
<mask id="mask6_22_2948" style="mask-type:luminance" maskUnits="userSpaceOnUse" x="43" y="21" width="453" height="246">
<path d="M495.026 21.1523H43.4629V266.253H495.026V21.1523Z" fill="white"/>
</mask>
<g mask="url(#mask6_22_2948)">
<path d="M150.23 246.125H183.002V225.192H150.23V246.125Z" fill="#7EACF5" stroke="white" stroke-width="0.533333"/>
</g>
<mask id="mask7_22_2948" style="mask-type:luminance" maskUnits="userSpaceOnUse" x="43" y="21" width="453" height="246">
<path d="M495.026 21.1523H43.4629V266.253H495.026V21.1523Z" fill="white"/>
</mask>
<g mask="url(#mask7_22_2948)">
<path d="M236.472 245.32H269.244V215.53H236.472V245.32Z" fill="#7EACF5" stroke="white" stroke-width="0.533333"/>
</g>
<mask id="mask8_22_2948" style="mask-type:luminance" maskUnits="userSpaceOnUse" x="43" y="21" width="453" height="246">
<path d="M495.026 21.1523H43.4629V266.253H495.026V21.1523Z" fill="white"/>
</mask>
<g mask="url(#mask8_22_2948)">
<path d="M322.714 226.802H355.486V212.31H322.714V226.802Z" fill="#7EACF5" stroke="white" stroke-width="0.533333"/>
</g>
<mask id="mask9_22_2948" style="mask-type:luminance" maskUnits="userSpaceOnUse" x="43" y="21" width="453" height="246">
<path d="M495.026 21.1523H43.4629V266.253H495.026V21.1523Z" fill="white"/>
</mask>
<g mask="url(#mask9_22_2948)">
<path d="M408.957 188.961H441.729V148.705H408.957V188.961Z" fill="#7EACF5" stroke="white" stroke-width="0.533333"/>
</g>
<mask id="mask10_22_2948" style="mask-type:luminance" maskUnits="userSpaceOnUse" x="43" y="21" width="453" height="246">
<path d="M495.026 21.1523H43.4629V266.253H495.026V21.1523Z" fill="white"/>
</mask>
<g mask="url(#mask10_22_2948)">
<path d="M63.9885 235.658H96.7605" stroke="white" stroke-width="0.533333"/>
</g>
<mask id="mask11_22_2948" style="mask-type:luminance" maskUnits="userSpaceOnUse" x="43" y="21" width="453" height="246">
<path d="M495.026 21.1523H43.4629V266.253H495.026V21.1523Z" fill="white"/>
</mask>
<g mask="url(#mask11_22_2948)">
<path d="M150.23 225.192H183.002" stroke="white" stroke-width="0.533333"/>
</g>
<mask id="mask12_22_2948" style="mask-type:luminance" maskUnits="userSpaceOnUse" x="43" y="21" width="453" height="246">
<path d="M495.026 21.1523H43.4629V266.253H495.026V21.1523Z" fill="white"/>
</mask>
<g mask="url(#mask12_22_2948)">
<path d="M236.472 215.53H269.244" stroke="white" stroke-width="0.533333"/>
</g>
<mask id="mask13_22_2948" style="mask-type:luminance" maskUnits="userSpaceOnUse" x="43" y="21" width="453" height="246">
<path d="M495.026 21.1523H43.4629V266.253H495.026V21.1523Z" fill="white"/>
</mask>
<g mask="url(#mask13_22_2948)">
<path d="M322.714 212.31H355.486V211.504H322.714V212.31Z" fill="#69C39C" stroke="white" stroke-width="0.533333"/>
</g>
<mask id="mask14_22_2948" style="mask-type:luminance" maskUnits="userSpaceOnUse" x="43" y="21" width="453" height="246">
<path d="M495.026 21.1523H43.4629V266.253H495.026V21.1523Z" fill="white"/>
</mask>
<g mask="url(#mask14_22_2948)">
<path d="M408.957 148.705H441.729V147.9H408.957V148.705Z" fill="#69C39C" stroke="white" stroke-width="0.533333"/>
</g>
<mask id="mask15_22_2948" style="mask-type:luminance" maskUnits="userSpaceOnUse" x="43" y="21" width="453" height="246">
<path d="M495.026 21.1523H43.4629V266.253H495.026V21.1523Z" fill="white"/>
</mask>
<g mask="url(#mask15_22_2948)">
<path d="M96.7603 266.253H129.532V32.8237H96.7603V266.253Z" fill="#D0D0D0" stroke="white" stroke-width="0.533333"/>
</g>
<mask id="mask16_22_2948" style="mask-type:luminance" maskUnits="userSpaceOnUse" x="43" y="21" width="453" height="246">
<path d="M495.026 21.1523H43.4629V266.253H495.026V21.1523Z" fill="white"/>
</mask>
<g mask="url(#mask16_22_2948)">
<path d="M183.002 266.253H215.774V218.976H183.002V266.253Z" fill="#D0D0D0" stroke="white" stroke-width="0.533333"/>
</g>
<mask id="mask17_22_2948" style="mask-type:luminance" maskUnits="userSpaceOnUse" x="43" y="21" width="453" height="246">
<path d="M495.026 21.1523H43.4629V266.253H495.026V21.1523Z" fill="white"/>
</mask>
<g mask="url(#mask17_22_2948)">
<path d="M269.244 266.253H302.016V257.388H269.244V266.253Z" fill="#D0D0D0" stroke="white" stroke-width="0.533333"/>
</g>
<mask id="mask18_22_2948" style="mask-type:luminance" maskUnits="userSpaceOnUse" x="43" y="21" width="453" height="246">
<path d="M495.026 21.1523H43.4629V266.253H495.026V21.1523Z" fill="white"/>
</mask>
<g mask="url(#mask18_22_2948)">
<path d="M355.487 266.253H388.259V263.298H355.487V266.253Z" fill="#D0D0D0" stroke="white" stroke-width="0.533333"/>
</g>
<mask id="mask19_22_2948" style="mask-type:luminance" maskUnits="userSpaceOnUse" x="43" y="21" width="453" height="246">
<path d="M495.026 21.1523H43.4629V266.253H495.026V21.1523Z" fill="white"/>
</mask>
<g mask="url(#mask19_22_2948)">
<path d="M441.729 266.253H474.501V263.298H441.729V266.253Z" fill="#D0D0D0" stroke="white" stroke-width="0.533333"/>
</g>
<path d="M61.9966 281.085V271.88H63.2445L68.0813 279.108V271.88H69.2488V281.085H67.9989L63.1641 273.851V281.085H61.9966Z" fill="black"/>
<path d="M70.7317 277.751C70.7317 276.516 71.0746 275.601 71.7605 275.006C72.3339 274.512 73.0332 274.265 73.8584 274.265C74.7747 274.265 75.5236 274.566 76.105 275.167C76.6878 275.767 76.9791 276.597 76.9791 277.657C76.9791 278.514 76.8505 279.189 76.5933 279.682C76.3361 280.174 75.961 280.556 75.468 280.828C74.9764 281.1 74.4398 281.236 73.8584 281.236C72.9247 281.236 72.1698 280.936 71.5938 280.337C71.019 279.739 70.7317 278.876 70.7317 277.751ZM71.8932 277.751C71.8932 278.605 72.0794 279.244 72.4518 279.668C72.8242 280.093 73.2931 280.305 73.8584 280.305C74.4197 280.305 74.8866 280.092 75.259 279.666C75.6314 279.239 75.8177 278.588 75.8177 277.713C75.8177 276.888 75.6301 276.263 75.255 275.838C74.8799 275.413 74.4144 275.201 73.8584 275.201C73.2931 275.201 72.8242 275.413 72.4518 275.836C72.0794 276.258 71.8932 276.896 71.8932 277.751Z" fill="black"/>
<path d="M86.4426 278.937L87.6101 279.081C87.4265 279.763 87.0856 280.293 86.5872 280.671C86.0889 281.047 85.4526 281.236 84.6782 281.236C83.703 281.236 82.9293 280.936 82.3573 280.335C81.7853 279.734 81.4993 278.891 81.4993 277.807C81.4993 276.685 81.788 275.814 82.3653 275.195C82.9441 274.575 83.6936 274.265 84.6139 274.265C85.5061 274.265 86.2349 274.568 86.8002 275.175C87.3656 275.782 87.6482 276.636 87.6482 277.737C87.6482 277.804 87.6462 277.905 87.6422 278.039H82.6688C82.7103 278.771 82.9173 279.333 83.2897 279.722C83.6621 280.111 84.127 280.305 84.6843 280.305C85.0982 280.305 85.4519 280.197 85.7453 279.98C86.0387 279.761 86.2711 279.414 86.4426 278.937ZM82.7311 277.11H86.4546C86.405 276.549 86.263 276.128 86.0286 275.848C85.6682 275.413 85.2014 275.195 84.628 275.195C84.1082 275.195 83.6715 275.369 83.3178 275.716C82.9642 276.063 82.7686 276.527 82.7311 277.11Z" fill="black"/>
<path d="M90.882 281.085L88.344 274.416H89.5376L90.9704 278.41C91.1244 278.842 91.2664 279.289 91.3964 279.753C91.4968 279.402 91.6368 278.979 91.8164 278.485L93.2993 274.416H94.4608L91.9369 281.085H90.882Z" fill="black"/>
<path d="M95.4658 273.18V271.88H96.5972V273.18H95.4658ZM95.4658 281.085V274.416H96.5972V281.085H95.4658Z" fill="black"/>
<path d="M102.643 281.085V280.243C102.22 280.905 101.598 281.236 100.778 281.236C100.247 281.236 99.7576 281.089 99.3115 280.796C98.8654 280.502 98.5198 280.093 98.2747 279.568C98.0308 279.043 97.9089 278.439 97.9089 277.757C97.9089 277.091 98.0195 276.487 98.2405 275.945C98.4629 275.402 98.7958 274.987 99.2392 274.699C99.684 274.409 100.18 274.265 100.728 274.265C101.13 274.265 101.488 274.35 101.801 274.52C102.116 274.689 102.372 274.909 102.569 275.181V271.88H103.692V281.085H102.643ZM99.0704 277.757C99.0704 278.611 99.2499 279.249 99.6089 279.672C99.9693 280.094 100.395 280.305 100.885 280.305C101.379 280.305 101.799 280.104 102.143 279.7C102.489 279.296 102.661 278.68 102.661 277.852C102.661 276.938 102.485 276.268 102.133 275.842C101.782 275.415 101.349 275.201 100.835 275.201C100.332 275.201 99.9124 275.406 99.5748 275.816C99.2385 276.226 99.0704 276.873 99.0704 277.757Z" fill="black"/>
<path d="M110.035 278.937L111.203 279.081C111.019 279.763 110.678 280.293 110.18 280.671C109.681 281.047 109.045 281.236 108.271 281.236C107.296 281.236 106.522 280.936 105.95 280.335C105.378 279.734 105.092 278.891 105.092 277.807C105.092 276.685 105.38 275.814 105.958 275.195C106.537 274.575 107.286 274.265 108.206 274.265C109.099 274.265 109.827 274.568 110.393 275.175C110.958 275.782 111.241 276.636 111.241 277.737C111.241 277.804 111.239 277.905 111.235 278.039H106.261C106.303 278.771 106.51 279.333 106.882 279.722C107.255 280.111 107.72 280.305 108.277 280.305C108.691 280.305 109.044 280.197 109.338 279.98C109.631 279.761 109.864 279.414 110.035 278.937ZM106.324 277.11H110.047C109.998 276.549 109.856 276.128 109.621 275.848C109.261 275.413 108.794 275.195 108.221 275.195C107.701 275.195 107.264 275.369 106.91 275.716C106.557 276.063 106.361 276.527 106.324 277.11Z" fill="black"/>
<path d="M112.622 281.085V274.416H113.639V275.364C114.129 274.631 114.837 274.265 115.761 274.265C116.163 274.265 116.532 274.337 116.87 274.482C117.208 274.627 117.46 274.816 117.628 275.051C117.795 275.285 117.912 275.563 117.979 275.884C118.021 276.095 118.042 276.461 118.042 276.984V281.085H116.91V277.028C116.91 276.567 116.866 276.223 116.778 275.995C116.691 275.767 116.535 275.586 116.311 275.45C116.088 275.314 115.825 275.245 115.524 275.245C115.041 275.245 114.626 275.398 114.276 275.704C113.926 276.009 113.751 276.588 113.751 277.442V281.085H112.622Z" fill="black"/>
<path d="M124.127 278.641L125.238 278.786C125.116 279.552 124.805 280.152 124.304 280.587C123.804 281.019 123.19 281.236 122.461 281.236C121.549 281.236 120.815 280.938 120.261 280.341C119.706 279.744 119.429 278.889 119.429 277.775C119.429 277.056 119.548 276.426 119.786 275.886C120.025 275.345 120.388 274.94 120.876 274.671C121.363 274.4 121.894 274.265 122.469 274.265C123.192 274.265 123.785 274.448 124.245 274.815C124.706 275.181 125.002 275.701 125.132 276.375L124.032 276.545C123.928 276.097 123.742 275.76 123.476 275.535C123.211 275.308 122.889 275.195 122.511 275.195C121.942 275.195 121.479 275.399 121.123 275.808C120.768 276.215 120.59 276.86 120.59 277.743C120.59 278.639 120.762 279.29 121.105 279.696C121.449 280.102 121.897 280.305 122.449 280.305C122.892 280.305 123.263 280.169 123.56 279.897C123.858 279.625 124.046 279.207 124.127 278.641Z" fill="black"/>
<path d="M130.77 278.937L131.937 279.081C131.754 279.763 131.413 280.293 130.915 280.671C130.416 281.047 129.78 281.236 129.006 281.236C128.03 281.236 127.257 280.936 126.685 280.335C126.113 279.734 125.827 278.891 125.827 277.807C125.827 276.685 126.115 275.814 126.693 275.195C127.271 274.575 128.021 274.265 128.941 274.265C129.834 274.265 130.562 274.568 131.128 275.175C131.693 275.782 131.976 276.636 131.976 277.737C131.976 277.804 131.974 277.905 131.97 278.039H126.996C127.038 278.771 127.245 279.333 127.617 279.722C127.99 280.111 128.454 280.305 129.012 280.305C129.426 280.305 129.779 280.197 130.073 279.98C130.366 279.761 130.598 279.414 130.77 278.937ZM127.058 277.11H130.782C130.732 276.549 130.59 276.128 130.356 275.848C129.996 275.413 129.529 275.195 128.955 275.195C128.436 275.195 127.999 275.369 127.645 275.716C127.292 276.063 127.096 276.527 127.058 277.11Z" fill="black"/>
<path d="M169.279 281.085L166.835 271.88H168.085L169.486 277.914C169.636 278.546 169.766 279.174 169.876 279.797C170.11 278.814 170.248 278.246 170.289 278.095L172.042 271.88H173.511L174.829 276.538C175.16 277.694 175.399 278.78 175.546 279.797C175.663 279.215 175.816 278.548 176.004 277.793L177.447 271.88H178.673L176.149 281.085H174.974L173.034 274.07C172.871 273.484 172.775 273.125 172.745 272.991C172.649 273.413 172.558 273.773 172.474 274.07L170.523 281.085H169.279Z" fill="black"/>
<path d="M184.006 278.937L185.173 279.081C184.99 279.763 184.649 280.293 184.15 280.671C183.652 281.047 183.016 281.236 182.241 281.236C181.266 281.236 180.492 280.936 179.92 280.335C179.348 279.734 179.062 278.891 179.062 277.807C179.062 276.685 179.351 275.814 179.928 275.195C180.507 274.575 181.257 274.265 182.177 274.265C183.069 274.265 183.798 274.568 184.363 275.175C184.929 275.782 185.211 276.636 185.211 277.737C185.211 277.804 185.209 277.905 185.205 278.039H180.232C180.273 278.771 180.48 279.333 180.853 279.722C181.225 280.111 181.69 280.305 182.247 280.305C182.661 280.305 183.015 280.197 183.308 279.98C183.602 279.761 183.834 279.414 184.006 278.937ZM180.294 277.11H184.018C183.968 276.549 183.826 276.128 183.592 275.848C183.231 275.413 182.764 275.195 182.191 275.195C181.671 275.195 181.234 275.369 180.881 275.716C180.527 276.063 180.332 276.527 180.294 277.11Z" fill="black"/>
<path d="M190.945 280.263C190.526 280.618 190.122 280.869 189.735 281.017C189.348 281.163 188.933 281.236 188.489 281.236C187.756 281.236 187.193 281.057 186.799 280.699C186.405 280.341 186.208 279.884 186.208 279.327C186.208 279 186.283 278.702 186.432 278.432C186.58 278.162 186.775 277.945 187.016 277.781C187.257 277.618 187.529 277.495 187.83 277.412C188.051 277.353 188.386 277.296 188.835 277.241C189.747 277.132 190.419 277.003 190.85 276.853C190.854 276.698 190.856 276.599 190.856 276.558C190.856 276.097 190.749 275.772 190.535 275.583C190.247 275.328 189.818 275.201 189.249 275.201C188.717 275.201 188.324 275.294 188.071 275.48C187.818 275.667 187.631 275.996 187.509 276.469L186.403 276.318C186.504 275.846 186.669 275.464 186.9 275.173C187.13 274.882 187.463 274.659 187.898 274.502C188.334 274.344 188.838 274.265 189.412 274.265C189.981 274.265 190.443 274.332 190.798 274.466C191.154 274.6 191.416 274.768 191.584 274.972C191.751 275.174 191.868 275.431 191.935 275.742C191.973 275.933 191.992 276.28 191.992 276.783V278.29C191.992 279.341 192.016 280.006 192.064 280.285C192.112 280.562 192.208 280.829 192.351 281.085H191.17C191.053 280.85 190.978 280.576 190.945 280.263ZM190.85 277.737C190.439 277.905 189.824 278.047 189.004 278.165C188.539 278.232 188.21 278.308 188.017 278.392C187.825 278.475 187.677 278.597 187.571 278.758C187.466 278.919 187.414 279.098 187.414 279.294C187.414 279.596 187.528 279.847 187.756 280.048C187.985 280.249 188.319 280.349 188.759 280.349C189.194 280.349 189.581 280.254 189.92 280.064C190.259 279.874 190.508 279.613 190.668 279.282C190.789 279.027 190.85 278.65 190.85 278.153V277.737Z" fill="black"/>
<path d="M193.751 281.085V271.88H194.882V277.128L197.557 274.416H199.02L196.47 276.889L199.277 281.085H197.882L195.678 277.675L194.882 278.441V281.085H193.751Z" fill="black"/>
<path d="M243.036 281.085V271.88H244.871L247.049 278.396C247.25 279.004 247.396 279.459 247.489 279.761C247.593 279.426 247.756 278.933 247.977 278.284L250.182 271.88H251.821V281.085H250.648V273.381L247.971 281.085H246.872L244.209 273.248V281.085H243.036Z" fill="black"/>
<path d="M253.222 277.751C253.222 276.516 253.565 275.601 254.251 275.006C254.825 274.512 255.524 274.265 256.349 274.265C257.265 274.265 258.014 274.566 258.596 275.167C259.178 275.767 259.47 276.597 259.47 277.657C259.47 278.514 259.341 279.189 259.084 279.682C258.827 280.174 258.452 280.556 257.959 280.828C257.467 281.1 256.931 281.236 256.349 281.236C255.415 281.236 254.661 280.936 254.084 280.337C253.51 279.739 253.222 278.876 253.222 277.751ZM254.384 277.751C254.384 278.605 254.57 279.244 254.943 279.668C255.315 280.093 255.784 280.305 256.349 280.305C256.91 280.305 257.377 280.092 257.75 279.666C258.122 279.239 258.308 278.588 258.308 277.713C258.308 276.888 258.121 276.263 257.746 275.838C257.371 275.413 256.905 275.201 256.349 275.201C255.784 275.201 255.315 275.413 254.943 275.836C254.57 276.258 254.384 276.896 254.384 277.751Z" fill="black"/>
<path d="M265.121 281.085V280.243C264.698 280.905 264.076 281.236 263.256 281.236C262.725 281.236 262.236 281.089 261.79 280.796C261.343 280.502 260.998 280.093 260.753 279.568C260.509 279.043 260.387 278.439 260.387 277.757C260.387 277.091 260.497 276.487 260.719 275.945C260.941 275.402 261.274 274.987 261.717 274.699C262.162 274.409 262.658 274.265 263.206 274.265C263.608 274.265 263.966 274.35 264.279 274.52C264.594 274.689 264.85 274.909 265.047 275.181V271.88H266.17V281.085H265.121ZM261.548 277.757C261.548 278.611 261.728 279.249 262.087 279.672C262.447 280.094 262.873 280.305 263.363 280.305C263.857 280.305 264.277 280.104 264.621 279.7C264.967 279.296 265.139 278.68 265.139 277.852C265.139 276.938 264.963 276.268 264.611 275.842C264.26 275.415 263.827 275.201 263.313 275.201C262.81 275.201 262.39 275.406 262.053 275.816C261.717 276.226 261.548 276.873 261.548 277.757Z" fill="black"/>
<path d="M272.513 278.937L273.68 279.081C273.497 279.763 273.156 280.293 272.658 280.671C272.159 281.047 271.523 281.236 270.749 281.236C269.773 281.236 269 280.936 268.428 280.335C267.856 279.734 267.57 278.891 267.57 277.807C267.57 276.685 267.858 275.814 268.436 275.195C269.014 274.575 269.764 274.265 270.684 274.265C271.576 274.265 272.305 274.568 272.871 275.175C273.436 275.782 273.719 276.636 273.719 277.737C273.719 277.804 273.717 277.905 273.713 278.039H268.739C268.781 278.771 268.988 279.333 269.36 279.722C269.732 280.111 270.197 280.305 270.755 280.305C271.169 280.305 271.522 280.197 271.816 279.98C272.109 279.761 272.341 279.414 272.513 278.937ZM268.801 277.11H272.525C272.475 276.549 272.333 276.128 272.099 275.848C271.739 275.413 271.272 275.195 270.698 275.195C270.179 275.195 269.742 275.369 269.388 275.716C269.034 276.063 268.839 276.527 268.801 277.11Z" fill="black"/>
<path d="M275.088 281.085V274.416H276.104V275.426C276.364 274.953 276.604 274.642 276.824 274.492C277.044 274.341 277.285 274.265 277.549 274.265C277.93 274.265 278.317 274.386 278.711 274.629L278.321 275.677C278.045 275.514 277.769 275.432 277.493 275.432C277.245 275.432 277.023 275.507 276.826 275.655C276.629 275.804 276.489 276.01 276.406 276.274C276.28 276.676 276.217 277.116 276.217 277.593V281.085H275.088Z" fill="black"/>
<path d="M283.735 280.263C283.316 280.618 282.912 280.869 282.525 281.017C282.138 281.163 281.723 281.236 281.279 281.236C280.546 281.236 279.983 281.057 279.589 280.699C279.195 280.341 278.999 279.884 278.999 279.327C278.999 279 279.073 278.702 279.222 278.432C279.37 278.162 279.565 277.945 279.806 277.781C280.047 277.618 280.319 277.495 280.62 277.412C280.841 277.353 281.176 277.296 281.625 277.241C282.537 277.132 283.209 277.003 283.64 276.853C283.644 276.698 283.646 276.599 283.646 276.558C283.646 276.097 283.539 275.772 283.325 275.583C283.037 275.328 282.608 275.201 282.039 275.201C281.507 275.201 281.115 275.294 280.861 275.48C280.608 275.667 280.421 275.996 280.299 276.469L279.193 276.318C279.294 275.846 279.459 275.464 279.69 275.173C279.92 274.882 280.253 274.659 280.688 274.502C281.124 274.344 281.628 274.265 282.202 274.265C282.771 274.265 283.233 274.332 283.588 274.466C283.945 274.6 284.206 274.768 284.374 274.972C284.541 275.174 284.659 275.431 284.726 275.742C284.763 275.933 284.782 276.28 284.782 276.783V278.29C284.782 279.341 284.806 280.006 284.854 280.285C284.902 280.562 284.998 280.829 285.141 281.085H283.96C283.843 280.85 283.768 280.576 283.735 280.263ZM283.64 277.737C283.229 277.905 282.614 278.047 281.794 278.165C281.329 278.232 281 278.308 280.807 278.392C280.615 278.475 280.467 278.597 280.361 278.758C280.256 278.919 280.204 279.098 280.204 279.294C280.204 279.596 280.318 279.847 280.546 280.048C280.775 280.249 281.109 280.349 281.549 280.349C281.984 280.349 282.371 280.254 282.71 280.064C283.049 279.874 283.298 279.613 283.458 279.282C283.579 279.027 283.64 278.65 283.64 278.153V277.737Z" fill="black"/>
<path d="M289.002 280.074L289.165 281.073C288.848 281.14 288.563 281.173 288.311 281.173C287.901 281.173 287.583 281.108 287.357 280.978C287.132 280.848 286.973 280.678 286.88 280.466C286.788 280.254 286.742 279.81 286.742 279.132V275.296H285.914V274.415H286.742V272.764L287.865 272.087V274.415H289.002V275.296H287.865V279.194C287.865 279.517 287.885 279.725 287.925 279.817C287.965 279.908 288.03 279.981 288.12 280.036C288.21 280.091 288.339 280.118 288.506 280.118C288.632 280.118 288.797 280.104 289.002 280.074Z" fill="black"/>
<path d="M294.674 278.937L295.841 279.081C295.657 279.763 295.317 280.293 294.818 280.671C294.32 281.047 293.684 281.236 292.909 281.236C291.934 281.236 291.16 280.936 290.588 280.335C290.016 279.734 289.73 278.891 289.73 277.807C289.73 276.685 290.019 275.814 290.596 275.195C291.175 274.575 291.925 274.265 292.845 274.265C293.737 274.265 294.466 274.568 295.031 275.175C295.597 275.782 295.879 276.636 295.879 277.737C295.879 277.804 295.877 277.905 295.873 278.039H290.9C290.941 278.771 291.148 279.333 291.521 279.722C291.893 280.111 292.358 280.305 292.915 280.305C293.329 280.305 293.683 280.197 293.976 279.98C294.27 279.761 294.502 279.414 294.674 278.937ZM290.962 277.11H294.686C294.636 276.549 294.494 276.128 294.26 275.848C293.899 275.413 293.432 275.195 292.859 275.195C292.339 275.195 291.902 275.369 291.549 275.716C291.195 276.063 291 276.527 290.962 277.11Z" fill="black"/>
<path d="M337.121 278.284L338.268 278.183C338.323 278.644 338.45 279.022 338.648 279.317C338.848 279.611 339.156 279.85 339.574 280.032C339.994 280.214 340.465 280.305 340.989 280.305C341.453 280.305 341.863 280.236 342.219 280.098C342.575 279.96 342.84 279.771 343.013 279.532C343.187 279.291 343.274 279.027 343.274 278.742C343.274 278.454 343.19 278.202 343.023 277.986C342.855 277.771 342.579 277.589 342.195 277.442C341.947 277.345 341.4 277.196 340.555 276.994C339.71 276.79 339.118 276.598 338.779 276.419C338.338 276.189 338.01 275.903 337.794 275.563C337.58 275.221 337.473 274.839 337.473 274.416C337.473 273.951 337.604 273.517 337.866 273.113C338.13 272.709 338.515 272.402 339.022 272.193C339.53 271.984 340.093 271.88 340.712 271.88C341.394 271.88 341.995 271.989 342.516 272.209C343.039 272.429 343.44 272.752 343.72 273.18C344 273.606 344.151 274.089 344.172 274.629L343.005 274.717C342.942 274.136 342.729 273.696 342.366 273.399C342.004 273.101 341.469 272.953 340.762 272.953C340.025 272.953 339.488 273.088 339.15 273.359C338.814 273.628 338.646 273.953 338.646 274.333C338.646 274.664 338.765 274.937 339.004 275.151C339.238 275.364 339.85 275.582 340.84 275.806C341.83 276.03 342.51 276.225 342.878 276.393C343.414 276.641 343.809 276.954 344.064 277.333C344.319 277.711 344.447 278.147 344.447 278.641C344.447 279.132 344.307 279.594 344.027 280.028C343.747 280.461 343.344 280.798 342.818 281.039C342.293 281.279 341.702 281.398 341.045 281.398C340.212 281.398 339.513 281.277 338.949 281.035C338.387 280.792 337.945 280.427 337.625 279.94C337.305 279.451 337.137 278.899 337.121 278.284Z" fill="black"/>
<path d="M348.436 280.231L348.598 281.23C348.281 281.297 347.996 281.33 347.744 281.33C347.335 281.33 347.016 281.265 346.79 281.135C346.565 281.005 346.406 280.834 346.314 280.623C346.221 280.411 346.175 279.966 346.175 279.288V275.452H345.347V274.572H346.175V272.92L347.298 272.243V274.572H348.436V275.452H347.298V279.351C347.298 279.674 347.318 279.881 347.359 279.974C347.399 280.065 347.464 280.138 347.554 280.193C347.643 280.248 347.772 280.275 347.939 280.275C348.065 280.275 348.231 280.26 348.436 280.231Z" fill="black"/>
<path d="M349.529 281.242V274.572H350.546V275.583C350.806 275.11 351.046 274.799 351.265 274.649C351.485 274.497 351.727 274.422 351.991 274.422C352.371 274.422 352.758 274.543 353.152 274.785L352.762 275.834C352.486 275.671 352.21 275.589 351.934 275.589C351.687 275.589 351.464 275.663 351.267 275.812C351.07 275.961 350.93 276.167 350.847 276.431C350.721 276.833 350.658 277.272 350.658 277.749V281.242H349.529Z" fill="black"/>
<path d="M353.404 277.908C353.404 276.673 353.747 275.758 354.433 275.163C355.006 274.669 355.705 274.421 356.531 274.421C357.447 274.421 358.196 274.722 358.777 275.324C359.36 275.924 359.651 276.754 359.651 277.813C359.651 278.671 359.523 279.346 359.265 279.839C359.008 280.331 358.633 280.712 358.14 280.984C357.648 281.256 357.112 281.392 356.531 281.392C355.597 281.392 354.842 281.093 354.266 280.494C353.691 279.895 353.404 279.033 353.404 277.908ZM354.565 277.908C354.565 278.761 354.751 279.4 355.124 279.825C355.496 280.25 355.965 280.462 356.531 280.462C357.092 280.462 357.559 280.249 357.931 279.823C358.304 279.396 358.49 278.745 358.49 277.87C358.49 277.045 358.302 276.42 357.927 275.995C357.552 275.57 357.086 275.358 356.531 275.358C355.965 275.358 355.496 275.57 355.124 275.993C354.751 276.415 354.565 277.053 354.565 277.908Z" fill="black"/>
<path d="M360.976 281.242V274.572H361.993V275.521C362.483 274.788 363.191 274.422 364.115 274.422C364.517 274.422 364.887 274.494 365.224 274.639C365.562 274.783 365.814 274.973 365.982 275.207C366.149 275.442 366.267 275.72 366.334 276.041C366.375 276.252 366.396 276.618 366.396 277.14V281.242H365.265V277.185C365.265 276.724 365.22 276.379 365.132 276.152C365.045 275.924 364.889 275.742 364.666 275.607C364.442 275.471 364.179 275.402 363.878 275.402C363.396 275.402 362.98 275.555 362.63 275.86C362.28 276.166 362.106 276.745 362.106 277.599V281.242H360.976Z" fill="black"/>
<path d="M367.922 281.794L369.021 281.957C369.066 282.296 369.194 282.543 369.403 282.698C369.684 282.907 370.067 283.012 370.552 283.012C371.076 283.012 371.48 282.907 371.764 282.698C372.049 282.489 372.242 282.197 372.342 281.82C372.401 281.59 372.428 281.106 372.423 280.369C371.93 280.951 371.315 281.241 370.578 281.241C369.661 281.241 368.95 280.911 368.448 280.249C367.946 279.587 367.695 278.794 367.695 277.87C367.695 277.233 367.81 276.647 368.04 276.109C368.271 275.571 368.604 275.155 369.041 274.861C369.479 274.568 369.993 274.421 370.584 274.421C371.371 274.421 372.02 274.74 372.531 275.376V274.572H373.572V280.337C373.572 281.375 373.466 282.111 373.255 282.544C373.044 282.978 372.71 283.32 372.25 283.57C371.792 283.822 371.228 283.948 370.558 283.948C369.764 283.948 369.121 283.769 368.631 283.412C368.141 283.054 367.904 282.515 367.922 281.794ZM368.856 277.787C368.856 278.662 369.03 279.3 369.377 279.702C369.725 280.104 370.161 280.305 370.685 280.305C371.203 280.305 371.638 280.105 371.989 279.706C372.341 279.306 372.517 278.679 372.517 277.825C372.517 277.01 372.336 276.395 371.975 275.981C371.613 275.565 371.176 275.358 370.665 275.358C370.162 275.358 369.735 275.562 369.383 275.971C369.032 276.378 368.856 276.983 368.856 277.787Z" fill="black"/>
<path d="M412.828 281.085L409.261 271.88H410.579L412.972 278.567C413.165 279.103 413.327 279.605 413.457 280.074C413.599 279.572 413.764 279.069 413.953 278.567L416.439 271.88H417.682L414.077 281.085H412.828Z" fill="black"/>
<path d="M422.489 278.937L423.656 279.081C423.473 279.763 423.132 280.293 422.633 280.671C422.135 281.047 421.499 281.236 420.724 281.236C419.749 281.236 418.975 280.936 418.403 280.335C417.831 279.734 417.545 278.891 417.545 277.807C417.545 276.685 417.834 275.814 418.411 275.195C418.99 274.575 419.74 274.265 420.66 274.265C421.552 274.265 422.281 274.568 422.846 275.175C423.412 275.782 423.694 276.636 423.694 277.737C423.694 277.804 423.692 277.905 423.688 278.039H418.715C418.756 278.771 418.963 279.333 419.336 279.722C419.708 280.111 420.173 280.305 420.73 280.305C421.144 280.305 421.498 280.197 421.791 279.98C422.085 279.761 422.317 279.414 422.489 278.937ZM418.777 277.11H422.501C422.451 276.549 422.309 276.128 422.075 275.848C421.714 275.413 421.248 275.195 420.674 275.195C420.154 275.195 419.718 275.369 419.364 275.716C419.01 276.063 418.815 276.527 418.777 277.11Z" fill="black"/>
<path d="M425.064 281.085V274.416H426.081V275.426C426.34 274.953 426.58 274.642 426.8 274.492C427.02 274.341 427.261 274.265 427.525 274.265C427.906 274.265 428.293 274.386 428.687 274.629L428.297 275.677C428.021 275.514 427.745 275.432 427.469 275.432C427.221 275.432 426.999 275.507 426.802 275.655C426.605 275.804 426.465 276.01 426.382 276.274C426.256 276.676 426.193 277.116 426.193 277.593V281.085H425.064Z" fill="black"/>
<path d="M429.308 283.653L429.181 282.592C429.429 282.659 429.645 282.693 429.829 282.693C430.08 282.693 430.281 282.65 430.431 282.566C430.583 282.483 430.707 282.366 430.803 282.216C430.874 282.102 430.989 281.822 431.149 281.374C431.169 281.311 431.202 281.219 431.249 281.097L428.717 274.416H429.935L431.324 278.278C431.503 278.768 431.665 279.283 431.808 279.823C431.938 279.303 432.093 278.797 432.272 278.304L433.697 274.416H434.828L432.29 281.198C432.018 281.93 431.807 282.435 431.657 282.711C431.456 283.084 431.226 283.358 430.966 283.531C430.706 283.705 430.396 283.792 430.035 283.792C429.818 283.792 429.576 283.746 429.308 283.653Z" fill="black"/>
<path d="M438.909 279.094L440.027 278.919C440.09 279.366 440.264 279.709 440.551 279.948C440.838 280.186 441.239 280.305 441.755 280.305C442.273 280.305 442.658 280.2 442.908 279.99C443.16 279.778 443.286 279.53 443.286 279.244C443.286 278.99 443.175 278.789 442.952 278.641C442.798 278.541 442.413 278.414 441.797 278.26C440.969 278.049 440.395 277.868 440.075 277.715C439.755 277.562 439.512 277.351 439.345 277.082C439.181 276.811 439.098 276.513 439.098 276.186C439.098 275.89 439.166 275.615 439.301 275.362C439.438 275.107 439.623 274.896 439.858 274.729C440.033 274.6 440.273 274.491 440.575 274.401C440.879 274.31 441.206 274.265 441.554 274.265C442.076 274.265 442.535 274.34 442.93 274.492C443.327 274.642 443.619 274.846 443.806 275.105C443.995 275.362 444.125 275.706 444.196 276.136L443.091 276.286C443.042 275.943 442.896 275.676 442.655 275.484C442.414 275.292 442.074 275.195 441.634 275.195C441.116 275.195 440.745 275.281 440.523 275.452C440.301 275.624 440.189 275.825 440.189 276.055C440.189 276.201 440.236 276.333 440.328 276.451C440.421 276.572 440.565 276.672 440.762 276.752C440.875 276.794 441.208 276.89 441.761 277.04C442.561 277.254 443.118 277.43 443.433 277.566C443.749 277.702 443.997 277.899 444.176 278.159C444.357 278.418 444.448 278.74 444.448 279.126C444.448 279.502 444.338 279.857 444.118 280.191C443.898 280.523 443.581 280.78 443.165 280.962C442.752 281.144 442.283 281.236 441.761 281.236C440.894 281.236 440.234 281.055 439.78 280.695C439.325 280.335 439.035 279.801 438.909 279.094Z" fill="black"/>
<path d="M448.26 280.074L448.422 281.073C448.105 281.14 447.82 281.173 447.568 281.173C447.159 281.173 446.84 281.108 446.614 280.978C446.389 280.848 446.23 280.678 446.138 280.466C446.045 280.254 445.999 279.81 445.999 279.132V275.296H445.171V274.415H445.999V272.764L447.122 272.087V274.415H448.26V275.296H447.122V279.194C447.122 279.517 447.142 279.725 447.183 279.817C447.223 279.908 447.288 279.981 447.378 280.036C447.467 280.091 447.596 280.118 447.763 280.118C447.889 280.118 448.055 280.104 448.26 280.074Z" fill="black"/>
<path d="M449.353 281.085V274.416H450.37V275.426C450.63 274.953 450.87 274.642 451.089 274.492C451.309 274.341 451.551 274.265 451.815 274.265C452.195 274.265 452.582 274.386 452.976 274.629L452.586 275.677C452.31 275.514 452.034 275.432 451.758 275.432C451.511 275.432 451.288 275.507 451.091 275.655C450.894 275.804 450.754 276.01 450.671 276.274C450.545 276.676 450.482 277.116 450.482 277.593V281.085H449.353Z" fill="black"/>
<path d="M453.228 277.751C453.228 276.516 453.571 275.601 454.257 275.006C454.83 274.512 455.529 274.265 456.355 274.265C457.271 274.265 458.02 274.566 458.601 275.167C459.184 275.767 459.475 276.597 459.475 277.657C459.475 278.514 459.347 279.189 459.089 279.682C458.832 280.174 458.457 280.556 457.964 280.828C457.472 281.1 456.936 281.236 456.355 281.236C455.421 281.236 454.666 280.936 454.09 280.337C453.515 279.739 453.228 278.876 453.228 277.751ZM454.389 277.751C454.389 278.605 454.575 279.244 454.948 279.668C455.32 280.093 455.789 280.305 456.355 280.305C456.916 280.305 457.383 280.092 457.755 279.666C458.128 279.239 458.314 278.588 458.314 277.713C458.314 276.888 458.126 276.263 457.751 275.838C457.376 275.413 456.91 275.201 456.355 275.201C455.789 275.201 455.32 275.413 454.948 275.836C454.575 276.258 454.389 276.896 454.389 277.751Z" fill="black"/>
<path d="M460.8 281.085V274.416H461.817V275.364C462.307 274.631 463.015 274.265 463.939 274.265C464.341 274.265 464.711 274.337 465.048 274.482C465.386 274.627 465.638 274.816 465.806 275.051C465.973 275.285 466.091 275.563 466.158 275.884C466.199 276.095 466.22 276.461 466.22 276.984V281.085H465.088V277.028C465.088 276.567 465.044 276.223 464.956 275.995C464.869 275.767 464.713 275.586 464.49 275.45C464.266 275.314 464.003 275.245 463.702 275.245C463.22 275.245 462.804 275.398 462.454 275.704C462.104 276.009 461.93 276.588 461.93 277.442V281.085H460.8Z" fill="black"/>
<path d="M467.746 281.638L468.845 281.8C468.89 282.139 469.018 282.386 469.227 282.542C469.508 282.751 469.891 282.855 470.376 282.855C470.9 282.855 471.304 282.751 471.588 282.542C471.873 282.333 472.066 282.04 472.166 281.664C472.225 281.433 472.252 280.95 472.247 280.213C471.754 280.794 471.139 281.085 470.402 281.085C469.484 281.085 468.774 280.754 468.272 280.092C467.77 279.431 467.519 278.637 467.519 277.713C467.519 277.077 467.634 276.49 467.864 275.953C468.095 275.414 468.428 274.998 468.865 274.705C469.303 274.412 469.817 274.265 470.408 274.265C471.195 274.265 471.844 274.583 472.355 275.219V274.416H473.396V280.181C473.396 281.219 473.29 281.954 473.079 282.387C472.868 282.821 472.534 283.163 472.074 283.414C471.616 283.666 471.052 283.792 470.382 283.792C469.588 283.792 468.945 283.613 468.455 283.255C467.965 282.898 467.728 282.358 467.746 281.638ZM468.68 277.631C468.68 278.506 468.854 279.144 469.2 279.546C469.549 279.948 469.985 280.149 470.509 280.149C471.027 280.149 471.462 279.949 471.813 279.55C472.165 279.149 472.341 278.522 472.341 277.669C472.341 276.853 472.16 276.238 471.799 275.824C471.437 275.409 471 275.201 470.489 275.201C469.986 275.201 469.559 275.406 469.207 275.814C468.856 276.221 468.68 276.827 468.68 277.631Z" fill="black"/>
<path d="M43.4629 266.253H48.2856Z" fill="black"/>
<path d="M43.4629 266.253H48.2856" stroke="black" stroke-width="0.666667"/>
<path d="M20.366 266.3C20.366 265.211 20.4778 264.335 20.7015 263.672C20.9253 263.007 21.2575 262.495 21.6982 262.136C22.1403 261.776 22.6963 261.596 23.3661 261.596C23.8604 261.596 24.2938 261.696 24.6662 261.895C25.0386 262.093 25.3461 262.38 25.5886 262.755C25.8324 263.129 26.0233 263.585 26.1613 264.124C26.2993 264.661 26.3682 265.386 26.3682 266.3C26.3682 267.38 26.2571 268.251 26.0347 268.914C25.8136 269.577 25.4821 270.09 25.04 270.454C24.5992 270.815 24.0413 270.996 23.3661 270.996C22.4793 270.996 21.7826 270.678 21.2763 270.042C20.6694 269.275 20.366 268.028 20.366 266.3ZM21.5274 266.3C21.5274 267.811 21.7043 268.817 22.0579 269.318C22.4116 269.818 22.8477 270.068 23.3661 270.068C23.8859 270.068 24.3226 269.817 24.6763 269.314C25.0299 268.812 25.2068 267.807 25.2068 266.3C25.2068 264.783 25.0299 263.777 24.6763 263.28C24.3226 262.781 23.8819 262.532 23.354 262.532C22.8356 262.532 22.421 262.752 22.1102 263.191C21.7217 263.751 21.5274 264.788 21.5274 266.3Z" fill="black"/>
<path d="M28.1514 270.839V269.551H29.4394V270.839H28.1514Z" fill="black"/>
<path d="M31.0913 266.3C31.0913 265.211 31.2032 264.335 31.4269 263.672C31.6506 263.007 31.9828 262.495 32.4236 262.136C32.8657 261.776 33.4216 261.596 34.0914 261.596C34.5858 261.596 35.0191 261.696 35.3916 261.895C35.764 262.093 36.0714 262.38 36.3139 262.755C36.5577 263.129 36.7486 263.585 36.8866 264.124C37.0246 264.661 37.0936 265.386 37.0936 266.3C37.0936 267.38 36.9824 268.251 36.76 268.914C36.539 269.577 36.2074 270.09 35.7653 270.454C35.3246 270.815 34.7666 270.996 34.0914 270.996C33.2046 270.996 32.508 270.678 32.0016 270.042C31.3947 269.275 31.0913 268.028 31.0913 266.3ZM32.2528 266.3C32.2528 267.811 32.4296 268.817 32.7833 269.318C33.1369 269.818 33.573 270.068 34.0914 270.068C34.6112 270.068 35.048 269.817 35.4016 269.314C35.7553 268.812 35.9321 267.807 35.9321 266.3C35.9321 264.783 35.7553 263.777 35.4016 263.28C35.048 262.781 34.6072 262.532 34.0794 262.532C33.5609 262.532 33.1463 262.752 32.8355 263.191C32.447 263.751 32.2528 264.788 32.2528 266.3Z" fill="black"/>
<path d="M43.4629 207.157H48.2856Z" fill="black"/>
<path d="M43.4629 207.157H48.2856" stroke="black" stroke-width="0.666667"/>
<path d="M20.366 207.204C20.366 206.115 20.4778 205.239 20.7015 204.576C20.9253 203.911 21.2575 203.399 21.6982 203.04C22.1403 202.68 22.6963 202.5 23.3661 202.5C23.8604 202.5 24.2938 202.6 24.6662 202.799C25.0386 202.998 25.3461 203.284 25.5886 203.659C25.8324 204.033 26.0233 204.489 26.1613 205.028C26.2993 205.565 26.3682 206.29 26.3682 207.204C26.3682 208.284 26.2571 209.155 26.0347 209.818C25.8136 210.481 25.4821 210.995 25.04 211.358C24.5992 211.719 24.0413 211.9 23.3661 211.9C22.4793 211.9 21.7826 211.582 21.2763 210.946C20.6694 210.179 20.366 208.932 20.366 207.204ZM21.5274 207.204C21.5274 208.715 21.7043 209.721 22.0579 210.222C22.4116 210.722 22.8477 210.972 23.3661 210.972C23.8859 210.972 24.3226 210.721 24.6763 210.218C25.0299 209.716 25.2068 208.711 25.2068 207.204C25.2068 205.688 25.0299 204.681 24.6763 204.184C24.3226 203.685 23.8819 203.436 23.354 203.436C22.8356 203.436 22.421 203.656 22.1102 204.095C21.7217 204.655 21.5274 205.692 21.5274 207.204Z" fill="black"/>
<path d="M28.1514 211.743V210.455H29.4394V211.743H28.1514Z" fill="black"/>
<path d="M37.0317 210.656V211.743H30.947C30.9389 211.471 30.9825 211.21 31.0776 210.958C31.233 210.544 31.4808 210.136 31.8211 209.734C32.1627 209.332 32.6564 208.867 33.3021 208.339C34.3028 207.52 34.9786 206.87 35.3296 206.39C35.682 205.911 35.8581 205.457 35.8581 205.03C35.8581 204.582 35.6974 204.205 35.3759 203.898C35.0557 203.59 34.6384 203.436 34.124 203.436C33.5801 203.436 33.1447 203.6 32.8178 203.927C32.4909 204.252 32.3255 204.704 32.3215 205.281L31.16 205.162C31.239 204.296 31.5378 203.635 32.0562 203.181C32.576 202.727 33.2739 202.5 34.1501 202.5C35.0329 202.5 35.7315 202.745 36.246 203.235C36.7617 203.724 37.0196 204.331 37.0196 205.056C37.0196 205.424 36.9439 205.787 36.7925 206.143C36.6425 206.498 36.3926 206.872 36.043 207.266C35.6933 207.66 35.1126 208.2 34.3008 208.886C33.6216 209.455 33.1855 209.842 32.9926 210.045C32.8011 210.248 32.6423 210.451 32.5164 210.656H37.0317Z" fill="black"/>
<path d="M43.4629 148.061H48.2856Z" fill="black"/>
<path d="M43.4629 148.061H48.2856" stroke="black" stroke-width="0.666667"/>
<path d="M20.366 148.108C20.366 147.019 20.4778 146.143 20.7015 145.48C20.9253 144.815 21.2575 144.304 21.6982 143.945C22.1403 143.584 22.6963 143.404 23.3661 143.404C23.8604 143.404 24.2938 143.504 24.6662 143.704C25.0386 143.902 25.3461 144.189 25.5886 144.564C25.8324 144.937 26.0233 145.394 26.1613 145.932C26.2993 146.469 26.3682 147.195 26.3682 148.108C26.3682 149.188 26.2571 150.06 26.0347 150.723C25.8136 151.386 25.4821 151.899 25.04 152.262C24.5992 152.624 24.0413 152.804 23.3661 152.804C22.4793 152.804 21.7826 152.486 21.2763 151.85C20.6694 151.084 20.366 149.836 20.366 148.108ZM21.5274 148.108C21.5274 149.619 21.7043 150.626 22.0579 151.127C22.4116 151.626 22.8477 151.876 23.3661 151.876C23.8859 151.876 24.3226 151.625 24.6763 151.123C25.0299 150.62 25.2068 149.615 25.2068 148.108C25.2068 146.592 25.0299 145.585 24.6763 145.088C24.3226 144.59 23.8819 144.341 23.354 144.341C22.8356 144.341 22.421 144.56 22.1102 145C21.7217 145.56 21.5274 146.596 21.5274 148.108Z" fill="black"/>
<path d="M28.1514 152.647V151.359H29.4394V152.647H28.1514Z" fill="black"/>
<path d="M34.7143 152.647V150.443H30.7195V149.406L34.9213 143.442H35.8436V149.406H37.0875V150.443H35.8436V152.647H34.7143ZM34.7143 149.406V145.257L31.8307 149.406H34.7143Z" fill="black"/>
<path d="M43.4629 88.9651H48.2856Z" fill="black"/>
<path d="M43.4629 88.9651H48.2856" stroke="black" stroke-width="0.666667"/>
<path d="M20.366 89.0121C20.366 87.923 20.4778 87.0469 20.7015 86.3837C20.9253 85.7193 21.2575 85.2075 21.6982 84.8485C22.1403 84.4881 22.6963 84.308 23.3661 84.308C23.8604 84.308 24.2938 84.4078 24.6662 84.6074C25.0386 84.8056 25.3461 85.0923 25.5886 85.4674C25.8324 85.8412 26.0233 86.2973 26.1613 86.8359C26.2993 87.3731 26.3682 88.0985 26.3682 89.0121C26.3682 90.0919 26.2571 90.9633 26.0347 91.6264C25.8136 92.2896 25.4821 92.8027 25.04 93.1657C24.5992 93.5274 24.0413 93.7083 23.3661 93.7083C22.4793 93.7083 21.7826 93.3901 21.2763 92.7538C20.6694 91.9875 20.366 90.7403 20.366 89.0121ZM21.5274 89.0121C21.5274 90.5232 21.7043 91.5293 22.0579 92.0303C22.4116 92.53 22.8477 92.7799 23.3661 92.7799C23.8859 92.7799 24.3226 92.5287 24.6763 92.0263C25.0299 91.524 25.2068 90.5192 25.2068 89.0121C25.2068 87.4956 25.0299 86.4889 24.6763 85.9919C24.3226 85.4935 23.8819 85.2444 23.354 85.2444C22.8356 85.2444 22.421 85.4641 22.1102 85.9035C21.7217 86.4635 21.5274 87.4997 21.5274 89.0121Z" fill="black"/>
<path d="M28.1514 93.5518V92.2637H29.4394V93.5518H28.1514Z" fill="black"/>
<path d="M36.9551 86.6008L35.8318 86.6872C35.7314 86.2437 35.5894 85.9216 35.4058 85.7206C35.099 85.3978 34.7219 85.2363 34.2745 85.2363C33.9141 85.2363 33.598 85.3368 33.326 85.5378C32.971 85.7976 32.6904 86.1768 32.4841 86.6751C32.2791 87.1735 32.1726 87.8828 32.1646 88.8031C32.4365 88.3892 32.7694 88.0817 33.1633 87.8808C33.5571 87.6798 33.9697 87.5794 34.4011 87.5794C35.154 87.5794 35.795 87.8567 36.3242 88.4113C36.8547 88.9659 37.1199 89.6826 37.1199 90.5614C37.1199 91.1402 36.9953 91.6773 36.7461 92.173C36.497 92.6687 36.1547 93.0485 35.7193 93.3124C35.2839 93.5763 34.7896 93.7083 34.2363 93.7083C33.2945 93.7083 32.5263 93.362 31.9315 92.6694C31.338 91.9768 31.0413 90.8347 31.0413 89.2432C31.0413 87.4642 31.3695 86.1707 32.0259 85.3629C32.5993 84.6596 33.3716 84.308 34.3428 84.308C35.0676 84.308 35.661 84.5109 36.1232 84.9168C36.5867 85.3227 36.864 85.8841 36.9551 86.6008ZM32.3414 90.5695C32.3414 90.958 32.4238 91.3304 32.5886 91.6867C32.7533 92.0417 32.9844 92.313 33.2818 92.5006C33.5792 92.6868 33.8914 92.7799 34.2182 92.7799C34.6951 92.7799 35.1051 92.5876 35.448 92.2032C35.7923 91.8173 35.9645 91.2935 35.9645 90.6318C35.9645 89.9954 35.7943 89.4944 35.4541 89.1287C35.1151 88.7616 34.6884 88.5781 34.174 88.5781C33.6636 88.5781 33.2302 88.7616 32.8739 89.1287C32.5189 89.4944 32.3414 89.9747 32.3414 90.5695Z" fill="black"/>
<path d="M43.4629 29.8691H48.2856Z" fill="black"/>
<path d="M43.4629 29.8691H48.2856" stroke="black" stroke-width="0.666667"/>
<path d="M20.366 29.9162C20.366 28.827 20.4778 27.9509 20.7015 27.2878C20.9253 26.6233 21.2575 26.1116 21.6982 25.7526C22.1403 25.3922 22.6963 25.212 23.3661 25.212C23.8604 25.212 24.2938 25.3118 24.6662 25.5114C25.0386 25.7097 25.3461 25.9964 25.5886 26.3715C25.8324 26.7452 26.0233 27.2014 26.1613 27.7399C26.2993 28.2771 26.3682 29.0025 26.3682 29.9162C26.3682 30.9959 26.2571 31.8674 26.0347 32.5305C25.8136 33.1936 25.4821 33.7067 25.04 34.0697C24.5992 34.4315 24.0413 34.6123 23.3661 34.6123C22.4793 34.6123 21.7826 34.2941 21.2763 33.6578C20.6694 32.8915 20.366 31.6443 20.366 29.9162ZM21.5274 29.9162C21.5274 31.4273 21.7043 32.4334 22.0579 32.9344C22.4116 33.4341 22.8477 33.6839 23.3661 33.6839C23.8859 33.6839 24.3226 33.4327 24.6763 32.9304C25.0299 32.428 25.2068 31.4233 25.2068 29.9162C25.2068 28.3997 25.0299 27.393 24.6763 26.8959C24.3226 26.3976 23.8819 26.1484 23.354 26.1484C22.8356 26.1484 22.421 26.3681 22.1102 26.8075C21.7217 27.3675 21.5274 28.4037 21.5274 29.9162Z" fill="black"/>
<path d="M28.1514 34.4556V33.1675H29.4394V34.4556H28.1514Z" fill="black"/>
<path d="M32.8296 29.464C32.3608 29.2912 32.0131 29.0461 31.7867 28.7286C31.5617 28.4097 31.4491 28.0286 31.4491 27.5852C31.4491 26.9154 31.6896 26.3527 32.1705 25.8972C32.6528 25.4404 33.2932 25.212 34.0916 25.212C34.8954 25.212 35.5424 25.4458 36.0327 25.9133C36.5231 26.3795 36.7682 26.9475 36.7682 27.6173C36.7682 28.0447 36.6557 28.4164 36.4306 28.7326C36.2069 29.0474 35.8673 29.2912 35.4118 29.464C35.9771 29.6476 36.4072 29.945 36.7019 30.3563C36.9966 30.7662 37.144 31.2558 37.144 31.8252C37.144 32.6115 36.8653 33.2727 36.308 33.8085C35.7521 34.3444 35.02 34.6123 34.1117 34.6123C33.2034 34.6123 32.4706 34.3437 31.9133 33.8065C31.356 33.268 31.0774 32.5968 31.0774 31.793C31.0774 31.1942 31.2294 30.6932 31.5335 30.2899C31.8376 29.8854 32.2697 29.6101 32.8296 29.464ZM32.6046 27.547C32.6046 27.9824 32.7446 28.3387 33.0246 28.6161C33.3059 28.892 33.6703 29.03 34.1177 29.03C34.5531 29.03 34.9101 28.8934 35.1888 28.6201C35.4674 28.3454 35.6067 28.0092 35.6067 27.6113C35.6067 27.196 35.4627 26.8471 35.1747 26.5644C34.888 26.2817 34.5317 26.1404 34.1057 26.1404C33.6743 26.1404 33.3159 26.279 33.0306 26.5563C32.7466 26.8323 32.6046 27.1625 32.6046 27.547ZM32.2409 31.799C32.2409 32.1219 32.3172 32.434 32.47 32.7355C32.6227 33.0369 32.8497 33.2706 33.1512 33.4368C33.4526 33.6015 33.7768 33.6839 34.1237 33.6839C34.6636 33.6839 35.1091 33.5104 35.46 33.1635C35.8124 32.8152 35.9885 32.3731 35.9885 31.8372C35.9885 31.2933 35.8077 30.8432 35.446 30.4869C35.0843 30.1305 34.6308 29.9523 34.0856 29.9523C33.5537 29.9523 33.113 30.1285 32.7633 30.4808C32.415 30.8318 32.2409 31.2712 32.2409 31.799Z" fill="black"/>
<path d="M10.356 166.707H-8.72128e-05V163.14C-8.72128e-05 162.335 0.0488936 161.72 0.146855 161.295C0.284001 160.703 0.531166 160.197 0.888349 159.778C1.35103 159.231 1.94181 158.823 2.6607 158.553C3.37808 158.282 4.19794 158.146 5.12029 158.146C5.90699 158.146 6.60403 158.238 7.21139 158.422C7.81875 158.604 8.32212 158.839 8.72151 159.127C9.11938 159.415 9.43286 159.73 9.66194 160.072C9.88951 160.413 10.0621 160.824 10.1796 161.306C10.2972 161.789 10.356 162.343 10.356 162.97V166.707ZM9.13294 165.337V163.126C9.13294 162.443 9.06965 161.908 8.94305 161.519C8.81645 161.13 8.63711 160.82 8.40501 160.59C8.08099 160.264 7.64468 160.011 7.0961 159.83C6.54751 159.649 5.88213 159.559 5.09994 159.559C4.01634 159.559 3.18366 159.737 2.60192 160.092C2.02018 160.448 1.6306 160.88 1.43317 161.388C1.2915 161.755 1.22066 162.346 1.22066 163.16V165.337H9.13294Z" fill="black"/>
<path d="M7.93945 151.285L8.10222 149.972C8.86933 150.178 9.46539 150.562 9.89039 151.122C10.3139 151.683 10.5256 152.399 10.5256 153.27C10.5256 154.367 10.188 155.238 9.51286 155.881C8.83617 156.525 7.88821 156.846 6.66896 156.846C5.40601 156.846 4.4264 156.522 3.73012 155.872C3.03233 155.221 2.68344 154.378 2.68344 153.342C2.68344 152.339 3.02479 151.519 3.70751 150.883C4.39023 150.247 5.351 149.929 6.58984 149.929C6.6652 149.929 6.77823 149.931 6.92894 149.936V155.531C7.75332 155.484 8.3848 155.251 8.82336 154.832C9.26042 154.413 9.47895 153.89 9.47895 153.263C9.47895 152.798 9.35688 152.4 9.11273 152.07C8.86707 151.74 8.47598 151.478 7.93945 151.285ZM5.88452 155.461V151.272C5.25304 151.327 4.77981 151.487 4.46483 151.751C3.97502 152.156 3.73012 152.682 3.73012 153.327C3.73012 153.911 3.92529 154.403 4.31563 154.801C4.70597 155.198 5.22893 155.418 5.88452 155.461Z" fill="black"/>
<path d="M10.356 148.375H2.85286V147.231H3.91988C3.0955 146.68 2.68331 145.884 2.68331 144.844C2.68331 144.392 2.76469 143.976 2.92746 143.596C3.09022 143.216 3.30348 142.932 3.56722 142.744C3.83096 142.555 4.14369 142.423 4.50539 142.348C4.74201 142.301 5.1542 142.278 5.74197 142.278H10.356V143.551H5.7917C5.27326 143.551 4.88593 143.601 4.62973 143.7C4.37352 143.798 4.16931 143.973 4.01709 144.224C3.86337 144.476 3.7865 144.772 3.7865 145.111C3.7865 145.653 3.95831 146.121 4.30193 146.514C4.64555 146.908 5.29737 147.105 6.2574 147.105H10.356V148.375Z" fill="black"/>
<path d="M8.11578 140.837L7.9191 139.58C8.42248 139.509 8.80829 139.313 9.07656 138.99C9.34482 138.668 9.47895 138.216 9.47895 137.636C9.47895 137.053 9.36065 136.62 9.12403 136.338C8.88591 136.055 8.60634 135.913 8.28533 135.913C7.99898 135.913 7.77292 136.039 7.60713 136.289C7.4941 136.462 7.35093 136.895 7.17761 137.589C6.941 138.52 6.73678 139.166 6.56497 139.526C6.39316 139.886 6.1558 140.16 5.85287 140.347C5.54843 140.532 5.21235 140.625 4.84462 140.625C4.51155 140.625 4.20259 140.549 3.91775 140.396C3.6314 140.243 3.39403 140.034 3.20565 139.77C3.06096 139.573 2.93814 139.304 2.83716 138.963C2.73468 138.621 2.68344 138.254 2.68344 137.862C2.68344 137.274 2.76859 136.758 2.93889 136.314C3.10768 135.867 3.33752 135.539 3.62839 135.328C3.91775 135.115 4.30432 134.969 4.7881 134.889L4.95765 136.133C4.57183 136.189 4.27117 136.352 4.05565 136.623C3.83863 136.895 3.73012 137.277 3.73012 137.772C3.73012 138.355 3.82657 138.772 4.01948 139.022C4.21239 139.272 4.43845 139.397 4.69768 139.397C4.86195 139.397 5.0104 139.345 5.14302 139.241C5.27866 139.137 5.3917 138.974 5.48212 138.753C5.52884 138.626 5.6366 138.252 5.8054 137.629C6.04653 136.73 6.24396 136.103 6.39769 135.748C6.5499 135.393 6.7722 135.114 7.06458 134.912C7.35545 134.709 7.71791 134.607 8.15195 134.607C8.57545 134.607 8.97483 134.73 9.3501 134.978C9.72386 135.225 10.0132 135.582 10.2182 136.049C10.4232 136.515 10.5256 137.042 10.5256 137.629C10.5256 138.604 10.3229 139.347 9.91752 139.858C9.51211 140.369 8.91153 140.695 8.11578 140.837Z" fill="black"/>
<path d="M1.46255 133.088H-8.72128e-05V131.815H1.46255V133.088ZM10.356 133.088H2.85285V131.815H10.356V133.088Z" fill="black"/>
<path d="M9.21899 127.104L10.3425 126.921C10.4179 127.278 10.4556 127.598 10.4556 127.881C10.4556 128.343 10.3825 128.701 10.2363 128.955C10.0901 129.208 9.89794 129.387 9.65982 129.491C9.4217 129.595 8.92134 129.647 8.15874 129.647H3.84316V130.578H2.853V129.647H0.994741L0.232902 128.383H2.853V127.104H3.84316V128.383H8.22882C8.59204 128.383 8.82564 128.361 8.92963 128.315C9.03211 128.27 9.11425 128.197 9.17604 128.096C9.23783 127.995 9.26872 127.851 9.26872 127.662C9.26872 127.52 9.25215 127.334 9.21899 127.104Z" fill="black"/>
<path d="M13.2451 125.917L12.0515 126.059C12.1269 125.78 12.1645 125.538 12.1645 125.331C12.1645 125.048 12.1171 124.822 12.0221 124.653C11.9287 124.483 11.7976 124.343 11.6288 124.235C11.5007 124.155 11.1849 124.025 10.6816 123.846C10.6107 123.823 10.5067 123.786 10.3696 123.733L2.85292 126.581V125.211L7.1979 123.649C7.74949 123.447 8.32897 123.266 8.93634 123.104C8.35158 122.958 7.7819 122.784 7.22728 122.582L2.85292 120.979V119.707L10.4826 122.562C11.307 122.868 11.8744 123.105 12.1849 123.274C12.6054 123.5 12.9128 123.759 13.1072 124.052C13.3032 124.344 13.4011 124.693 13.4011 125.098C13.4011 125.342 13.3491 125.615 13.2451 125.917Z" fill="black"/>
<path d="M43.4629 266.253V21.1523" stroke="black" stroke-width="0.666667" stroke-linecap="square"/>
<path d="M43.4629 266.253H495.026" stroke="black" stroke-width="0.666667" stroke-linecap="square"/>
<path d="M73.7632 229.195L74.8925 229.045C75.0225 229.685 75.2435 230.147 75.5556 230.429C75.8678 230.712 76.2476 230.853 76.695 230.853C77.2268 230.853 77.6756 230.669 78.0413 230.301C78.4084 229.932 78.5919 229.475 78.5919 228.93C78.5919 228.412 78.4225 227.984 78.0835 227.648C77.7446 227.311 77.3132 227.142 76.7894 227.142C76.5764 227.142 76.3105 227.183 75.9917 227.266L76.1183 226.274C76.1933 226.283 76.2536 226.288 76.2991 226.288C76.7814 226.288 77.2148 226.162 77.5993 225.912C77.9851 225.66 78.178 225.272 78.178 224.748C78.178 224.334 78.0373 223.992 77.756 223.72C77.476 223.446 77.1143 223.31 76.6709 223.31C76.2315 223.31 75.8651 223.448 75.5717 223.726C75.2783 224.002 75.0901 224.416 75.007 224.967L73.8757 224.767C74.0137 224.01 74.3272 223.423 74.8161 223.006C75.3065 222.59 75.916 222.381 76.6448 222.381C77.1471 222.381 77.6093 222.489 78.0313 222.705C78.4546 222.92 78.7781 223.215 79.0019 223.587C79.2269 223.959 79.3395 224.355 79.3395 224.775C79.3395 225.171 79.2323 225.533 79.0179 225.86C78.8049 226.187 78.4895 226.446 78.0715 226.639C78.6154 226.764 79.038 227.024 79.3395 227.421C79.6409 227.816 79.7916 228.311 79.7916 228.906C79.7916 229.71 79.4982 230.391 78.9114 230.95C78.326 231.508 77.5852 231.788 76.689 231.788C75.8812 231.788 75.21 231.547 74.6755 231.066C74.1423 230.584 73.8382 229.96 73.7632 229.195Z" fill="black"/>
<path d="M82.648 226.633C82.1791 226.46 81.8315 226.215 81.6051 225.898C81.38 225.579 81.2675 225.198 81.2675 224.754C81.2675 224.085 81.508 223.522 81.9889 223.066C82.4712 222.61 83.1115 222.381 83.91 222.381C84.7137 222.381 85.3608 222.615 85.8511 223.083C86.3414 223.549 86.5866 224.117 86.5866 224.787C86.5866 225.214 86.474 225.586 86.249 225.902C86.0253 226.217 85.6857 226.46 85.2302 226.633C85.7955 226.817 86.2255 227.114 86.5203 227.525C86.815 227.935 86.9623 228.425 86.9623 228.994C86.9623 229.781 86.6837 230.442 86.1264 230.978C85.5704 231.514 84.8383 231.781 83.93 231.781C83.0218 231.781 82.289 231.513 81.7317 230.976C81.1744 230.437 80.8958 229.766 80.8958 228.962C80.8958 228.363 81.0478 227.862 81.3519 227.459C81.656 227.055 82.088 226.779 82.648 226.633ZM82.4229 224.716C82.4229 225.152 82.5629 225.508 82.8429 225.785C83.1243 226.061 83.4886 226.199 83.9361 226.199C84.3715 226.199 84.7285 226.063 85.0071 225.789C85.2858 225.515 85.4251 225.178 85.4251 224.781C85.4251 224.365 85.2811 224.016 84.9931 223.734C84.7064 223.451 84.35 223.31 83.924 223.31C83.4927 223.31 83.1343 223.448 82.849 223.726C82.5649 224.002 82.4229 224.332 82.4229 224.716ZM82.0592 228.968C82.0592 229.291 82.1356 229.603 82.2883 229.905C82.441 230.206 82.6681 230.44 82.9695 230.606C83.2709 230.771 83.5951 230.853 83.9421 230.853C84.482 230.853 84.9274 230.68 85.2784 230.333C85.6307 229.984 85.8069 229.542 85.8069 229.006C85.8069 228.463 85.626 228.012 85.2643 227.656C84.9026 227.3 84.4492 227.122 83.9039 227.122C83.3721 227.122 82.9313 227.298 82.5817 227.65C82.2334 228.001 82.0592 228.44 82.0592 228.968Z" fill="black"/>
<path d="M159.999 218.747L161.185 218.646C161.273 219.224 161.477 219.658 161.797 219.951C162.118 220.241 162.504 220.387 162.957 220.387C163.501 220.387 163.961 220.182 164.337 219.772C164.714 219.36 164.902 218.816 164.902 218.138C164.902 217.494 164.721 216.985 164.36 216.613C163.998 216.239 163.524 216.052 162.937 216.052C162.572 216.052 162.244 216.135 161.95 216.301C161.658 216.466 161.428 216.68 161.261 216.944L160.2 216.806L161.09 212.077H165.67V213.159H161.994L161.5 215.632C162.052 215.246 162.631 215.053 163.238 215.053C164.042 215.053 164.72 215.332 165.272 215.889C165.825 216.447 166.102 217.163 166.102 218.037C166.102 218.871 165.859 219.591 165.374 220.198C164.784 220.943 163.978 221.315 162.957 221.315C162.12 221.315 161.436 221.081 160.905 220.612C160.376 220.143 160.074 219.521 159.999 218.747Z" fill="black"/>
<path d="M171.408 221.158H170.278V213.957C170.006 214.215 169.649 214.474 169.207 214.734C168.765 214.994 168.369 215.189 168.018 215.319V214.226C168.65 213.928 169.202 213.569 169.675 213.147C170.148 212.723 170.483 212.313 170.68 211.915H171.408V221.158Z" fill="black"/>
<path d="M252.105 204.546L250.982 204.633C250.881 204.189 250.739 203.867 250.556 203.666C250.249 203.343 249.872 203.182 249.424 203.182C249.064 203.182 248.748 203.282 248.476 203.483C248.121 203.743 247.84 204.122 247.634 204.621C247.429 205.119 247.322 205.828 247.314 206.749C247.586 206.335 247.919 206.027 248.313 205.826C248.707 205.625 249.12 205.525 249.551 205.525C250.304 205.525 250.945 205.802 251.474 206.357C252.005 206.911 252.27 207.628 252.27 208.507C252.27 209.086 252.145 209.623 251.896 210.119C251.647 210.614 251.305 210.994 250.869 211.258C250.434 211.522 249.939 211.654 249.386 211.654C248.444 211.654 247.676 211.308 247.081 210.615C246.488 209.922 246.191 208.78 246.191 207.189C246.191 205.41 246.519 204.116 247.176 203.308C247.749 202.605 248.521 202.254 249.493 202.254C250.217 202.254 250.811 202.456 251.273 202.862C251.737 203.268 252.014 203.83 252.105 204.546ZM247.491 208.515C247.491 208.904 247.574 209.276 247.738 209.632C247.903 209.987 248.134 210.259 248.432 210.446C248.729 210.632 249.041 210.725 249.368 210.725C249.845 210.725 250.255 210.533 250.598 210.149C250.942 209.763 251.114 209.239 251.114 208.577C251.114 207.941 250.944 207.44 250.604 207.074C250.265 206.707 249.838 206.524 249.324 206.524C248.814 206.524 248.38 206.707 248.024 207.074C247.669 207.44 247.491 207.92 247.491 208.515Z" fill="black"/>
<path d="M253.4 209.067L254.529 208.917C254.659 209.557 254.88 210.019 255.192 210.301C255.504 210.584 255.884 210.725 256.332 210.725C256.864 210.725 257.312 210.541 257.678 210.173C258.045 209.804 258.229 209.347 258.229 208.802C258.229 208.284 258.059 207.856 257.72 207.52C257.381 207.183 256.95 207.014 256.426 207.014C256.213 207.014 255.947 207.055 255.628 207.138L255.755 206.146C255.83 206.155 255.89 206.16 255.936 206.16C256.418 206.16 256.851 206.034 257.236 205.784C257.622 205.532 257.815 205.144 257.815 204.621C257.815 204.207 257.674 203.864 257.393 203.592C257.113 203.318 256.751 203.182 256.308 203.182C255.868 203.182 255.502 203.32 255.208 203.598C254.915 203.874 254.727 204.288 254.644 204.84L253.512 204.639C253.65 203.882 253.964 203.295 254.453 202.878C254.943 202.462 255.553 202.253 256.281 202.253C256.784 202.253 257.246 202.361 257.668 202.577C258.091 202.793 258.415 203.087 258.639 203.459C258.864 203.831 258.976 204.227 258.976 204.647C258.976 205.043 258.869 205.405 258.655 205.732C258.442 206.059 258.126 206.319 257.708 206.511C258.252 206.636 258.675 206.897 258.976 207.293C259.278 207.688 259.428 208.183 259.428 208.778C259.428 209.582 259.135 210.263 258.548 210.822C257.963 211.38 257.222 211.66 256.326 211.66C255.518 211.66 254.847 211.419 254.312 210.938C253.779 210.456 253.475 209.832 253.4 209.067Z" fill="black"/>
<path d="M338.347 200.52L337.224 200.607C337.123 200.163 336.981 199.841 336.798 199.64C336.491 199.317 336.114 199.156 335.666 199.156C335.306 199.156 334.99 199.256 334.718 199.457C334.363 199.717 334.082 200.096 333.876 200.595C333.671 201.093 333.564 201.802 333.556 202.723C333.828 202.309 334.161 202.001 334.555 201.8C334.949 201.6 335.362 201.499 335.793 201.499C336.546 201.499 337.187 201.776 337.716 202.331C338.246 202.886 338.512 203.602 338.512 204.481C338.512 205.06 338.387 205.597 338.138 206.093C337.889 206.588 337.547 206.968 337.111 207.232C336.676 207.496 336.181 207.628 335.628 207.628C334.686 207.628 333.918 207.282 333.323 206.589C332.73 205.896 332.433 204.754 332.433 203.163C332.433 201.384 332.761 200.09 333.418 199.283C333.991 198.579 334.763 198.228 335.735 198.228C336.459 198.228 337.053 198.431 337.515 198.837C337.979 199.242 338.256 199.804 338.347 200.52ZM333.733 204.489C333.733 204.878 333.816 205.25 333.98 205.606C334.145 205.961 334.376 206.233 334.674 206.42C334.971 206.606 335.283 206.7 335.61 206.7C336.087 206.7 336.497 206.507 336.84 206.123C337.184 205.737 337.356 205.213 337.356 204.551C337.356 203.915 337.186 203.414 336.846 203.048C336.507 202.681 336.08 202.498 335.566 202.498C335.055 202.498 334.622 202.681 334.266 203.048C333.911 203.414 333.733 203.894 333.733 204.489Z" fill="black"/>
<path d="M341.374 202.48C340.905 202.307 340.557 202.062 340.331 201.744C340.106 201.425 339.993 201.044 339.993 200.601C339.993 199.931 340.234 199.368 340.715 198.913C341.197 198.456 341.837 198.228 342.636 198.228C343.44 198.228 344.087 198.461 344.577 198.929C345.067 199.395 345.312 199.963 345.312 200.633C345.312 201.06 345.2 201.432 344.975 201.748C344.751 202.063 344.411 202.307 343.956 202.48C344.521 202.663 344.951 202.961 345.246 203.372C345.541 203.782 345.688 204.271 345.688 204.841C345.688 205.627 345.41 206.288 344.852 206.824C344.296 207.36 343.564 207.628 342.656 207.628C341.748 207.628 341.015 207.359 340.458 206.822C339.9 206.284 339.622 205.612 339.622 204.809C339.622 204.21 339.774 203.709 340.078 203.306C340.382 202.901 340.814 202.626 341.374 202.48ZM341.149 200.563C341.149 200.998 341.289 201.354 341.569 201.632C341.85 201.908 342.214 202.046 342.662 202.046C343.097 202.046 343.454 201.909 343.733 201.636C344.012 201.361 344.151 201.025 344.151 200.627C344.151 200.212 344.007 199.863 343.719 199.58C343.432 199.297 343.076 199.156 342.65 199.156C342.218 199.156 341.86 199.295 341.575 199.572C341.291 199.848 341.149 200.178 341.149 200.563ZM340.785 204.815C340.785 205.138 340.861 205.45 341.014 205.751C341.167 206.053 341.394 206.286 341.695 206.452C341.997 206.617 342.321 206.7 342.668 206.7C343.208 206.7 343.653 206.526 344.004 206.179C344.357 205.831 344.533 205.389 344.533 204.853C344.533 204.309 344.352 203.859 343.99 203.502C343.628 203.146 343.175 202.968 342.63 202.968C342.098 202.968 341.657 203.144 341.308 203.496C340.959 203.847 340.785 204.287 340.785 204.815Z" fill="black"/>
<path d="M419.406 143.866H418.276V136.665C418.004 136.923 417.647 137.182 417.205 137.442C416.763 137.702 416.367 137.897 416.016 138.027V136.934C416.648 136.636 417.201 136.277 417.673 135.855C418.146 135.431 418.481 135.021 418.678 134.623H419.406V143.866Z" fill="black"/>
<path d="M425.925 143.866V141.662H421.93V140.625L426.132 134.661H427.054V140.625H428.298V141.662H427.054V143.866H425.925ZM425.925 140.625V136.476L423.041 140.625H425.925Z" fill="black"/>
<path d="M429.529 135.867V134.78H435.489V135.66C434.902 136.283 434.321 137.111 433.745 138.145C433.17 139.18 432.726 140.243 432.413 141.337C432.186 142.107 432.042 142.95 431.979 143.866H430.817C430.829 143.142 430.971 142.267 431.243 141.242C431.515 140.216 431.906 139.227 432.415 138.274C432.924 137.322 433.465 136.519 434.038 135.867H429.529Z" fill="black"/>
<path d="M106.604 20.7906V19.7035H112.564V20.5836C111.977 21.2066 111.395 22.0351 110.819 23.0693C110.245 24.1035 109.801 25.1672 109.487 26.2604C109.261 27.0307 109.116 27.874 109.053 28.7903H107.892C107.904 28.0655 108.046 27.1907 108.318 26.1659C108.59 25.1397 108.98 24.1504 109.489 23.1979C109.998 22.2454 110.539 21.443 111.113 20.7906H106.604Z" fill="black"/>
<path d="M113.85 26.6625L114.938 26.562C115.029 27.0724 115.204 27.4428 115.464 27.6733C115.724 27.9037 116.057 28.0189 116.463 28.0189C116.81 28.0189 117.114 27.9392 117.375 27.7798C117.638 27.6203 117.853 27.408 118.02 27.1428C118.188 26.8762 118.328 26.5171 118.44 26.0657C118.554 25.6129 118.611 25.1521 118.611 24.6832C118.611 24.6336 118.609 24.5586 118.605 24.4581C118.378 24.8171 118.07 25.1092 117.678 25.3342C117.287 25.558 116.863 25.6698 116.406 25.6698C115.644 25.6698 114.999 25.3939 114.471 24.8419C113.945 24.2886 113.682 23.5599 113.682 22.6556C113.682 21.7219 113.957 20.9703 114.508 20.401C115.058 19.8316 115.747 19.547 116.575 19.547C117.174 19.547 117.721 19.7084 118.217 20.0313C118.714 20.3528 119.091 20.8123 119.348 21.4098C119.606 22.0059 119.734 22.8693 119.734 24C119.734 25.1762 119.606 26.1126 119.35 26.8092C119.096 27.5058 118.716 28.0363 118.211 28.4007C117.707 28.7651 117.116 28.9473 116.439 28.9473C115.718 28.9473 115.129 28.7477 114.672 28.3484C114.217 27.9479 113.943 27.3859 113.85 26.6625ZM118.478 22.5994C118.478 21.9496 118.305 21.4345 117.96 21.0541C117.616 20.6736 117.2 20.4834 116.714 20.4834C116.212 20.4834 115.774 20.6884 115.402 21.0983C115.029 21.5082 114.843 22.0401 114.843 22.6938C114.843 23.2792 115.02 23.7555 115.374 24.1225C115.727 24.4883 116.163 24.6711 116.682 24.6711C117.206 24.6711 117.636 24.4883 117.972 24.1225C118.309 23.7555 118.478 23.2477 118.478 22.5994Z" fill="black"/>
<path d="M197.027 214.943H195.898V207.741C195.626 207.999 195.269 208.259 194.827 208.519C194.385 208.778 193.988 208.973 193.637 209.103V208.01C194.27 207.713 194.822 207.353 195.295 206.931C195.768 206.508 196.103 206.097 196.3 205.699H197.027V214.943Z" fill="black"/>
<path d="M205.787 207.992L204.664 208.078C204.563 207.635 204.421 207.313 204.238 207.112C203.931 206.789 203.554 206.627 203.107 206.627C202.746 206.627 202.43 206.728 202.158 206.929C201.803 207.189 201.522 207.568 201.316 208.066C201.111 208.565 201.005 209.274 200.997 210.194C201.269 209.78 201.601 209.473 201.995 209.272C202.389 209.071 202.802 208.97 203.233 208.97C203.986 208.97 204.627 209.248 205.156 209.802C205.687 210.357 205.952 211.074 205.952 211.953C205.952 212.531 205.827 213.068 205.578 213.564C205.329 214.06 204.987 214.44 204.551 214.704C204.116 214.967 203.622 215.099 203.068 215.099C202.127 215.099 201.358 214.753 200.763 214.06C200.17 213.368 199.873 212.226 199.873 210.634C199.873 208.855 200.202 207.562 200.858 206.754C201.431 206.051 202.204 205.699 203.175 205.699C203.9 205.699 204.493 205.902 204.955 206.308C205.419 206.714 205.696 207.275 205.787 207.992ZM201.173 211.961C201.173 212.349 201.256 212.721 201.421 213.078C201.585 213.433 201.816 213.704 202.114 213.892C202.411 214.078 202.723 214.171 203.05 214.171C203.527 214.171 203.937 213.979 204.28 213.594C204.624 213.208 204.796 212.685 204.796 212.023C204.796 211.387 204.626 210.886 204.286 210.52C203.947 210.153 203.52 209.969 203.006 209.969C202.496 209.969 202.062 210.153 201.706 210.52C201.351 210.886 201.173 211.366 201.173 211.961Z" fill="black"/>
<path d="M282.595 250.926L283.724 250.775C283.854 251.415 284.075 251.877 284.387 252.159C284.7 252.442 285.079 252.583 285.527 252.583C286.059 252.583 286.507 252.399 286.873 252.031C287.24 251.662 287.424 251.206 287.424 250.66C287.424 250.142 287.254 249.715 286.915 249.378C286.576 249.041 286.145 248.872 285.621 248.872C285.408 248.872 285.142 248.913 284.823 248.997L284.95 248.004C285.025 248.013 285.085 248.018 285.131 248.018C285.613 248.018 286.047 247.893 286.431 247.642C286.817 247.39 287.01 247.002 287.01 246.479C287.01 246.065 286.869 245.722 286.588 245.45C286.308 245.177 285.946 245.04 285.503 245.04C285.063 245.04 284.697 245.179 284.403 245.456C284.11 245.732 283.922 246.146 283.839 246.698L282.708 246.497C282.845 245.74 283.159 245.153 283.648 244.736C284.138 244.32 284.748 244.112 285.477 244.112C285.979 244.112 286.441 244.219 286.863 244.435C287.286 244.651 287.61 244.945 287.834 245.317C288.059 245.69 288.171 246.085 288.171 246.505C288.171 246.901 288.064 247.263 287.85 247.59C287.637 247.917 287.321 248.177 286.903 248.37C287.447 248.494 287.87 248.755 288.171 249.151C288.473 249.546 288.623 250.041 288.623 250.636C288.623 251.44 288.33 252.121 287.743 252.68C287.158 253.239 286.417 253.518 285.521 253.518C284.713 253.518 284.042 253.277 283.507 252.796C282.974 252.314 282.67 251.691 282.595 250.926Z" fill="black"/>
<path d="M373.087 259.265H371.958V252.063C371.686 252.322 371.329 252.581 370.887 252.841C370.445 253.101 370.048 253.295 369.697 253.425V252.332C370.33 252.035 370.882 251.675 371.355 251.253C371.828 250.83 372.163 250.419 372.36 250.021H373.087V259.265Z" fill="black"/>
<path d="M459.329 259.265H458.2V252.063C457.928 252.322 457.571 252.581 457.129 252.841C456.687 253.101 456.29 253.295 455.939 253.425V252.332C456.572 252.035 457.124 251.675 457.597 251.253C458.07 250.83 458.405 250.419 458.602 250.021H459.329V259.265Z" fill="black"/>
<path d="M232.053 11.5068V0.000119992H236.393C237.157 0.000119992 237.741 0.036123 238.144 0.108129C238.709 0.203579 239.182 0.383593 239.563 0.648173C239.947 0.911079 240.255 1.28116 240.488 1.7584C240.72 2.23398 240.837 2.75728 240.837 3.3283C240.837 4.30624 240.525 5.13431 239.902 5.81251C239.28 6.48903 238.154 6.82729 236.527 6.82729H233.575V11.5068H232.053ZM233.575 5.4709H236.549C237.534 5.4709 238.233 5.28753 238.647 4.9208C239.06 4.55408 239.267 4.03831 239.267 3.37351C239.267 2.89292 239.145 2.48181 238.9 2.1402C238.657 1.79692 238.338 1.57002 237.941 1.4595C237.683 1.39084 237.209 1.35651 236.519 1.35651H233.575V5.4709Z" fill="black"/>
<path d="M242.594 11.5068V0.000119992H244.006V4.12706C244.666 3.36347 245.498 2.98167 246.503 2.98167C247.121 2.98167 247.658 3.10391 248.113 3.3484C248.568 3.59121 248.894 3.92696 249.09 4.35564C249.286 4.78433 249.384 5.40726 249.384 6.22445V11.5068H247.972V6.22445C247.972 5.51778 247.819 5.0037 247.513 4.68218C247.206 4.36067 246.773 4.19991 246.214 4.19991C245.795 4.19991 245.401 4.30875 245.031 4.52645C244.663 4.74246 244.4 5.03635 244.242 5.4081C244.085 5.77985 244.006 6.29227 244.006 6.94534V11.5068H242.594Z" fill="black"/>
<path d="M257.242 8.82177L258.701 9.00263C258.472 9.85497 258.046 10.5173 257.423 10.9895C256.8 11.46 256.004 11.6953 255.036 11.6953C253.817 11.6953 252.85 11.3202 252.135 10.57C251.42 9.81813 251.063 8.76484 251.063 7.41012C251.063 6.00684 251.424 4.91838 252.145 4.14474C252.869 3.36942 253.806 2.98176 254.956 2.98176C256.071 2.98176 256.982 3.36104 257.689 4.11962C258.396 4.87819 258.749 5.94572 258.749 7.32221C258.749 7.40594 258.746 7.53153 258.741 7.69898H252.525C252.577 8.61497 252.835 9.31661 253.301 9.8039C253.766 10.2895 254.347 10.5323 255.044 10.5323C255.561 10.5323 256.004 10.3967 256.37 10.1254C256.737 9.85246 257.028 9.41792 257.242 8.82177ZM252.602 6.53852H257.257C257.195 5.83688 257.017 5.31107 256.724 4.96108C256.274 4.41685 255.69 4.14474 254.974 4.14474C254.324 4.14474 253.778 4.36159 253.336 4.7953C252.894 5.22901 252.649 5.81008 252.602 6.53852Z" fill="black"/>
<path d="M260.476 11.5068V3.17006H261.747V4.35564C262.359 3.43966 263.244 2.98167 264.399 2.98167C264.901 2.98167 265.364 3.0721 265.786 3.25295C266.208 3.4338 266.523 3.67075 266.733 3.9638C266.942 4.25684 267.088 4.60431 267.172 5.00621C267.224 5.26911 267.25 5.7271 267.25 6.38018V11.5068H265.836V6.43544C265.836 5.85939 265.781 5.42903 265.67 5.14436C265.561 4.85968 265.367 4.63278 265.087 4.46365C264.808 4.29285 264.479 4.20744 264.103 4.20744C263.5 4.20744 262.98 4.39834 262.543 4.78014C262.106 5.16194 261.887 5.88619 261.887 6.95288V11.5068H260.476Z" fill="black"/>
<path d="M268.891 7.33979C268.891 5.79585 269.32 4.65213 270.177 3.90862C270.894 3.29071 271.768 2.98176 272.8 2.98176C273.945 2.98176 274.881 3.3577 275.608 4.10957C276.336 4.85977 276.701 5.89716 276.701 7.22173C276.701 8.29345 276.54 9.13743 276.218 9.75366C275.897 10.3682 275.428 10.8455 274.812 11.1854C274.197 11.5253 273.527 11.6953 272.8 11.6953C271.633 11.6953 270.689 11.321 269.969 10.5725C269.251 9.824 268.891 8.74642 268.891 7.33979ZM270.343 7.33979C270.343 8.40648 270.576 9.20525 271.041 9.73608C271.507 10.2669 272.093 10.5323 272.8 10.5323C273.501 10.5323 274.085 10.2661 274.551 9.73357C275.016 9.19939 275.249 8.38555 275.249 7.29207C275.249 6.26054 275.014 5.47936 274.545 4.94852C274.077 4.41769 273.495 4.15227 272.8 4.15227C272.093 4.15227 271.507 4.41685 271.041 4.94601C270.576 5.4735 270.343 6.27142 270.343 7.33979Z" fill="black"/>
<path d="M281.441 10.2432L281.645 11.4916C281.248 11.5753 280.892 11.6172 280.577 11.6172C280.065 11.6172 279.667 11.536 279.384 11.3735C279.103 11.2111 278.904 10.9976 278.789 10.733C278.673 10.4684 278.615 9.91249 278.615 9.06516V4.27007H277.581V3.16989H278.615V1.10516L280.02 0.258671V3.16989H281.441V4.27007H280.02V9.14303C280.02 9.5466 280.045 9.80615 280.095 9.9217C280.145 10.0356 280.226 10.1268 280.339 10.1955C280.451 10.2641 280.612 10.2985 280.821 10.2985C280.978 10.2985 281.185 10.2801 281.441 10.2432Z" fill="black"/>
<path d="M282.76 14.7168L282.602 13.3906C282.912 13.4743 283.182 13.5162 283.411 13.5162C283.726 13.5162 283.977 13.4634 284.165 13.3579C284.354 13.2541 284.509 13.1084 284.629 12.9209C284.718 12.7785 284.862 12.4277 285.061 11.8684C285.086 11.7897 285.128 11.6742 285.187 11.5218L282.022 3.16991H283.544L285.28 7.99766C285.504 8.61055 285.706 9.25442 285.885 9.92926C286.048 9.27953 286.241 8.64655 286.465 8.03032L288.246 3.16991H289.66L286.488 11.6474C286.148 12.5633 285.884 13.1938 285.697 13.5388C285.446 14.006 285.158 14.3476 284.833 14.5636C284.508 14.7813 284.12 14.8901 283.67 14.8901C283.398 14.8901 283.095 14.8324 282.76 14.7168Z" fill="black"/>
<path d="M290.861 14.7019V3.17007H292.147V4.25267C292.452 3.82901 292.795 3.51168 293.177 3.30069C293.559 3.08802 294.022 2.98168 294.566 2.98168C295.278 2.98168 295.906 3.16505 296.45 3.53177C296.994 3.8985 297.404 4.41594 297.681 5.08409C297.959 5.75056 298.098 6.48151 298.098 7.27692C298.098 8.12927 297.944 8.89705 297.638 9.58027C297.333 10.2635 296.889 10.7868 296.304 11.1502C295.721 11.5135 295.108 11.6952 294.463 11.6952C293.993 11.6952 293.57 11.5956 293.195 11.3963C292.821 11.1971 292.514 10.9459 292.273 10.6428V14.7019H290.861ZM292.14 7.38493C292.14 8.45832 292.356 9.25122 292.79 9.76364C293.226 10.2761 293.752 10.5323 294.37 10.5323C294.998 10.5323 295.536 10.2668 295.983 9.73601C296.43 9.20517 296.653 8.38213 296.653 7.26687C296.653 6.2052 296.435 5.41063 295.998 4.88314C295.561 4.35398 295.039 4.0894 294.433 4.0894C293.83 4.0894 293.297 4.37073 292.833 4.93338C292.371 5.49603 292.14 6.31321 292.14 7.38493Z" fill="black"/>
<path d="M305.508 8.82177L306.968 9.00263C306.738 9.85497 306.312 10.5173 305.689 10.9895C305.066 11.46 304.271 11.6953 303.303 11.6953C302.084 11.6953 301.117 11.3202 300.402 10.57C299.687 9.81813 299.329 8.76484 299.329 7.41012C299.329 6.00684 299.69 4.91838 300.412 4.14474C301.135 3.36942 302.072 2.98176 303.223 2.98176C304.338 2.98176 305.249 3.36104 305.956 4.11962C306.662 4.87819 307.016 5.94572 307.016 7.32221C307.016 7.40594 307.013 7.53153 307.008 7.69898H300.791C300.843 8.61497 301.102 9.31661 301.567 9.8039C302.033 10.2895 302.614 10.5323 303.311 10.5323C303.828 10.5323 304.27 10.3967 304.637 10.1254C305.004 9.85246 305.294 9.41792 305.508 8.82177ZM300.869 6.53852H305.524C305.462 5.83688 305.284 5.31107 304.991 4.96108C304.541 4.41685 303.957 4.14474 303.24 4.14474C302.591 4.14474 302.045 4.36159 301.603 4.7953C301.16 5.22901 300.916 5.81008 300.869 6.53852Z" fill="black"/>
<path d="M118.178 308.945H140.684V301.068H118.178V308.945Z" fill="#516FD9"/>
<path d="M150.555 308.945V300.891H153.593C154.128 300.891 154.536 300.916 154.819 300.966C155.214 301.033 155.545 301.159 155.812 301.344C156.081 301.528 156.296 301.787 156.459 302.121C156.622 302.454 156.704 302.821 156.704 303.22C156.704 303.905 156.486 304.485 156.05 304.959C155.614 305.433 154.826 305.67 153.686 305.67H151.62V308.945H150.555ZM151.62 304.72H153.702C154.392 304.72 154.881 304.592 155.17 304.335C155.46 304.078 155.605 303.717 155.605 303.252C155.605 302.916 155.519 302.628 155.348 302.389C155.178 302.148 154.954 301.99 154.676 301.912C154.496 301.864 154.164 301.84 153.681 301.84H151.62V304.72Z" fill="black"/>
<path d="M158.094 308.945V300.891H159.16V304.198H163.346V300.891H164.412V308.945H163.346V305.149H159.16V308.945H158.094Z" fill="black"/>
<path d="M166.208 308.945V300.891H172.033V301.84H167.276V304.307H171.731V305.253H167.276V307.994H172.22V308.945H166.208Z" fill="black"/>
<path d="M173.181 306.528V305.533H176.219V306.528H173.181Z" fill="black"/>
<path d="M177.44 308.945V300.891H180.479C181.013 300.891 181.422 300.916 181.704 300.966C182.099 301.033 182.43 301.159 182.697 301.344C182.966 301.528 183.182 301.787 183.345 302.121C183.507 302.454 183.589 302.821 183.589 303.22C183.589 303.905 183.371 304.485 182.935 304.959C182.499 305.433 181.711 305.67 180.572 305.67H178.506V308.945H177.44ZM178.506 304.72H180.588C181.277 304.72 181.766 304.592 182.056 304.335C182.345 304.078 182.49 303.717 182.49 303.252C182.49 302.916 182.404 302.628 182.233 302.389C182.063 302.148 181.839 301.99 181.562 301.912C181.381 301.864 181.049 301.84 180.566 301.84H178.506V304.72Z" fill="black"/>
<path d="M184.979 308.945V300.891H186.045V304.198H190.231V300.891H191.297V308.945H190.231V305.149H186.045V308.945H184.979Z" fill="black"/>
<path d="M193.094 308.945V300.891H198.919V301.84H194.161V304.307H198.616V305.253H194.161V307.994H199.105V308.945H193.094Z" fill="black"/>
<path d="M118.178 324.863H140.684V316.986H118.178V324.863Z" fill="#7EACF5"/>
<path d="M150.555 324.863V316.808H153.33C153.955 316.808 154.434 316.846 154.764 316.922C155.225 317.029 155.618 317.221 155.944 317.499C156.37 317.859 156.687 318.318 156.897 318.878C157.108 319.436 157.214 320.073 157.214 320.791C157.214 321.402 157.142 321.945 156.999 322.417C156.857 322.889 156.674 323.281 156.45 323.592C156.227 323.901 155.982 324.145 155.715 324.323C155.451 324.5 155.131 324.634 154.755 324.726C154.38 324.817 153.949 324.863 153.461 324.863H150.555ZM151.62 323.912H153.34C153.871 323.912 154.288 323.862 154.59 323.764C154.893 323.665 155.134 323.526 155.313 323.345C155.566 323.093 155.763 322.754 155.904 322.327C156.044 321.901 156.115 321.383 156.115 320.775C156.115 319.932 155.976 319.284 155.7 318.832C155.423 318.379 155.087 318.076 154.692 317.923C154.406 317.813 153.947 317.758 153.314 317.758H151.62V323.912Z" fill="black"/>
<path d="M158.863 324.863V316.808H159.928V324.863H158.863Z" fill="black"/>
<path d="M161.446 322.275L162.45 322.187C162.498 322.59 162.609 322.921 162.782 323.178C162.957 323.436 163.227 323.645 163.593 323.804C163.96 323.964 164.372 324.043 164.83 324.043C165.236 324.043 165.595 323.983 165.907 323.862C166.218 323.742 166.45 323.576 166.601 323.367C166.753 323.156 166.83 322.925 166.83 322.676C166.83 322.424 166.756 322.203 166.61 322.014C166.463 321.826 166.222 321.667 165.885 321.538C165.669 321.454 165.19 321.323 164.451 321.146C163.711 320.968 163.193 320.8 162.896 320.643C162.511 320.441 162.224 320.192 162.035 319.894C161.847 319.595 161.754 319.26 161.754 318.89C161.754 318.483 161.868 318.103 162.098 317.751C162.329 317.397 162.666 317.128 163.109 316.945C163.553 316.762 164.046 316.671 164.588 316.671C165.184 316.671 165.711 316.767 166.167 316.959C166.624 317.152 166.975 317.435 167.22 317.809C167.465 318.181 167.597 318.604 167.616 319.076L166.594 319.154C166.539 318.645 166.353 318.26 166.035 318C165.718 317.74 165.251 317.61 164.632 317.61C163.987 317.61 163.517 317.728 163.222 317.965C162.927 318.201 162.78 318.485 162.78 318.818C162.78 319.107 162.885 319.346 163.093 319.533C163.298 319.72 163.834 319.911 164.7 320.107C165.567 320.302 166.161 320.474 166.483 320.62C166.952 320.837 167.298 321.111 167.521 321.443C167.745 321.774 167.857 322.155 167.857 322.588C167.857 323.017 167.734 323.421 167.489 323.801C167.244 324.179 166.891 324.474 166.431 324.685C165.971 324.895 165.454 325 164.88 325C164.151 325 163.539 324.894 163.046 324.682C162.554 324.47 162.167 324.15 161.887 323.723C161.607 323.296 161.46 322.813 161.446 322.275Z" fill="black"/>
<path d="M168.802 322.445V321.45H171.84V322.445H168.802Z" fill="black"/>
<path d="M173.061 324.863V316.808H176.099C176.634 316.808 177.042 316.833 177.325 316.884C177.72 316.951 178.051 317.077 178.318 317.262C178.587 317.446 178.802 317.705 178.965 318.039C179.128 318.372 179.21 318.738 179.21 319.138C179.21 319.822 178.992 320.402 178.556 320.877C178.12 321.35 177.332 321.587 176.193 321.587H174.127V324.863H173.061ZM174.127 320.638H176.208C176.898 320.638 177.387 320.509 177.677 320.253C177.966 319.996 178.111 319.635 178.111 319.169C178.111 318.833 178.025 318.545 177.854 318.306C177.684 318.066 177.46 317.907 177.182 317.83C177.002 317.782 176.67 317.758 176.187 317.758H174.127V320.638Z" fill="black"/>
<path d="M180.6 324.863V316.808H181.666V320.115H185.852V316.808H186.918V324.863H185.852V321.067H181.666V324.863H180.6Z" fill="black"/>
<path d="M188.714 324.863V316.808H194.54V317.758H189.782V320.224H194.237V321.17H189.782V323.912H194.726V324.863H188.714Z" fill="black"/>
<path d="M222.217 308.945H244.723V301.068H222.217V308.945Z" fill="#69C39C"/>
<path d="M254.594 308.945V300.891H257.633C258.167 300.891 258.576 300.916 258.858 300.966C259.253 301.033 259.584 301.159 259.852 301.344C260.12 301.528 260.336 301.787 260.499 302.121C260.662 302.454 260.743 302.821 260.743 303.22C260.743 303.905 260.525 304.485 260.089 304.959C259.653 305.433 258.865 305.67 257.726 305.67H255.66V308.945H254.594ZM255.66 304.72H257.742C258.431 304.72 258.92 304.592 259.21 304.335C259.5 304.078 259.644 303.717 259.644 303.252C259.644 302.916 259.559 302.628 259.388 302.389C259.218 302.148 258.994 301.99 258.716 301.912C258.535 301.864 258.204 301.84 257.721 301.84H255.66V304.72Z" fill="black"/>
<path d="M262.134 308.945V300.891H263.199V304.198H267.386V300.891H268.451V308.945H267.386V305.149H263.199V308.945H262.134Z" fill="black"/>
<path d="M270.248 308.945V300.891H276.073V301.84H271.315V304.307H275.77V305.253H271.315V307.994H276.259V308.945H270.248Z" fill="black"/>
<path d="M277.221 306.528V305.533H280.259V306.528H277.221Z" fill="black"/>
<path d="M281.48 308.945V300.891H284.518C285.053 300.891 285.461 300.916 285.744 300.966C286.139 301.033 286.47 301.159 286.737 301.344C287.005 301.528 287.221 301.787 287.384 302.121C287.547 302.454 287.628 302.821 287.628 303.22C287.628 303.905 287.41 304.485 286.974 304.959C286.538 305.433 285.751 305.67 284.611 305.67H282.545V308.945H281.48ZM282.545 304.72H284.627C285.316 304.72 285.806 304.592 286.095 304.335C286.385 304.078 286.53 303.717 286.53 303.252C286.53 302.916 286.444 302.628 286.273 302.389C286.103 302.148 285.879 301.99 285.601 301.912C285.421 301.864 285.089 301.84 284.606 301.84H282.545V304.72Z" fill="black"/>
<path d="M289.001 308.945V300.891H292.572C293.291 300.891 293.836 300.963 294.209 301.109C294.583 301.253 294.882 301.508 295.106 301.875C295.33 302.241 295.442 302.645 295.442 303.088C295.442 303.659 295.256 304.141 294.886 304.534C294.516 304.925 293.944 305.174 293.172 305.281C293.454 305.416 293.669 305.549 293.815 305.682C294.126 305.967 294.421 306.324 294.7 306.753L296.101 308.945H294.759L293.694 307.27C293.382 306.786 293.125 306.416 292.924 306.16C292.723 305.903 292.543 305.724 292.384 305.622C292.224 305.519 292.062 305.447 291.897 305.406C291.776 305.381 291.579 305.369 291.304 305.369H290.066V308.945H289.001ZM290.066 304.446H292.359C292.846 304.446 293.226 304.395 293.5 304.295C293.776 304.194 293.985 304.033 294.128 303.811C294.271 303.59 294.343 303.349 294.343 303.088C294.343 302.708 294.204 302.395 293.928 302.15C293.651 301.903 293.214 301.78 292.616 301.78H290.066V304.446Z" fill="black"/>
<path d="M296.787 305.023C296.787 303.685 297.145 302.638 297.863 301.882C298.581 301.125 299.508 300.746 300.644 300.746C301.389 300.746 302.059 300.925 302.656 301.281C303.252 301.636 303.707 302.131 304.02 302.767C304.334 303.402 304.491 304.123 304.491 304.929C304.491 305.745 304.326 306.476 303.996 307.12C303.666 307.765 303.199 308.253 302.594 308.585C301.991 308.917 301.339 309.083 300.639 309.083C299.881 309.083 299.203 308.9 298.605 308.534C298.008 308.167 297.556 307.667 297.247 307.034C296.94 306.4 296.787 305.729 296.787 305.023ZM297.886 305.038C297.886 306.009 298.146 306.774 298.668 307.333C299.191 307.891 299.846 308.17 300.634 308.17C301.436 308.17 302.095 307.888 302.614 307.324C303.133 306.76 303.392 305.96 303.392 304.922C303.392 304.267 303.282 303.695 303.06 303.206C302.839 302.718 302.514 302.338 302.086 302.069C301.659 301.799 301.181 301.664 300.65 301.664C299.896 301.664 299.246 301.924 298.701 302.443C298.157 302.961 297.886 303.826 297.886 305.038Z" fill="black"/>
<path d="M327.504 308.945H350.01V301.068H327.504V308.945Z" fill="#D0D0D0"/>
<path d="M359.935 308.945V300.891H365.37V301.84H361.001V304.335H364.781V305.286H361.001V308.945H359.935Z" fill="black"/>
<path d="M370.436 308.226C370.069 308.537 369.717 308.757 369.378 308.885C369.039 309.013 368.676 309.077 368.288 309.077C367.646 309.077 367.154 308.921 366.809 308.608C366.464 308.295 366.292 307.894 366.292 307.407C366.292 307.121 366.357 306.86 366.487 306.624C366.617 306.388 366.788 306.198 366.999 306.055C367.21 305.912 367.447 305.804 367.711 305.731C367.904 305.68 368.197 305.63 368.59 305.582C369.388 305.487 369.976 305.374 370.354 305.242C370.357 305.106 370.359 305.02 370.359 304.984C370.359 304.581 370.265 304.296 370.078 304.131C369.826 303.908 369.45 303.797 368.952 303.797C368.487 303.797 368.143 303.878 367.922 304.041C367.7 304.204 367.536 304.493 367.43 304.906L366.463 304.775C366.55 304.361 366.695 304.027 366.897 303.772C367.098 303.518 367.39 303.322 367.771 303.185C368.152 303.047 368.593 302.978 369.095 302.978C369.593 302.978 369.997 303.036 370.308 303.153C370.62 303.271 370.849 303.418 370.995 303.597C371.142 303.774 371.244 303.998 371.303 304.27C371.336 304.438 371.352 304.741 371.352 305.181V306.5C371.352 307.42 371.373 308.002 371.416 308.245C371.458 308.488 371.542 308.721 371.667 308.945H370.633C370.531 308.74 370.466 308.5 370.436 308.226ZM370.354 306.016C369.994 306.162 369.455 306.287 368.738 306.39C368.331 306.449 368.043 306.515 367.874 306.589C367.707 306.662 367.577 306.769 367.484 306.909C367.393 307.05 367.347 307.206 367.347 307.379C367.347 307.642 367.447 307.862 367.646 308.038C367.846 308.214 368.139 308.302 368.523 308.302C368.904 308.302 369.243 308.219 369.54 308.052C369.836 307.886 370.054 307.658 370.194 307.368C370.3 307.144 370.354 306.815 370.354 306.38V306.016Z" fill="black"/>
<path d="M372.864 308.945V300.891H373.853V308.945H372.864Z" fill="black"/>
<path d="M374.991 307.203L375.969 307.05C376.024 307.441 376.177 307.741 376.427 307.95C376.678 308.159 377.029 308.263 377.481 308.263C377.934 308.263 378.271 308.171 378.49 307.987C378.71 307.802 378.821 307.584 378.821 307.335C378.821 307.112 378.723 306.936 378.529 306.807C378.394 306.719 378.057 306.608 377.518 306.473C376.793 306.289 376.291 306.13 376.011 305.997C375.731 305.863 375.518 305.678 375.373 305.443C375.228 305.206 375.156 304.945 375.156 304.659C375.156 304.4 375.215 304.159 375.334 303.938C375.453 303.715 375.616 303.53 375.821 303.384C375.974 303.271 376.184 303.176 376.449 303.097C376.715 303.018 377 302.978 377.305 302.978C377.762 302.978 378.163 303.044 378.509 303.176C378.856 303.308 379.112 303.486 379.276 303.713C379.441 303.938 379.555 304.238 379.617 304.615L378.65 304.746C378.607 304.446 378.479 304.213 378.268 304.045C378.057 303.876 377.76 303.792 377.375 303.792C376.922 303.792 376.597 303.867 376.403 304.017C376.208 304.167 376.111 304.343 376.111 304.544C376.111 304.672 376.151 304.788 376.232 304.891C376.313 304.996 376.44 305.084 376.612 305.154C376.711 305.191 377.002 305.275 377.486 305.406C378.186 305.593 378.673 305.747 378.949 305.867C379.226 305.985 379.442 306.158 379.599 306.385C379.758 306.611 379.837 306.893 379.837 307.231C379.837 307.56 379.741 307.871 379.548 308.163C379.356 308.454 379.078 308.679 378.715 308.838C378.353 308.997 377.943 309.077 377.486 309.077C376.728 309.077 376.15 308.919 375.752 308.604C375.355 308.289 375.101 307.822 374.991 307.203Z" fill="black"/>
<path d="M385.008 307.066L386.029 307.192C385.868 307.789 385.57 308.253 385.134 308.583C384.698 308.912 384.141 309.077 383.464 309.077C382.61 309.077 381.933 308.815 381.433 308.289C380.932 307.763 380.682 307.026 380.682 306.078C380.682 305.095 380.935 304.333 381.44 303.792C381.946 303.249 382.602 302.978 383.407 302.978C384.188 302.978 384.826 303.243 385.32 303.774C385.815 304.305 386.062 305.052 386.062 306.016C386.062 306.075 386.061 306.162 386.057 306.28H381.705C381.742 306.921 381.923 307.412 382.249 307.753C382.575 308.093 382.981 308.263 383.469 308.263C383.831 308.263 384.141 308.168 384.397 307.978C384.654 307.787 384.857 307.483 385.008 307.066ZM381.76 305.467H385.018C384.975 304.976 384.85 304.608 384.645 304.363C384.33 303.982 383.921 303.792 383.42 303.792C382.965 303.792 382.583 303.944 382.273 304.247C381.964 304.551 381.793 304.957 381.76 305.467Z" fill="black"/>
<path d="M394.393 307.066L395.414 307.192C395.253 307.789 394.955 308.253 394.519 308.583C394.083 308.912 393.526 309.077 392.849 309.077C391.995 309.077 391.318 308.815 390.818 308.289C390.317 307.763 390.067 307.026 390.067 306.078C390.067 305.095 390.32 304.333 390.825 303.792C391.331 303.249 391.987 302.978 392.792 302.978C393.573 302.978 394.211 303.243 394.705 303.774C395.2 304.305 395.447 305.052 395.447 306.016C395.447 306.075 395.446 306.162 395.442 306.28H391.09C391.127 306.921 391.308 307.412 391.634 307.753C391.96 308.093 392.366 308.263 392.854 308.263C393.216 308.263 393.526 308.168 393.782 307.978C394.039 307.787 394.242 307.483 394.393 307.066ZM391.145 305.467H394.403C394.36 304.976 394.235 304.608 394.03 304.363C393.715 303.982 393.306 303.792 392.805 303.792C392.35 303.792 391.968 303.944 391.658 304.247C391.349 304.551 391.178 304.957 391.145 305.467Z" fill="black"/>
<path d="M400.442 308.945V308.209C400.071 308.788 399.528 309.077 398.81 309.077C398.345 309.077 397.917 308.949 397.527 308.692C397.136 308.435 396.834 308.077 396.619 307.618C396.406 307.158 396.299 306.63 396.299 306.034C396.299 305.451 396.396 304.922 396.589 304.448C396.784 303.973 397.075 303.609 397.463 303.357C397.852 303.104 398.287 302.978 398.766 302.978C399.118 302.978 399.431 303.052 399.705 303.201C399.981 303.349 400.204 303.541 400.377 303.779V300.891H401.36V308.945H400.442ZM397.316 306.034C397.316 306.78 397.473 307.339 397.787 307.709C398.102 308.078 398.474 308.263 398.903 308.263C399.336 308.263 399.703 308.087 400.004 307.734C400.306 307.38 400.458 306.841 400.458 306.116C400.458 305.317 400.304 304.731 399.995 304.358C399.688 303.984 399.309 303.797 398.859 303.797C398.42 303.797 398.052 303.976 397.757 304.335C397.463 304.694 397.316 305.26 397.316 306.034Z" fill="black"/>
<path d="M402.733 309.429L403.695 309.571C403.735 309.868 403.846 310.084 404.029 310.22C404.275 310.403 404.611 310.494 405.035 310.494C405.493 310.494 405.847 310.403 406.095 310.22C406.345 310.037 406.514 309.781 406.602 309.452C406.653 309.25 406.677 308.827 406.672 308.182C406.241 308.691 405.703 308.945 405.058 308.945C404.255 308.945 403.634 308.656 403.194 308.077C402.754 307.498 402.535 306.804 402.535 305.995C402.535 305.438 402.635 304.925 402.837 304.455C403.039 303.983 403.331 303.619 403.713 303.363C404.096 303.106 404.546 302.978 405.063 302.978C405.751 302.978 406.319 303.256 406.767 303.813V303.11H407.678V308.154C407.678 309.063 407.585 309.706 407.4 310.085C407.216 310.464 406.923 310.764 406.521 310.983C406.12 311.204 405.626 311.314 405.04 311.314C404.345 311.314 403.783 311.157 403.354 310.844C402.925 310.531 402.718 310.059 402.733 309.429ZM403.551 305.923C403.551 306.688 403.703 307.247 404.006 307.598C404.311 307.95 404.693 308.126 405.151 308.126C405.605 308.126 405.985 307.951 406.292 307.602C406.6 307.251 406.755 306.703 406.755 305.956C406.755 305.242 406.596 304.704 406.28 304.342C405.963 303.979 405.581 303.797 405.133 303.797C404.694 303.797 404.32 303.976 404.012 304.333C403.705 304.69 403.551 305.22 403.551 305.923Z" fill="black"/>
<path d="M413.168 307.066L414.189 307.192C414.029 307.789 413.73 308.253 413.294 308.583C412.858 308.912 412.301 309.077 411.624 309.077C410.771 309.077 410.094 308.815 409.593 308.289C409.093 307.763 408.842 307.026 408.842 306.078C408.842 305.095 409.095 304.333 409.6 303.792C410.106 303.249 410.762 302.978 411.568 302.978C412.348 302.978 412.986 303.243 413.481 303.774C413.975 304.305 414.223 305.052 414.223 306.016C414.223 306.075 414.221 306.162 414.217 306.28H409.866C409.902 306.921 410.083 307.412 410.409 307.753C410.735 308.093 411.142 308.263 411.629 308.263C411.991 308.263 412.301 308.168 412.558 307.978C412.814 307.787 413.018 307.483 413.168 307.066ZM409.92 305.467H413.178C413.135 304.976 413.011 304.608 412.805 304.363C412.49 303.982 412.082 303.792 411.58 303.792C411.125 303.792 410.743 303.944 410.434 304.247C410.124 304.551 409.953 304.957 409.92 305.467Z" fill="black"/>
<path d="M415.036 307.203L416.013 307.05C416.068 307.441 416.221 307.741 416.472 307.95C416.723 308.159 417.074 308.263 417.525 308.263C417.979 308.263 418.315 308.171 418.535 307.987C418.755 307.802 418.865 307.584 418.865 307.335C418.865 307.112 418.768 306.936 418.573 306.807C418.439 306.719 418.102 306.608 417.562 306.473C416.838 306.289 416.336 306.13 416.055 305.997C415.775 305.863 415.563 305.678 415.417 305.443C415.273 305.206 415.201 304.945 415.201 304.659C415.201 304.4 415.26 304.159 415.379 303.938C415.498 303.715 415.66 303.53 415.866 303.384C416.019 303.271 416.228 303.176 416.493 303.097C416.759 303.018 417.045 302.978 417.35 302.978C417.807 302.978 418.208 303.044 418.554 303.176C418.901 303.308 419.156 303.486 419.321 303.713C419.486 303.938 419.6 304.238 419.662 304.615L418.695 304.746C418.651 304.446 418.524 304.213 418.313 304.045C418.102 303.876 417.804 303.792 417.42 303.792C416.966 303.792 416.642 303.867 416.448 304.017C416.253 304.167 416.156 304.343 416.156 304.544C416.156 304.672 416.196 304.788 416.277 304.891C416.358 304.996 416.484 305.084 416.657 305.154C416.755 305.191 417.047 305.275 417.531 305.406C418.23 305.593 418.718 305.747 418.994 305.867C419.27 305.985 419.487 306.158 419.644 306.385C419.802 306.611 419.881 306.893 419.881 307.231C419.881 307.56 419.785 307.871 419.593 308.163C419.401 308.454 419.123 308.679 418.76 308.838C418.397 308.997 417.988 309.077 417.531 309.077C416.772 309.077 416.194 308.919 415.797 308.604C415.4 308.289 415.146 307.822 415.036 307.203Z" fill="black"/>
</svg>
