<?xml version="1.0" encoding="UTF-8"?>
<!-- Generator: Adobe Illustrator 28.0.0, SVG Export Plug-In . SVG Version: 6.00 Build 0)  -->
<svg xmlns="http://www.w3.org/2000/svg" xmlns:xlink="http://www.w3.org/1999/xlink" version="1.1" id="Logos" x="0px" y="0px" viewBox="0 0 1145.6 225.2" style="enable-background:new 0 0 1145.6 225.2;" xml:space="preserve">
<style type="text/css">
	.st0{fill:#14154C;}
	.st1{fill:none;stroke:url(#SVGID_1_);stroke-width:8.45;stroke-linecap:round;stroke-linejoin:round;}
	.st2{fill:none;stroke:#8A8AA6;stroke-width:0.5;stroke-miterlimit:10;}
</style>
<path class="st0" d="M232.1,50.1h14.5v37.1l31.2-37.1h16.7l-32,38.1l33.5,39.9h-17.3l-32.2-38.9v38.9h-14.5L232.1,50.1L232.1,50.1z"></path>
<path class="st0" d="M312.7,105.1c0.9,8.4,6.2,14,16.2,14c6.8,0,12-3,14.7-7.2h13c-3.8,9.9-14.5,17.6-27.8,17.6  c-18.9,0-30-12.6-30-29.2s12.1-29.1,29.3-29.1s29.2,12.1,29.2,29.3v4.6H312.7z M312.6,95.8H344c-0.9-8.6-6.6-14.6-15.6-14.6  S313.7,86.8,312.6,95.8z"></path>
<path class="st0" d="M383.5,128.1h-14V72.5H383V82c2.6-6.5,9.4-10.8,18-10.8s14.6,4.1,17.7,10.8c4.2-6.9,11.1-10.8,20.2-10.8  c13.4,0,20.3,9.8,20.3,23.6v33.3h-14v-31c0-7.9-3-13.7-11.4-13.7c-7.6,0-12.5,5.4-12.5,13v31.6h-14v-31c0-7.9-3-13.7-11.4-13.7  c-7.7,0-12.5,5.6-12.5,13.6L383.5,128.1L383.5,128.1z"></path>
<path class="st0" d="M488.1,151.4h-14V72.5h13.5v9.6c3.2-5.7,10.6-10.9,20.3-10.9c16.5,0,28.1,13.1,28.1,29.2s-11.6,29.1-28.1,29.1  c-9.7,0-16.9-4.9-19.7-10.9L488.1,151.4L488.1,151.4z M505.1,82.8c-9.1,0-16.9,6.9-16.9,17.6s7.8,17.5,16.9,17.5  c10,0,16.8-7.8,16.8-17.5S515.1,82.8,505.1,82.8z"></path>
<path class="st0" d="M561.9,128.1h-14V72.5h13.6V82c2.6-6.5,9.8-10.8,18.5-10.8c13.4,0,20.8,9.8,20.8,23.6v33.3h-14v-31  c0-7.9-3.6-13.7-11.9-13.7c-7.7,0-12.9,5.6-12.9,13.6L561.9,128.1L561.9,128.1z"></path>
<path class="st0" d="M626,105.1c0.9,8.4,6.2,14,16.2,14c6.8,0,12-3,14.7-7.2h13c-3.8,9.9-14.5,17.6-27.8,17.6c-19,0-30-12.6-30-29.2  s12.2-29.1,29.3-29.1s29.2,12.1,29.2,29.3v4.6H626z M625.8,95.8h31.4c-0.9-8.6-6.6-14.6-15.6-14.6S627,86.8,625.8,95.8L625.8,95.8z"></path>
<path class="st0" d="M716.2,86h-3c-11.3,0-16.5,6.6-16.5,17.4v24.7h-14V72.5h13.6v12c2.7-8.8,10.1-12.5,20-12.5L716.2,86L716.2,86z"></path>
<path class="st0" d="M232.1,146.6h3.2v28h-3.2V146.6z"></path>
<path class="st0" d="M246.7,146.6h2.5l18.3,23v-23h3v28h-2.5l-18.3-23v23h-3V146.6z"></path>
<path class="st0" d="M283.1,166.8c0.6,3.4,2.9,5.7,6.8,5.7s6.4-2.4,6.4-5.4s-2-4.5-4.9-5.3l-3.5-1c-4.1-1.2-7-3.4-7-7.4  c0-4.5,3.8-7.4,8.7-7.4s8.3,3.3,8.6,7.6h-2.9c-0.4-2.9-2.4-5-5.8-5s-5.6,1.8-5.6,4.8s2.1,4,5,4.8l3.3,1c4.4,1.2,7,3.5,7,7.8  c0,4.8-4,8.1-9.5,8.1s-9.1-3.4-9.8-8.3L283.1,166.8L283.1,166.8z"></path>
<path class="st0" d="M327.1,149.3h-9.1v25.2h-3.2v-25.2h-9.1v-2.8h21.5V149.3z"></path>
<path class="st0" d="M336.2,146.6h3.2v28h-3.2V146.6z"></path>
<path class="st0" d="M370,149.3h-9.1v25.2h-3.2v-25.2h-9.1v-2.8H370V149.3z"></path>
<path class="st0" d="M402.1,164c0,6.4-4.8,11.1-11.6,11.1s-11.6-4.7-11.6-11.1v-17.4h3.2v17.6c0,4.9,3.4,8.2,8.4,8.2  s8.4-3.3,8.4-8.2v-17.6h3.2L402.1,164L402.1,164z"></path>
<path class="st0" d="M432.5,149.3h-9.1v25.2h-3.2v-25.2H411v-2.8h21.5V149.3z"></path>
<path class="st0" d="M441.5,146.6h17.7v2.8h-14.5v9.6h14.1v2.8h-14.1v10h14.6v2.8h-17.8V146.6L441.5,146.6z"></path>
<radialGradient id="SVGID_1_" cx="94.9066" cy="112.6056" r="95.0677" gradientTransform="matrix(1 0 0 -1 0 225.2013)" gradientUnits="userSpaceOnUse">
	<stop offset="0.26" style="stop-color:#FB264C"></stop>
	<stop offset="1" style="stop-color:#14154C"></stop>
</radialGradient>
<path class="st1" d="M52.9,160.4c-4.2,7.1-8.3,14.3-12.5,21.4c-9.6-5.6-19.2-11.2-28.8-16.9c0-33.4,0-70.1,0-103.6  c29.8-16.6,59.6-30,89.3-46.6c9.2,5.4,18.4,10.8,27.6,16.2 M71,85.9c-11.2,19.2-22.5,38.4-33.7,57.6c0-21.6,0-43.2,0-64.9  c18.8-10.5,37.5-20.9,56.3-31.4c6.4,3.7,12.7,7.4,19.1,11.2c-13.5,23.1-27.1,46.2-40.6,69.3 M137.2,64.8c4.2-7.1,8.3-14.3,12.5-21.4  c9.5,5.6,19,11.2,28.6,16.7c0,33.7,0,67.4,0,101.1c-29.7,16.4-59.4,32.7-89.1,49.1c-9.2-5.4-18.4-10.8-27.6-16.2 M119.2,139.3  c11.2-19.2,22.4-38.3,33.7-57.5c0,21.6,0,43.1,0,64.7c-18.8,10.5-37.5,21-56.3,31.5c-6.4-3.7-12.7-7.4-19.1-11.2  c13.5-23.1,27-46.2,40.6-69.3"></path>
<line class="st2" x1="754.1" y1="176.1" x2="754.1" y2="49.1"></line>
<path class="st0" d="M797.5,81.7V60.5h12.8v2.1h-10.4v7.6H810v2.1h-10.1v9.3H797.5z"></path>
<path class="st0" d="M812.4,74.2c0-4.1,3.1-7.8,8-7.8s8,3.7,8,7.8s-3.1,7.8-8,7.8S812.4,78.3,812.4,74.2z M814.7,74.2  c0,3,2.2,5.8,5.8,5.8s5.8-2.8,5.8-5.8s-2.2-5.8-5.8-5.8S814.7,71.2,814.7,74.2z"></path>
<path class="st0" d="M840,68.9h-0.6c-3.3,0-5.3,2.2-5.3,5.7v7.1h-2.4V66.8h2.3v3.7c0.7-2.7,3-3.8,6-3.8V68.9L840,68.9z"></path>
<path class="st0" d="M851.4,62.1h2.4v4.7h4.5v2h-4.5v8.3c0,2.1,0.7,3,2.5,3c0.7,0,1.2-0.1,1.8-0.3v1.9c-0.4,0.2-1.5,0.4-2.3,0.4  c-3.5,0-4.4-2.1-4.4-5.7v-7.6h-3v-2h3L851.4,62.1L851.4,62.1z"></path>
<path class="st0" d="M864,81.7h-2.4V59.6h2.4v10.1c0.9-2.1,2.9-3.2,5.5-3.2c3.6,0,5.9,2.8,5.9,6.7v8.5H873v-8.1  c0-2.9-1.3-5.1-4.3-5.1c-2.8,0-4.8,2.2-4.8,5V81.7L864,81.7z"></path>
<path class="st0" d="M881.3,75.2c0.4,3.1,2.4,5,5.5,5c2.3,0,4.1-1.1,5-2.5h2.2c-1.1,2.4-3.8,4.4-7.2,4.4c-4.9,0-7.9-3.5-7.9-7.8  s3.2-7.8,7.8-7.8s7.7,3.4,7.7,7.6v1.1H881.3L881.3,75.2z M881.3,73.4h10.9c-0.2-3-2.2-5.2-5.4-5.2C883.8,68.2,881.6,70.3,881.3,73.4  L881.3,73.4z"></path>
<path class="st0" d="M906.9,75.8c0.5,2.6,2.2,4.3,5.1,4.3s4.8-1.8,4.8-4.1s-1.5-3.4-3.7-4l-2.6-0.8c-3.1-0.9-5.3-2.5-5.3-5.6  c0-3.4,2.8-5.6,6.6-5.6s6.3,2.5,6.5,5.7h-2.2c-0.3-2.2-1.8-3.8-4.3-3.8s-4.2,1.4-4.2,3.6c0,2.2,1.6,3,3.8,3.6l2.5,0.8  c3.3,0.9,5.3,2.6,5.3,5.9c0,3.6-3,6.2-7.2,6.2s-6.9-2.5-7.4-6.3L906.9,75.8L906.9,75.8z"></path>
<path class="st0" d="M923.9,62.1h2.4v4.7h4.5v2h-4.5v8.3c0,2.1,0.7,3,2.5,3c0.7,0,1.2-0.1,1.8-0.3v1.9c-0.4,0.2-1.5,0.4-2.3,0.4  c-3.5,0-4.4-2.1-4.4-5.7v-7.6h-3v-2h3L923.9,62.1L923.9,62.1z"></path>
<path class="st0" d="M945.2,66.8h2.4v14.9h-2.3v-2.9c-0.9,2.1-2.9,3.3-5.5,3.3c-3.6,0-5.9-2.8-5.9-6.7v-8.5h2.4v8.1  c0,2.9,1.2,5.1,4.2,5.1c2.8,0,4.7-2.2,4.7-5L945.2,66.8L945.2,66.8z"></path>
<path class="st0" d="M965.1,59.6h2.4v22.1h-2.3v-3c-0.9,1.7-3.2,3.4-6.2,3.4c-4.6,0-7.6-3.7-7.6-7.8s3.1-7.8,7.6-7.8  c3,0,5.3,1.7,6.1,3.4V59.6L965.1,59.6z M959.4,80.1c2.9,0,5.8-2.1,5.8-5.9s-2.9-5.9-5.8-5.9c-3.4,0-5.7,2.7-5.7,5.9  S955.9,80.1,959.4,80.1z"></path>
<path class="st0" d="M982.7,66.8h2.5l-6.2,14.5l-2.8,6.6h-2.4l2.9-6.8l-6.1-14.3h2.4l4.9,11.9L982.7,66.8z"></path>
<path class="st0" d="M994.4,74.2c0-4.1,3.1-7.8,8-7.8s8,3.7,8,7.8s-3.1,7.8-8,7.8S994.4,78.3,994.4,74.2z M996.7,74.2  c0,3,2.2,5.8,5.8,5.8s5.8-2.8,5.8-5.8s-2.2-5.8-5.8-5.8S996.7,71.2,996.7,74.2z"></path>
<path class="st0" d="M1014.5,68.8h-2.8v-2h2.8v-2.1c0-3.7,1.6-5.4,5.1-5.4c0.6,0,1.5,0.1,1.8,0.2v2c-0.3-0.1-1-0.2-1.5-0.2  c-2.4,0-3.2,1-3.2,3.5v2.1h4.5v2h-4.5v12.9h-2.4L1014.5,68.8L1014.5,68.8z"></path>
<path class="st0" d="M1031.5,60.5h1.9l13.8,17.4V60.5h2.2v21.2h-1.9l-13.8-17.4v17.4h-2.2C1031.5,81.7,1031.5,60.5,1031.5,60.5z"></path>
<path class="st0" d="M1069.2,66.8v14.9h-2.3v-3c-0.9,1.7-3.2,3.4-6.2,3.4c-4.6,0-7.6-3.7-7.6-7.8s3.1-7.8,7.6-7.8  c3,0,5.4,1.7,6.2,3.4v-3L1069.2,66.8L1069.2,66.8z M1061.1,80.1c2.9,0,5.8-2.1,5.8-5.9s-2.9-5.9-5.8-5.9c-3.4,0-5.7,2.7-5.7,5.9  S1057.6,80.1,1061.1,80.1z"></path>
<path class="st0" d="M1075.2,62.1h2.4v4.7h4.5v2h-4.5v8.3c0,2.1,0.7,3,2.5,3c0.7,0,1.2-0.1,1.8-0.3v1.9c-0.4,0.2-1.4,0.4-2.3,0.4  c-3.5,0-4.4-2.1-4.4-5.7v-7.6h-3.1v-2h3.1L1075.2,62.1L1075.2,62.1z"></path>
<path class="st0" d="M1096.6,66.8h2.4v14.9h-2.3v-2.9c-0.9,2.1-2.9,3.3-5.5,3.3c-3.6,0-5.9-2.8-5.9-6.7v-8.5h2.4v8.1  c0,2.9,1.2,5.1,4.2,5.1c2.8,0,4.7-2.2,4.7-5L1096.6,66.8L1096.6,66.8z"></path>
<path class="st0" d="M1112,68.9h-0.6c-3.3,0-5.3,2.2-5.3,5.7v7.1h-2.4V66.8h2.3v3.7c0.7-2.7,3.1-3.8,6-3.8V68.9L1112,68.9z"></path>
<path class="st0" d="M1129.8,66.8v14.9h-2.3v-3c-0.9,1.7-3.2,3.4-6.2,3.4c-4.6,0-7.6-3.7-7.6-7.8s3.1-7.8,7.6-7.8  c3,0,5.4,1.7,6.2,3.4v-3L1129.8,66.8L1129.8,66.8z M1121.7,80.1c2.9,0,5.8-2.1,5.8-5.9s-2.9-5.9-5.8-5.9c-3.4,0-5.7,2.7-5.7,5.9  S1118.2,80.1,1121.7,80.1z"></path>
<path class="st0" d="M1133.8,81.7V59.6h2.4v22.1H1133.8z"></path>
<path class="st0" d="M813,121.7l-2.4-3.1c-1.5,2.1-3.8,3.6-6.8,3.6c-4.2,0-7.1-2.8-7.1-6.6s3-6.1,6.3-7l-6-7.9v-0.1h13.7v1.9H801  l9.4,12.4l2.1-4.7h2.3l-3.1,6.5l3.7,5L813,121.7L813,121.7z M809.4,116.9l-5.3-7c-3,1-5.2,2.4-5.2,5.6c0,2.8,2.1,4.7,5,4.7  C806.6,120.2,808.2,118.8,809.4,116.9L809.4,116.9z"></path>
<path class="st0" d="M840.6,117.1h-11.1l-1.8,4.6h-2.5l8.9-21.2h2l8.9,21.2h-2.5L840.6,117.1L840.6,117.1z M830.3,115.1h9.4  l-4.7-11.8L830.3,115.1L830.3,115.1z"></path>
<path class="st0" d="M856.6,108.9H856c-3.3,0-5.3,2.2-5.3,5.7v7.1h-2.4v-14.9h2.3v3.7c0.7-2.7,3-3.8,6-3.8V108.9L856.6,108.9z"></path>
<path class="st0" d="M861.2,102.1h2.4v4.7h4.5v2h-4.5v8.3c0,2.1,0.7,3,2.5,3c0.7,0,1.2-0.1,1.8-0.3v1.9c-0.4,0.2-1.5,0.4-2.3,0.4  c-3.5,0-4.4-2.1-4.4-5.7v-7.6h-3v-2h3L861.2,102.1L861.2,102.1z"></path>
<path class="st0" d="M872.7,100.2c0.9,0,1.5,0.7,1.5,1.5s-0.6,1.5-1.5,1.5s-1.5-0.7-1.5-1.5S871.7,100.2,872.7,100.2z M871.5,121.7  v-14.9h2.4v14.9H871.5z"></path>
<path class="st0" d="M880.1,108.8h-2.8v-2h2.8v-2.1c0-3.7,1.6-5.4,5.1-5.4c0.7,0,1.4,0.1,1.7,0.2v2c-0.3-0.1-0.8-0.2-1.3-0.2  c-2.4,0-3.1,1-3.1,3.5v2.1h4.3v2h-4.3v12.9h-2.4V108.8L880.1,108.8z M890.6,100.2c0.9,0,1.5,0.7,1.5,1.5s-0.6,1.5-1.5,1.5  s-1.5-0.7-1.5-1.5S889.7,100.2,890.6,100.2z M889.4,121.7v-14.9h2.4v14.9H889.4z"></path>
<path class="st0" d="M911.1,111.6h-2.3c-0.8-1.8-2.6-3.2-5.2-3.2c-3.5,0-5.6,2.8-5.6,5.8s2.1,5.8,5.6,5.8c2.7,0,4.3-1.4,5.2-3.2h2.3  c-1,2.9-3.7,5.1-7.5,5.1c-4.8,0-8-3.5-8-7.8s3.1-7.8,8-7.8C907.4,106.4,910.1,108.7,911.1,111.6z"></path>
<path class="st0" d="M916,100.2c0.9,0,1.5,0.7,1.5,1.5s-0.6,1.5-1.5,1.5s-1.5-0.7-1.5-1.5S915.1,100.2,916,100.2z M914.9,121.7  v-14.9h2.4v14.9H914.9z"></path>
<path class="st0" d="M937.2,106.8v14.9h-2.3v-3c-0.9,1.7-3.2,3.4-6.2,3.4c-4.6,0-7.6-3.7-7.6-7.8s3-7.8,7.6-7.8c3,0,5.4,1.7,6.2,3.4  v-3L937.2,106.8L937.2,106.8z M929.1,120.1c2.9,0,5.8-2.1,5.8-5.9s-2.9-5.9-5.8-5.9c-3.5,0-5.7,2.7-5.7,5.9S925.7,120.1,929.1,120.1  z"></path>
<path class="st0" d="M942,121.7V99.6h2.4v22.1H942z"></path>
<path class="st0" d="M957.3,100.5h2.4v21.2h-2.4V100.5z"></path>
<path class="st0" d="M967.3,121.7H965v-14.9h2.3v2.9c0.8-2.1,2.9-3.3,5.6-3.3c3.6,0,5.9,2.8,5.9,6.7v8.5h-2.4v-8.1  c0-2.9-1.3-5.1-4.3-5.1c-2.8,0-4.8,2.2-4.8,5L967.3,121.7L967.3,121.7z"></path>
<path class="st0" d="M984.7,102.1h2.4v4.7h4.5v2H987v8.3c0,2.1,0.7,3,2.5,3c0.7,0,1.2-0.1,1.8-0.3v1.9c-0.4,0.2-1.4,0.4-2.3,0.4  c-3.5,0-4.4-2.1-4.4-5.7v-7.6h-3.1v-2h3.1L984.7,102.1L984.7,102.1z"></path>
<path class="st0" d="M996,115.2c0.4,3.1,2.4,5,5.5,5c2.3,0,4.1-1.1,5-2.5h2.2c-1.1,2.4-3.8,4.4-7.2,4.4c-4.9,0-7.9-3.5-7.9-7.8  s3.2-7.8,7.8-7.8s7.7,3.4,7.7,7.6v1.1L996,115.2L996,115.2z M995.9,113.4h10.9c-0.2-3-2.2-5.2-5.4-5.2  C998.5,108.2,996.2,110.3,995.9,113.4L995.9,113.4z"></path>
<path class="st0" d="M1012.8,121.7V99.6h2.4v22.1H1012.8z"></path>
<path class="st0" d="M1020.5,121.7V99.6h2.4v22.1H1020.5z"></path>
<path class="st0" d="M1029,100.2c0.9,0,1.5,0.7,1.5,1.5s-0.6,1.5-1.5,1.5s-1.5-0.7-1.5-1.5S1028.1,100.2,1029,100.2z M1027.8,121.7  v-14.9h2.4v14.9H1027.8z"></path>
<path class="st0" d="M1050.5,106.8v14.8c0,3.8-3.3,6.8-7.8,6.8c-3.4,0-6.5-1.6-7.7-4.8h2.3c0.9,1.9,2.9,3,5.4,3  c3.3,0,5.5-1.9,5.5-4.9v-3.7c-0.8,1.8-3.2,3.4-6.1,3.4c-4.6,0-7.4-3.4-7.4-7.4s2.9-7.4,7.4-7.4c3,0,5.3,1.6,6.1,3.5v-3.1  L1050.5,106.8L1050.5,106.8z M1042.5,119.3c2.9,0,5.7-2.1,5.7-5.4s-2.8-5.5-5.7-5.5c-3.4,0-5.5,2.4-5.5,5.5  S1039.1,119.3,1042.5,119.3z"></path>
<path class="st0" d="M1056.6,115.2c0.4,3.1,2.4,5,5.5,5c2.3,0,4.1-1.1,5-2.5h2.2c-1.1,2.4-3.8,4.4-7.2,4.4c-4.9,0-7.9-3.5-7.9-7.8  s3.2-7.8,7.8-7.8s7.7,3.4,7.7,7.6v1.1L1056.6,115.2L1056.6,115.2z M1056.6,113.4h10.9c-0.2-3-2.2-5.2-5.4-5.2  C1059.2,108.2,1056.9,110.3,1056.6,113.4L1056.6,113.4z"></path>
<path class="st0" d="M1075.9,121.7h-2.4v-14.9h2.3v2.9c0.8-2.1,2.9-3.3,5.6-3.3c3.6,0,5.9,2.8,5.9,6.7v8.5h-2.4v-8.1  c0-2.9-1.3-5.1-4.3-5.1c-2.8,0-4.8,2.2-4.8,5L1075.9,121.7L1075.9,121.7z"></path>
<path class="st0" d="M1106.3,111.6h-2.3c-0.8-1.8-2.6-3.2-5.2-3.2c-3.5,0-5.6,2.8-5.6,5.8s2.1,5.8,5.6,5.8c2.7,0,4.3-1.4,5.2-3.2  h2.3c-1,2.9-3.7,5.1-7.5,5.1c-4.8,0-7.9-3.5-7.9-7.8s3.1-7.8,7.9-7.8C1102.6,106.4,1105.4,108.7,1106.3,111.6z"></path>
<path class="st0" d="M1111.3,115.2c0.4,3.1,2.4,5,5.5,5c2.3,0,4.1-1.1,5-2.5h2.2c-1.1,2.4-3.8,4.4-7.2,4.4c-4.9,0-7.9-3.5-7.9-7.8  s3.2-7.8,7.8-7.8s7.7,3.4,7.7,7.6v1.1L1111.3,115.2L1111.3,115.2z M1111.3,113.4h10.9c-0.2-3-2.2-5.2-5.4-5.2  C1113.8,108.2,1111.6,110.3,1111.3,113.4L1111.3,113.4z"></path>
<path class="st0" d="M812.2,146.8v14.9H810v-3c-0.9,1.7-3.2,3.4-6.2,3.4c-4.6,0-7.6-3.7-7.6-7.8s3-7.8,7.6-7.8c3,0,5.4,1.7,6.2,3.4  v-3L812.2,146.8L812.2,146.8z M804.1,160.1c2.9,0,5.8-2.1,5.8-5.9s-2.9-5.9-5.8-5.9c-3.5,0-5.7,2.7-5.7,5.9S800.7,160.1,804.1,160.1  z"></path>
<path class="st0" d="M818.3,142.1h2.4v4.7h4.5v2h-4.5v8.3c0,2.1,0.7,3,2.5,3c0.7,0,1.2-0.1,1.8-0.3v1.9c-0.4,0.2-1.5,0.4-2.3,0.4  c-3.5,0-4.4-2.1-4.4-5.7v-7.6h-3v-2h3L818.3,142.1L818.3,142.1z"></path>
<path class="st0" d="M836.1,140.5h2.4v9.4H851v-9.4h2.4v21.2H851v-9.6h-12.5v9.6h-2.4V140.5z"></path>
<path class="st0" d="M873.6,146.8v14.9h-2.3v-3c-0.9,1.7-3.2,3.4-6.2,3.4c-4.6,0-7.6-3.7-7.6-7.8s3-7.8,7.6-7.8c3,0,5.4,1.7,6.2,3.4  v-3L873.6,146.8L873.6,146.8z M865.5,160.1c2.9,0,5.8-2.1,5.8-5.9s-2.9-5.9-5.8-5.9c-3.5,0-5.7,2.7-5.7,5.9S862,160.1,865.5,160.1z"></path>
<path class="st0" d="M886.7,148.9H886c-3.3,0-5.3,2.2-5.3,5.7v7.1h-2.4v-14.9h2.3v3.7c0.7-2.7,3-3.8,6-3.8V148.9L886.7,148.9z"></path>
<path class="st0" d="M900.4,146.8h2.4l-6.4,14.9h-1.9l-6.4-14.9h2.4l5,12.1L900.4,146.8L900.4,146.8z"></path>
<path class="st0" d="M920.4,146.8v14.9h-2.3v-3c-0.9,1.7-3.2,3.4-6.2,3.4c-4.6,0-7.6-3.7-7.6-7.8s3-7.8,7.6-7.8c3,0,5.4,1.7,6.2,3.4  v-3L920.4,146.8L920.4,146.8z M912.3,160.1c2.9,0,5.8-2.1,5.8-5.9s-2.9-5.9-5.8-5.9c-3.5,0-5.7,2.7-5.7,5.9S908.8,160.1,912.3,160.1  z"></path>
<path class="st0" d="M933.5,148.9h-0.6c-3.3,0-5.3,2.2-5.3,5.7v7.1h-2.4v-14.9h2.3v3.7c0.7-2.7,3-3.8,6-3.8V148.9L933.5,148.9z"></path>
<path class="st0" d="M948.9,139.6h2.4v22.1H949v-3c-0.9,1.7-3.2,3.4-6.2,3.4c-4.6,0-7.6-3.7-7.6-7.8s3-7.8,7.6-7.8  c3,0,5.3,1.7,6.1,3.4V139.6L948.9,139.6z M943.1,160.1c2.9,0,5.8-2.1,5.8-5.9s-2.9-5.9-5.8-5.9c-3.5,0-5.7,2.7-5.7,5.9  S939.7,160.1,943.1,160.1z"></path>
<path class="st0" d="M981.2,153.7c0,4.9-3.6,8.4-8.8,8.4s-8.8-3.5-8.8-8.4v-13.2h2.4v13.3c0,3.7,2.6,6.2,6.4,6.2s6.4-2.5,6.4-6.2  v-13.3h2.4V153.7z"></path>
<path class="st0" d="M988.6,161.7h-2.4v-14.9h2.3v2.9c0.8-2.1,2.9-3.3,5.6-3.3c3.6,0,5.9,2.8,5.9,6.7v8.5h-2.4v-8.1  c0-2.9-1.3-5.1-4.3-5.1c-2.8,0-4.8,2.2-4.8,5L988.6,161.7L988.6,161.7z"></path>
<path class="st0" d="M1006,140.2c0.9,0,1.5,0.7,1.5,1.5s-0.6,1.5-1.5,1.5s-1.5-0.7-1.5-1.5S1005.1,140.2,1006,140.2z M1004.8,161.7  v-14.9h2.4v14.9H1004.8z"></path>
<path class="st0" d="M1022.5,146.8h2.4l-6.4,14.9h-1.9l-6.4-14.9h2.4l5,12.1L1022.5,146.8z"></path>
<path class="st0" d="M1028.8,155.2c0.4,3.1,2.4,5,5.5,5c2.3,0,4.1-1.1,5-2.5h2.2c-1.1,2.4-3.8,4.4-7.2,4.4c-4.9,0-7.9-3.5-7.9-7.8  s3.2-7.8,7.8-7.8s7.7,3.4,7.7,7.6v1.1L1028.8,155.2L1028.8,155.2z M1028.8,153.4h10.9c-0.2-3-2.2-5.2-5.4-5.2  C1031.3,148.2,1029.1,150.3,1028.8,153.4L1028.8,153.4z"></path>
<path class="st0" d="M1053.9,148.9h-0.6c-3.3,0-5.3,2.2-5.3,5.7v7.1h-2.4v-14.9h2.3v3.7c0.7-2.7,3.1-3.8,6-3.8V148.9L1053.9,148.9z"></path>
<path class="st0" d="M1057.8,157.4c0.3,1.8,1.7,2.8,3.7,2.8s3.4-1,3.4-2.6c0-1.3-0.8-2-2.3-2.4l-2.4-0.7c-2.2-0.6-3.8-1.7-3.8-4  c0-2.4,2.1-4.1,4.9-4.1s4.6,1.7,5,4.2h-2.1c-0.2-1.3-1.1-2.4-2.9-2.4c-1.7,0-2.8,0.9-2.8,2.3s0.8,1.8,2.3,2.2l2.7,0.8  c2.3,0.7,3.5,1.9,3.5,4.1c0,2.8-2.7,4.5-5.6,4.5s-5.3-1.5-5.8-4.6L1057.8,157.4L1057.8,157.4z"></path>
<path class="st0" d="M1071.9,140.2c0.9,0,1.5,0.7,1.5,1.5s-0.6,1.5-1.5,1.5s-1.5-0.7-1.5-1.5S1071,140.2,1071.9,140.2z   M1070.7,161.7v-14.9h2.4v14.9H1070.7z"></path>
<path class="st0" d="M1079.2,142.1h2.4v4.7h4.5v2h-4.5v8.3c0,2.1,0.7,3,2.5,3c0.7,0,1.2-0.1,1.8-0.3v1.9c-0.4,0.2-1.4,0.4-2.3,0.4  c-3.5,0-4.4-2.1-4.4-5.7v-7.6h-3.1v-2h3.1L1079.2,142.1L1079.2,142.1z"></path>
<path class="st0" d="M1099.8,146.8h2.5l-6.2,14.5l-2.8,6.6h-2.4l2.9-6.8l-6.1-14.3h2.4l4.9,11.9L1099.8,146.8L1099.8,146.8z"></path>
</svg>
