<svg width="240" height="67" viewBox="0 0 240 67" fill="none" xmlns="http://www.w3.org/2000/svg">
<g clip-path="url(#clip0_1388_11674)">
<path d="M55.0552 38.5859V52.1014H48.0025C47.9813 51.769 47.9432 51.4386 47.9432 51.1062C47.939 45.0155 47.939 38.9248 47.939 32.834C47.939 29.8547 47.922 26.8755 47.9496 23.8962C47.958 22.8903 48.011 21.8716 48.172 20.8806C48.6762 17.7927 50.441 16.0856 53.5299 15.6615C54.39 15.5422 55.265 15.4889 56.1357 15.4825C58.4894 15.4655 60.8453 15.4399 63.199 15.5124C65.9849 15.5997 68.4827 16.4969 70.5356 18.464C72.4254 20.2733 73.5334 22.4875 73.8808 25.0832C74.152 27.1077 74.1266 29.1216 73.4254 31.0673C72.4529 33.7632 70.6966 35.7686 68.112 37.0195C67.9044 37.1197 67.7052 37.239 67.4362 37.3861C70.1331 42.2919 72.8025 47.1423 75.4804 52.0098C74.8278 52.1824 68.6882 52.2378 67.2985 52.0993C67.0866 51.7114 66.8535 51.2958 66.6332 50.876C64.6015 46.9931 62.5613 43.1145 60.5508 39.221C60.2817 38.6989 59.964 38.5007 59.3835 38.522C58.2204 38.5646 57.0552 38.5326 55.8921 38.5369C55.659 38.5369 55.426 38.5667 55.0574 38.5902V38.5859H55.0552ZM55.1124 32.5357C57.4874 32.5357 59.7563 32.5698 62.0253 32.5208C63.0931 32.4973 64.1079 32.1649 64.9384 31.4318C66.7709 29.81 67.2836 27.7812 66.6947 25.4476C66.2159 23.5445 64.646 22.0762 62.7351 21.9291C61.055 21.8013 59.3559 21.8205 57.6717 21.8972C56.2141 21.9632 55.3667 22.8306 55.1188 24.2755C55.0743 24.5355 55.0679 24.804 55.0679 25.0683C55.0637 27.2718 55.0637 29.4775 55.0679 31.6811C55.0679 31.9411 55.0955 32.2011 55.1124 32.5378V32.5357Z" fill="#26251e"/>
<path d="M93.4141 15.5121C93.6366 15.4972 93.8188 15.4717 94.001 15.4717C98.8949 15.4802 103.791 15.4162 108.683 15.5271C111.801 15.5974 114.583 16.6693 116.714 19.1031C117.898 20.4542 118.636 22.0355 119.004 23.7766C119.642 26.7857 119.653 29.8034 118.809 32.7784C117.718 36.6272 115.153 38.9672 111.324 39.9283C110.013 40.2565 108.67 40.3844 107.314 40.3822C105.356 40.378 103.399 40.3822 101.441 40.3822H100.475C100.376 41.1771 100.437 41.9401 100.427 42.6966C100.416 43.4681 100.424 44.2395 100.424 45.011V52.0117C99.8122 52.1865 94.3526 52.2248 93.4417 52.0735C93.2679 51.4938 93.2277 16.4839 93.4141 15.5143V15.5121ZM100.46 33.844C100.605 33.9036 100.651 33.942 100.7 33.942C103.208 33.91 105.727 33.991 108.225 33.8035C110.157 33.6586 111.547 32.512 112.038 30.5088C112.464 28.7741 112.464 27.0265 112.005 25.3025C111.454 23.2332 109.905 21.9758 107.736 21.897C105.465 21.816 103.191 21.8394 100.918 21.8245C100.772 21.8245 100.626 21.8927 100.463 21.9332V33.8461H100.46V33.844Z" fill="#26251e"/>
<path d="M7.32389 52.1098H0C0.11864 51.6964 0.203383 51.349 0.319904 51.0102C2.04442 46.0404 3.77105 41.0728 5.4998 36.1052C7.48067 30.4087 9.45094 24.7101 11.4509 19.0222C11.686 18.353 12.0271 17.7073 12.4063 17.1063C13.0737 16.0429 14.0758 15.5123 15.3321 15.4867C15.5969 15.4824 15.8617 15.4824 16.1244 15.4909C17.2748 15.5293 18.1667 16.0344 18.7112 17.0531C19.0481 17.6817 19.3298 18.3488 19.565 19.0243C22.9738 28.8083 26.3698 38.5943 29.7701 48.3804C30.1875 49.5802 30.6027 50.78 31.0413 52.0459C30.8125 52.0885 30.643 52.1461 30.4735 52.1461C28.41 52.1525 26.3465 52.1525 24.283 52.1461C23.6559 52.1461 23.6475 52.1375 23.4504 51.5344C22.9081 49.8679 22.3742 48.1971 21.8319 46.5306C21.5861 45.7762 21.5819 45.7719 20.7789 45.7719C17.2346 45.7719 13.6902 45.7719 10.1458 45.7719C9.36831 45.7719 9.36619 45.7783 9.11832 46.554C8.58868 48.2248 8.06327 49.8977 7.53363 51.5707C7.47855 51.7454 7.39804 51.9116 7.31966 52.1056H7.32389V52.1098ZM15.7812 25.6627C15.7007 25.6585 15.6202 25.6563 15.5397 25.6521C14.8173 27.9707 14.0842 30.2873 13.3766 32.6102C12.6606 34.9544 11.8788 37.2794 11.2221 39.6577C12.2941 39.8218 19.2811 39.7814 19.9061 39.6045C18.5311 34.9565 17.1562 30.3086 15.7791 25.6627H15.7812Z" fill="#26251e"/>
<path d="M164.636 52.0932C164.354 52.1187 164.151 52.1507 163.95 52.1507C161.967 52.155 159.982 52.155 157.999 52.1507C157.285 52.1507 157.278 52.1464 157.058 51.4687C156.505 49.7766 155.95 48.0867 155.416 46.3882C155.289 45.9854 155.119 45.7638 154.651 45.7659C150.895 45.7829 147.139 45.7765 143.383 45.7808C143.279 45.7808 143.177 45.8085 143.014 45.832C142.921 46.0877 142.811 46.3541 142.724 46.6247C142.209 48.2444 141.703 49.8683 141.186 51.4879C140.978 52.1422 140.97 52.1486 140.311 52.1486C138.3 52.1528 136.29 52.1528 134.279 52.1486C134.08 52.1486 133.881 52.106 133.605 52.074C133.711 51.7309 133.788 51.456 133.881 51.1874C137.601 40.4722 141.319 29.757 145.056 19.0481C145.298 18.3534 145.658 17.6864 146.054 17.0641C146.711 16.0326 147.696 15.5169 148.921 15.4871C149.238 15.4785 149.556 15.4764 149.872 15.4977C150.887 15.5659 151.719 15.9985 152.228 16.8936C152.579 17.5137 152.884 18.1723 153.117 18.8436C156.886 29.6547 160.64 40.4701 164.397 51.2833C164.481 51.5263 164.541 51.7756 164.63 52.0868L164.636 52.0932ZM144.815 39.6453C145.823 39.8201 152.88 39.7796 153.433 39.6176C153.355 38.7396 149.582 26.1384 149.183 25.5651C147.719 30.2834 146.279 34.9271 144.815 39.6453Z" fill="#26251e"/>
<path d="M233.524 12.0152L233.485 11.9938L231.685 10.9453L216.007 1.81992L215.814 1.70911C211.901 -0.569051 207.118 -0.569051 203.205 1.70911L203.012 1.82206L202.48 2.13107L201.641 2.61909C208.196 6.14395 229.217 19.0286 231.691 40.4548C233.769 38.6221 235.865 36.6487 237.958 34.5261L239.996 32.4099V23.3122C239.996 18.6536 237.528 14.3509 233.521 12.0173H233.524V12.0152Z" fill="#0957BE"/>
<path d="M231.93 44.7109C231.935 43.2575 231.854 41.8382 231.695 40.4551C215.639 54.6099 200.669 60.3192 196.811 61.6341L203.014 65.2463C206.287 67.1515 210.183 67.5053 213.687 66.3076C218.742 61.6575 225.469 54.5183 231.93 44.713V44.7109Z" fill="#1176D6"/>
<path d="M229.873 57.1758C231.295 52.7687 231.922 48.613 231.93 44.7109C225.469 54.5162 218.74 61.6554 213.687 66.3055C214.486 66.0327 215.266 65.6789 216.011 65.2442L229.873 57.1737V57.1758Z" fill="#2FB1E6"/>
<path d="M231.695 40.4549C231.854 41.838 231.935 43.2573 231.93 44.7108C233.99 41.5887 238.055 36.0798 239.998 32.4121C237.905 34.5347 233.774 38.6222 231.695 40.4549Z" fill="#2FB1E6"/>
<path d="M239.998 32.412C238.246 35.7216 234.767 40.5272 232.591 43.7282C232.191 44.3355 231.943 44.7064 231.933 44.7106C231.924 48.6127 231.297 52.7684 229.875 57.1755L233.488 55.0721C237.511 52.73 240 48.3356 240 43.5726V32.4077C240 32.4077 240 32.4077 239.998 32.412Z" fill="#52DAF2"/>
<path d="M201.645 2.6167L185.502 12.0149C181.494 14.3485 179.028 18.6533 179.028 23.3098V43.7535C179.028 48.4122 181.496 52.7149 185.502 55.0484L196.811 61.6314C200.669 60.3165 215.639 54.6073 231.695 40.4525C229.221 19.0241 208.2 6.13943 201.645 2.6167Z" fill="#09349D"/>
<path d="M204.169 28.3287H214.859V17.2896C214.859 17.0765 214.855 16.8634 214.861 16.6503C214.891 15.6295 215.359 15.1585 216.393 15.1372C217.107 15.1223 217.821 15.1244 218.537 15.1244C220.494 15.1244 222.454 15.1159 224.412 15.1244C225.678 15.1287 226.176 15.6359 226.174 16.9252C226.17 25.6521 226.151 34.3768 226.161 43.1037C226.164 45.3584 226.257 47.6132 226.306 49.87C226.31 50.1087 226.316 50.3495 226.297 50.5882C226.225 51.4385 225.592 52.0906 224.738 52.097C221.96 52.1183 219.181 52.1162 216.403 52.097C215.636 52.0928 214.916 51.3277 214.867 50.5477C214.848 50.2302 214.861 49.9084 214.861 49.5908V38.3833H204.224C204.207 38.6774 204.175 38.9822 204.173 39.2869C204.169 42.799 204.137 46.3111 204.188 49.8231C204.207 51.1785 203.791 52.0544 202.01 52.016C199.603 51.9649 197.194 52.0075 194.785 52.0011C193.442 52.0011 192.898 51.4577 192.898 50.1172C192.896 39.0504 192.898 27.9814 192.898 16.9145C192.898 16.7824 192.894 16.6481 192.904 16.516C192.98 15.6529 193.476 15.1542 194.347 15.1414C195.749 15.1201 197.152 15.1329 198.554 15.1329C199.876 15.1329 201.2 15.1265 202.522 15.135C203.692 15.1436 204.145 15.5954 204.166 16.7867C204.183 17.8245 204.171 18.8624 204.171 19.9002V28.3266L204.169 28.3287Z" fill="#26251e"/>
</g>
<defs>
<clipPath id="clip0_1388_11674"><rect width="240" height="67"/></clipPath>
</defs>
</svg>
