<?xml version="1.0" encoding="UTF-8"?>
<svg width="106px" height="33px" viewBox="0 0 106 33" version="1.1" xmlns="http://www.w3.org/2000/svg" xmlns:xlink="http://www.w3.org/1999/xlink">
    <title>GSK_logo</title>
    <g id="Symbols" stroke="none" stroke-width="1" fill="none" fill-rule="evenodd">
        <g id="Menu_open_1728" transform="translate(-20.000000, -56.000000)" fill="#F36633">
            <g id="Group" transform="translate(0.000000, 0.072535)">
                <g id="GSK_logo" transform="translate(20.000000, 56.500000)">
                    <path d="M37,12.4217568 C37,16.5111776 40.4249329,19.067127 45.0767166,19.067127 L60.7189107,19.067127 C61.8435137,19.067127 62.5591255,19.7827388 62.5591255,20.9073418 L62.5591255,23.565539 C62.5591255,24.690142 61.8435137,25.4057537 60.7189107,25.4057537 L38.6869659,25.4057537 L38.6869659,32 L60.8721595,32 C65.5240661,32 69,28.5239432 69,23.8721595 L69,20.9584657 C69,16.306682 65.5240661,12.8307481 60.8721595,12.8307481 L45.2812122,12.8307481 C44.1566092,12.8307481 43.4408745,12.1150134 43.4408745,10.9904104 L43.4408745,7.82109706 C43.4408745,7.05436139 43.9009897,6.59424626 44.6677253,6.59424626 L66.3419257,6.59424626 L66.3419257,0 L47.7860377,0 C45.2812122,0 43.2876257,1.99370936 43.2876257,4.49841198 L43.2876257,6.28750283 C43.2876257,6.44087454 43.1853779,6.59424626 42.9808823,6.59424626 C39.811446,6.69649406 37,8.48570781 37,12.4217568" id="Path"></path>
                    <path d="M74,22.6453087 L74,32 L80.5942463,32 L80.5942463,17.3291601 C80.5942463,16.6645493 81.1053624,16.5623015 81.4633526,16.9201688 L97.003176,32 L106,32 L89.5399463,16.0000614 L106,0 L97.003176,0 L81.4633526,15.0798312 C81.1053624,15.4376985 80.5942463,15.3354507 80.5942463,14.6709628 L80.5942463,0 L74,0 L74,9.4056923 C74,12.7796242 76.1980821,14.8243345 80.134254,15.8978136 C80.2876257,15.9489375 80.2876257,16.1023093 80.134254,16.1534332 C76.1980821,17.2269122 74,19.2716226 74,22.6453087" id="Path"></path>
                    <path d="M25.7124972,19.0670773 L25.7124972,24.1789958 C25.7124972,24.856513 25.1632839,25.4058513 24.4856464,25.4058513 L8.43458391,25.4058513 C7.41812763,25.4058513 6.59424626,24.5818439 6.59424626,23.5655066 L6.59424626,8.58774281 C6.59424626,7.48685413 7.48682538,6.59414869 8.58795562,6.59414869 L25.6613733,6.59414869 L25.6613733,0 L8.12784048,0 C3.63889134,0 0,3.63890532 0,8.1277488 L0,23.8722512 C0,28.5240528 3.47605679,32 8.12784048,32 L21.316333,32 C23.8211585,32 25.814745,29.9552818 25.814745,27.5015707 L25.814745,25.712473 C25.814745,25.5591007 25.9169928,25.4058513 26.1214884,25.4058513 C29.6996701,25.3036031 32,23.5655066 32,20.5495534 L32,12.8306745 L29.4983697,12.8306745 L20.219504,12.8306745 L18.9137553,12.8306745 L18.9137553,13.1208283 L18.9137553,14.8134539 C18.9137553,17.1831051 20.7998095,19.0691665 23.1694516,19.0691665 L25.7124972,19.0670773 Z" id="Fill-4"></path>
                </g>
            </g>
        </g>
    </g>
</svg>