<svg xmlns="http://www.w3.org/2000/svg" viewBox="0 0 513 126" class="Header-module--mainlogo--7934f">
    <title>National Center for Complementary and Integrative Health</title>
    <path fill="#636569" d="M135.33,36.67V89.59h-9.27V65.72H102V89.59H92.72V36.67H102v21h24.08v-21ZM83.45,89.59H74.19V36.67h9.26Zm-18.38,0H55.29L31.21,50.68H31V89.59H22.16V36.67H32l24.15,39h.15v-39h8.82ZM168,63,135.24,3.82H14.72a10.9,10.9,0,0,0-10.9,10.9v96.56a10.9,10.9,0,0,0,10.9,10.9H135.13Z"></path>
    <path fill="#316094" d="M143.34,122.18,176.14,63,143.45,3.82h8.18A15.31,15.31,0,0,1,163.72,11l28.75,52-28.85,52.11a15.28,15.28,0,0,1-12.09,7.12Z"></path>
    <path fill="#636569" d="M207.94,10.69h4.34L223,28h.07V10.69H227v23.5h-4.34L212,16.91h-.1V34.19h-3.91Z"></path>
    <path fill="#636569" d="M244.93,30.4c0,.92.19,1.29.88,1.29a5,5,0,0,0,.93-.07v2.6a9.36,9.36,0,0,1-2.37.43c-1.52,0-2.6-.53-2.9-2.08a8.71,8.71,0,0,1-5.89,2.08c-3.06,0-5.82-1.65-5.82-5,0-4.25,3.39-4.94,6.54-5.3,2.7-.49,5.11-.2,5.11-2.4,0-1.94-2-2.31-3.53-2.31-2.1,0-3.58.86-3.75,2.7h-3.75c.26-4.37,4-5.66,7.73-5.66,3.33,0,6.82,1.35,6.82,4.94Zm-3.76-4.74c-1.15.76-3,.73-4.6,1s-3.06.86-3.06,2.83c0,1.68,2.14,2.18,3.45,2.18,1.65,0,4.21-.86,4.21-3.23Z"></path>
    <path fill="#636569" d="M247.17,17.17H250v-5.1h3.76v5.1h3.39V20h-3.39v9.08c0,1.55.13,2.34,1.81,2.34a6.53,6.53,0,0,0,1.58-.13v2.89c-.83.07-1.62.2-2.44.2-3.92,0-4.64-1.51-4.71-4.34V20h-2.83Z"></path>
    <path fill="#636569" d="M259.85,10.69h3.75v3.55h-3.75Zm0,6.48h3.75v17h-3.75Z"></path>
    <path fill="#636569" d="M266.4,25.66c0-5.2,3.13-8.95,8.59-8.95s8.59,3.75,8.59,9-3.12,9-8.59,9S266.4,30.89,266.4,25.66Zm13.43,0c0-2.93-1.48-6-4.84-6s-4.84,3.06-4.84,6,1.48,6,4.84,6S279.83,28.62,279.83,25.66Z"></path>
    <path fill="#636569" d="M286.21,17.17h3.56v2.5l.06.07a6.09,6.09,0,0,1,5.3-3c3.69,0,6,2,6,5.79V34.19H297.4V23.49c-.06-2.66-1.12-3.82-3.32-3.82-2.5,0-4.12,2-4.12,4.48v10h-3.75Z"></path>
    <path fill="#636569" d="M318.69,30.4c0,.92.2,1.29.89,1.29a4.84,4.84,0,0,0,.92-.07v2.6a9.28,9.28,0,0,1-2.37.43c-1.51,0-2.59-.53-2.89-2.08a8.71,8.71,0,0,1-5.89,2.08c-3.06,0-5.83-1.65-5.83-5,0-4.25,3.39-4.94,6.55-5.3,2.7-.49,5.1-.2,5.1-2.4,0-1.94-2-2.31-3.52-2.31-2.1,0-3.59.86-3.75,2.7h-3.75c.26-4.37,4-5.66,7.73-5.66,3.32,0,6.81,1.35,6.81,4.94Zm-3.75-4.74c-1.15.76-3,.73-4.6,1s-3.06.86-3.06,2.83c0,1.68,2.13,2.18,3.45,2.18,1.65,0,4.21-.86,4.21-3.23Z"></path>
    <path fill="#636569" d="M322.51,10.69h3.75v23.5h-3.75Z"></path>
    <path fill="#636569" d="M354.56,18.16c-.69-2.7-2.43-4.67-5.85-4.67-5,0-7.15,4.44-7.15,9s2.11,9,7.15,9c3.65,0,5.65-2.73,6-6.15h4a9.63,9.63,0,0,1-10,9.51c-7,0-11.26-5.6-11.26-12.31s4.21-12.31,11.26-12.31c5.29,0,9.47,3,10,8Z"></path>
    <path fill="#636569" d="M364.85,26.65c0,2.67,1.45,5,4.57,5a4,4,0,0,0,4.15-2.84h3.55c-.82,3.72-4,5.8-7.7,5.8-5.33,0-8.32-3.72-8.32-8.95,0-4.84,3.16-9,8.23-9,5.36,0,8.65,4.84,8,9.94Zm8.75-2.47c-.13-2.37-1.74-4.51-4.27-4.51a4.45,4.45,0,0,0-4.48,4.51Z"></path>
    <path fill="#636569" d="M380.24,17.17h3.56v2.5l.06.07a6.09,6.09,0,0,1,5.3-3c3.69,0,6,2,6,5.79V34.19h-3.75V23.49c-.06-2.66-1.12-3.82-3.32-3.82-2.5,0-4.12,2-4.12,4.48v10h-3.75Z"></path>
    <path fill="#636569" d="M396.66,17.17h2.83v-5.1h3.76v5.1h3.38V20h-3.38v9.08c0,1.55.13,2.34,1.8,2.34a6.45,6.45,0,0,0,1.58-.13v2.89c-.82.07-1.61.2-2.43.2-3.92,0-4.64-1.51-4.71-4.34V20h-2.83Z"></path>
    <path fill="#636569" d="M411.6,26.65c0,2.67,1.45,5,4.58,5a3.94,3.94,0,0,0,4.14-2.84h3.56c-.83,3.72-4,5.8-7.7,5.8-5.33,0-8.33-3.72-8.33-8.95,0-4.84,3.16-9,8.23-9,5.36,0,8.65,4.84,8,9.94Zm8.76-2.47c-.13-2.37-1.75-4.51-4.28-4.51a4.45,4.45,0,0,0-4.48,4.51Z"></path>
    <path fill="#636569" d="M426.87,17.17h3.53v3.29h.06a5.5,5.5,0,0,1,5-3.75,9.3,9.3,0,0,1,1.42.1v3.62a12.69,12.69,0,0,0-1.62-.16c-2.56,0-4.6,2.07-4.6,5.82v8.1h-3.76Z"></path><path fill="#636569" d="M445.27,17.17h2.8V15.76c0-4.35,2.27-5.07,4.7-5.07a10.86,10.86,0,0,1,2.64.23v2.93a6.48,6.48,0,0,0-1.75-.2c-1,0-1.84.36-1.84,1.78v1.74H455V20h-3.19V34.19h-3.75V20h-2.8Z"></path>
    <path fill="#636569" d="M456.2,25.66c0-5.2,3.12-8.95,8.58-8.95s8.59,3.75,8.59,9-3.12,9-8.59,9S456.2,30.89,456.2,25.66Zm13.42,0c0-2.93-1.48-6-4.84-6s-4.83,3.06-4.83,6,1.48,6,4.83,6S469.62,28.62,469.62,25.66Z"></path>
    <path fill="#636569" d="M476,17.17h3.52v3.29h.06a5.5,5.5,0,0,1,5-3.75,9.3,9.3,0,0,1,1.42.1v3.62a12.69,12.69,0,0,0-1.62-.16c-2.56,0-4.6,2.07-4.6,5.82v8.1H476Z"></path>
    <path fill="#636569" d="M224,59.82c-.69-2.7-2.43-4.67-5.85-4.67-5,0-7.14,4.44-7.14,8.95s2.1,9,7.14,9c3.65,0,5.66-2.73,6-6.15h4a9.62,9.62,0,0,1-10,9.5c-7.05,0-11.26-5.59-11.26-12.3s4.21-12.31,11.26-12.31c5.29,0,9.47,3,10,8Z"></path>
    <path fill="#636569" d="M230.51,67.32c0-5.2,3.13-8.95,8.59-8.95s8.59,3.75,8.59,8.95-3.13,9-8.59,9S230.51,72.55,230.51,67.32Zm13.43,0c0-2.93-1.48-6-4.84-6s-4.84,3.06-4.84,6,1.49,6,4.84,6S243.94,70.28,243.94,67.32Z"></path>
    <path fill="#636569" d="M250.29,58.83h3.55V61.2h.1a5.7,5.7,0,0,1,5.24-2.83A4.82,4.82,0,0,1,264,61.2a6.15,6.15,0,0,1,5.33-2.83c3.59,0,5.69,1.58,5.69,5.73V75.85h-3.75V65.91c0-2.7-.17-4.58-3.09-4.58-2.54,0-3.62,1.68-3.62,4.54v10h-3.76V64.92c0-2.34-.72-3.59-3-3.59-1.94,0-3.72,1.58-3.72,4.41V75.85h-3.75Z"></path>
    <path fill="#636569" d="M278.36,58.83h3.56v2.31H282a5.69,5.69,0,0,1,5.27-2.77c5.36,0,8,4.08,8,9.05,0,4.58-2.3,8.89-7.34,8.89a6.6,6.6,0,0,1-5.69-2.67h-.07v8.49h-3.75Zm8.39,2.5c-3.16,0-4.77,2.41-4.77,6,0,3.42,1.75,6,4.77,6,3.43,0,4.71-3,4.71-6S289.85,61.33,286.75,61.33Z"></path>
    <path fill="#636569" d="M298,52.35h3.75v23.5H298Z"></path>
    <path fill="#636569" d="M308.24,68.31c0,2.67,1.45,5,4.58,5A3.94,3.94,0,0,0,317,70.51h3.56c-.83,3.72-4,5.8-7.7,5.8-5.34,0-8.33-3.72-8.33-9,0-4.84,3.16-9,8.23-9,5.36,0,8.65,4.84,8,9.94ZM317,65.84c-.14-2.37-1.75-4.51-4.28-4.51a4.45,4.45,0,0,0-4.48,4.51Z"></path>
    <path fill="#636569" d="M323.64,58.83h3.55V61.2h.1a5.69,5.69,0,0,1,5.23-2.83,4.83,4.83,0,0,1,4.78,2.83,6.13,6.13,0,0,1,5.33-2.83c3.58,0,5.69,1.58,5.69,5.73V75.85h-3.75V65.91c0-2.7-.17-4.58-3.1-4.58-2.53,0-3.62,1.68-3.62,4.54v10H334.1V64.92c0-2.34-.72-3.59-3-3.59-1.94,0-3.72,1.58-3.72,4.41V75.85h-3.75Z"></path>
    <path fill="#636569" d="M354.7,68.31c0,2.67,1.45,5,4.58,5a3.94,3.94,0,0,0,4.14-2.84H367c-.83,3.72-4,5.8-7.7,5.8-5.33,0-8.33-3.72-8.33-9,0-4.84,3.16-9,8.23-9,5.36,0,8.65,4.84,8,9.94Zm8.76-2.47c-.14-2.37-1.75-4.51-4.28-4.51a4.45,4.45,0,0,0-4.48,4.51Z"></path>
    <path fill="#636569" d="M370,58.83h3.56v2.5l.06.07a6.09,6.09,0,0,1,5.3-3c3.69,0,6,2,6,5.79V75.85h-3.75V65.15c-.06-2.66-1.12-3.82-3.32-3.82-2.5,0-4.12,2-4.12,4.48v10H370Z"></path>
    <path fill="#636569" d="M386.82,58.83h2.83v-5.1h3.75v5.1h3.39v2.8H393.4v9.08c0,1.55.14,2.34,1.81,2.34a6.45,6.45,0,0,0,1.58-.13v2.89c-.82.07-1.61.2-2.43.2-3.92,0-4.64-1.51-4.71-4.34v-10h-2.83Z"></path>
    <path fill="#636569" d="M413.74,72.06c0,.92.2,1.29.89,1.29a4.84,4.84,0,0,0,.92-.07v2.6a9.28,9.28,0,0,1-2.37.43c-1.51,0-2.6-.53-2.89-2.08a8.76,8.76,0,0,1-5.9,2.08c-3.05,0-5.82-1.65-5.82-5,0-4.25,3.39-4.94,6.55-5.3,2.7-.49,5.1-.2,5.1-2.4,0-1.94-2-2.31-3.52-2.31-2.11,0-3.59.86-3.75,2.7H399.2c.26-4.37,4-5.66,7.73-5.66,3.32,0,6.81,1.35,6.81,4.94ZM410,67.32c-1.15.76-3,.73-4.61,1s-3.06.86-3.06,2.83c0,1.68,2.14,2.18,3.46,2.18,1.64,0,4.21-.86,4.21-3.23Z"></path>
    <path fill="#636569" d="M417.46,58.83H421v3.29h.07a5.47,5.47,0,0,1,5-3.75,9.3,9.3,0,0,1,1.42.1v3.62a12.72,12.72,0,0,0-1.61-.16c-2.57,0-4.61,2.07-4.61,5.82v8.1h-3.75Z"></path>
    <path fill="#636569" d="M428.65,58.83h4.11l4.44,12.71h.07l4.31-12.71h3.92l-6.62,17.94c-1.22,3.06-2.1,5.82-6,5.82a16,16,0,0,1-2.6-.2V79.24a11.88,11.88,0,0,0,1.78.23c1.74,0,2.17-.93,2.63-2.37l.43-1.32Z"></path>
    <path fill="#636569" d="M469.69,72.06c0,.92.19,1.29.88,1.29a5,5,0,0,0,.93-.07v2.6a9.44,9.44,0,0,1-2.38.43c-1.51,0-2.59-.53-2.89-2.08a8.71,8.71,0,0,1-5.89,2.08c-3.06,0-5.83-1.65-5.83-5,0-4.25,3.39-4.94,6.55-5.3,2.7-.49,5.1-.2,5.1-2.4,0-1.94-2-2.31-3.52-2.31-2.1,0-3.59.86-3.75,2.7h-3.75c.26-4.37,4-5.66,7.73-5.66,3.33,0,6.82,1.35,6.82,4.94Zm-3.76-4.74c-1.15.76-3,.73-4.6,1s-3.06.86-3.06,2.83c0,1.68,2.13,2.18,3.45,2.18,1.65,0,4.21-.86,4.21-3.23Z"></path>
    <path fill="#636569" d="M473.4,58.83H477v2.5l.06.07a6.09,6.09,0,0,1,5.3-3c3.69,0,6,2,6,5.79V75.85h-3.75V65.15c-.06-2.66-1.12-3.82-3.32-3.82-2.5,0-4.12,2-4.12,4.48v10H473.4Z"></path>
    <path fill="#636569" d="M507.82,75.85h-3.55V73.54h-.07a5.64,5.64,0,0,1-5.26,2.77c-5.36,0-8-4-8-9.09,0-6.15,3.65-8.85,7.37-8.85,2.14,0,4.51.79,5.66,2.67h.06V52.35h3.75Zm-8.39-2.5c3.36,0,4.77-3.07,4.77-6,0-3.75-1.81-6-4.7-6-3.52,0-4.77,3.13-4.77,6.19S496.17,73.35,499.43,73.35Z"></path>
    <path fill="#636569" d="M208.43,94h4.12v23.5h-4.12Z"></path>
    <path fill="#636569" d="M216.17,100.5h3.55V103l.07.06a6.08,6.08,0,0,1,5.29-3c3.69,0,6,2,6,5.79v11.68h-3.76v-10.7c-.06-2.66-1.12-3.81-3.32-3.81-2.5,0-4.11,2-4.11,4.47v10h-3.75Z"></path>
    <path fill="#636569" d="M233.24,100.5h2.83V95.39h3.75v5.11h3.39v2.79h-3.39v9.09c0,1.54.13,2.33,1.81,2.33a6.49,6.49,0,0,0,1.58-.13v2.9c-.82.06-1.61.19-2.44.19-3.91,0-4.64-1.51-4.7-4.34v-10h-2.83Z"></path>
    <path fill="#636569" d="M248.39,110c0,2.67,1.44,5,4.57,5a4,4,0,0,0,4.15-2.83h3.55c-.82,3.72-4,5.79-7.7,5.79-5.33,0-8.33-3.72-8.33-9,0-4.84,3.16-9,8.23-9,5.36,0,8.66,4.83,8,9.93Zm8.75-2.47c-.13-2.36-1.74-4.5-4.28-4.5a4.43,4.43,0,0,0-4.47,4.5Z"></path>
    <path fill="#636569" d="M279.48,116.62c0,5.1-3,7.63-8.35,7.63-3.43,0-7.28-1.31-7.61-5.29h3.76c.46,2.14,2.17,2.5,4.08,2.5,3,0,4.37-1.55,4.37-4.35v-2.6h-.06a5.84,5.84,0,0,1-5.11,3c-5.39,0-7.63-4.08-7.63-9,0-4.58,2.86-8.52,7.7-8.52a5.35,5.35,0,0,1,5,2.79h.06V100.5h3.75Zm-3.75-8c0-2.93-1.31-5.62-4.57-5.62s-4.48,3.09-4.48,5.92,1.35,5.63,4.48,5.63C274.48,114.55,275.73,111.52,275.73,108.62Z"></path>
    <path fill="#636569" d="M282.61,100.5h3.52v3.29h.07a5.49,5.49,0,0,1,5-3.75,9.77,9.77,0,0,1,1.41.09v3.62a14.39,14.39,0,0,0-1.61-.16c-2.57,0-4.61,2.07-4.61,5.82v8.1h-3.75Z"></path>
    <path fill="#636569" d="M308.28,113.72c0,.93.2,1.29.89,1.29a4.84,4.84,0,0,0,.92-.07v2.6a9.28,9.28,0,0,1-2.37.43c-1.51,0-2.6-.53-2.89-2.07a8.8,8.8,0,0,1-5.9,2.07c-3.06,0-5.82-1.65-5.82-5,0-4.24,3.39-4.94,6.55-5.3,2.7-.49,5.1-.2,5.1-2.4,0-1.94-2-2.3-3.52-2.3-2.11,0-3.59.85-3.75,2.69h-3.76c.27-4.37,4-5.65,7.74-5.65,3.32,0,6.81,1.34,6.81,4.93ZM304.53,109c-1.15.75-3,.72-4.61,1s-3.06.86-3.06,2.84c0,1.67,2.14,2.17,3.46,2.17,1.64,0,4.21-.86,4.21-3.23Z"></path>
    <path fill="#636569" d="M310.53,100.5h2.83V95.39h3.75v5.11h3.39v2.79h-3.39v9.09c0,1.54.13,2.33,1.81,2.33a6.53,6.53,0,0,0,1.58-.13v2.9c-.83.06-1.61.19-2.44.19-3.91,0-4.64-1.51-4.7-4.34v-10h-2.83Z"></path>
    <path fill="#636569" d="M323.21,94H327v3.56h-3.75Zm0,6.49H327v17h-3.75Z"></path>
    <path fill="#636569" d="M329.27,100.5h4.08l4.31,13.06h.07l4.14-13.06h3.89l-6.09,17h-4.21Z"></path>
    <path fill="#636569" d="M350.13,110c0,2.67,1.45,5,4.58,5a3.94,3.94,0,0,0,4.14-2.83h3.56c-.82,3.72-4,5.79-7.7,5.79-5.33,0-8.33-3.72-8.33-9,0-4.84,3.16-9,8.23-9,5.36,0,8.65,4.83,8,9.93Zm8.76-2.47a4.38,4.38,0,1,0-8.76,0Z"></path>
    <path fill="#636569" d="M374.75,94h4.12v9.35h10.69V94h4.11v23.5h-4.11v-10.6H378.87v10.6h-4.12Z"></path>
    <path fill="#636569" d="M400.29,110c0,2.67,1.44,5,4.57,5a4,4,0,0,0,4.15-2.83h3.55c-.82,3.72-4,5.79-7.7,5.79-5.33,0-8.32-3.72-8.32-9,0-4.84,3.15-9,8.22-9,5.37,0,8.66,4.83,8,9.93ZM409,107.5c-.13-2.36-1.74-4.5-4.28-4.5a4.44,4.44,0,0,0-4.47,4.5Z"></path>
    <path fill="#636569" d="M430,113.72c0,.93.19,1.29.89,1.29a4.9,4.9,0,0,0,.92-.07v2.6a9.36,9.36,0,0,1-2.37.43c-1.52,0-2.6-.53-2.9-2.07a8.76,8.76,0,0,1-5.89,2.07c-3.06,0-5.82-1.65-5.82-5,0-4.24,3.39-4.94,6.54-5.3,2.7-.49,5.11-.2,5.11-2.4,0-1.94-2-2.3-3.53-2.3-2.1,0-3.58.85-3.75,2.69h-3.75c.27-4.37,4-5.65,7.73-5.65,3.33,0,6.82,1.34,6.82,4.93ZM426.22,109c-1.16.75-3,.72-4.61,1s-3.06.86-3.06,2.84c0,1.67,2.14,2.17,3.45,2.17,1.65,0,4.22-.86,4.22-3.23Z"></path>
    <path fill="#636569" d="M433.79,94h3.75v23.5h-3.75Z"></path>
    <path fill="#636569" d="M439.84,100.5h2.82V95.39h3.76v5.11h3.39v2.79h-3.39v9.09c0,1.54.13,2.33,1.81,2.33a6.53,6.53,0,0,0,1.58-.13v2.9c-.83.06-1.62.19-2.44.19-3.91,0-4.64-1.51-4.71-4.34v-10h-2.82Z"></path>
    <path fill="#636569" d="M452.43,94h3.75v8.72h.07a6,6,0,0,1,5.1-2.69c3.69,0,6,2,6,5.79v11.68h-3.75v-10.7c-.07-2.66-1.12-3.81-3.32-3.81a4.15,4.15,0,0,0-4.12,4.47v10h-3.75Z"></path>
</svg>
